<?xml version="1.0" encoding="utf-8" ?>
<svg xmlns="http://www.w3.org/2000/svg" xmlns:xlink="http://www.w3.org/1999/xlink" width="225" height="225">
	<path fill="#F4F5F8" d="M120.657 35.7656C121.3 35.2989 121.942 34.7012 122.778 34.7349C123.291 35.0254 123.558 35.1932 123.707 35.7973C123.915 36.636 123.864 37.8669 123.71 38.7179C123.315 39.0117 122.981 39.0701 122.501 39.1386C121.95 38.8859 121.911 38.7835 121.59 38.2591L121.467 37.9976C120.873 37.7694 120.585 37.7595 120.242 37.2097L120.657 35.7656Z"/>
	<path fill="#F4F5F8" d="M106.44 36.5988C107.356 35.9493 108.59 34.904 109.772 35.1003C110.189 35.4449 110.435 35.6132 110.491 36.1863C110.544 36.7422 110.333 37.4915 110.223 38.0365L110.193 38.765C110.56 39.0894 110.917 39.2087 111.38 39.3533C111.485 39.6589 111.564 39.8625 111.495 40.1915C110.801 40.6654 110.039 41.3932 109.168 41.4187C108.628 41.0753 108.574 40.8952 108.319 40.3333L108.597 37.9297C108.783 37.6858 108.729 37.5698 108.727 37.2762C108.378 37.0048 108.13 36.841 107.679 36.8023C107.245 36.765 106.864 36.6955 106.44 36.5988Z"/>
	<path fill="#F4F5F8" d="M113.24 36.3527C114.218 35.6981 115.524 34.7259 116.753 34.9377C117.167 35.3074 117.291 35.3429 117.348 35.9161C117.44 36.8556 116.99 37.2163 117.334 38.2133L116.899 38.2551C116.514 37.7253 116.504 37.7118 115.869 37.5551C115.425 37.7986 115.349 37.8308 115.116 38.2735C114.837 37.3366 113.996 36.8999 113.24 36.3527Z"/>
	<path fill="#F3F7F7" d="M117.334 38.2133C118.411 37.3319 119.46 36.482 120.657 35.7656L120.242 37.2097C120.585 37.7595 120.873 37.7694 121.467 37.9976C119.959 38.6179 118.569 39.84 117.258 40.8065C117.135 39.9318 116.906 39.1522 116.899 38.2551L117.334 38.2133Z"/>
	<path fill="#ECEDF2" d="M110.223 38.0365C110.253 38.032 110.282 38.0286 110.311 38.0229C110.36 38.0134 110.407 38.0006 110.456 37.9911C111.532 37.7793 112.379 36.9972 113.24 36.3527C113.996 36.8999 114.837 37.3366 115.116 38.2735C113.784 38.4356 112.688 39.6182 111.495 40.1915C111.564 39.8625 111.485 39.6589 111.38 39.3533C110.917 39.2087 110.56 39.0894 110.193 38.765L110.223 38.0365Z"/>
	<path fill="#ECEDF2" d="M102.605 39.0333L106.44 36.5988C106.864 36.6955 107.245 36.765 107.679 36.8023C108.13 36.841 108.378 37.0048 108.727 37.2762C108.729 37.5698 108.783 37.6858 108.597 37.9297C107.39 38.6771 105.726 40.1488 104.395 40.4694C103.86 40.813 103.504 41.0352 102.841 41.0477C102.422 40.4648 102.572 39.7191 102.605 39.0333Z"/>
	<path fill="#F4F5F8" d="M115.116 38.2735C115.349 37.8308 115.425 37.7986 115.869 37.5551C116.504 37.7118 116.514 37.7253 116.899 38.2551C116.906 39.1522 117.135 39.9318 117.258 40.8065C116.972 41.0264 116.651 41.2079 116.344 41.3982C115.672 41.3167 115.679 41.3005 115.232 40.7869C114.961 39.8662 114.965 39.2185 115.116 38.2735Z"/>
	<path fill="#D6EAF3" d="M121.59 38.2591C121.911 38.7835 121.95 38.8859 122.501 39.1386C122.981 39.0701 123.315 39.0117 123.71 38.7179L124.132 39.4087C123.02 40.1414 121.802 39.4675 120.86 40.2034C120.814 40.694 120.748 40.803 121.014 41.2345Q121.756 41.2106 122.499 41.1945L122.728 41.6045C121.521 43.0859 122.562 49.7427 122.369 52.0139C122.258 52.5898 122.07 53.2657 122.443 53.7868C122.543 53.9278 122.54 53.9138 122.656 54.0027L122.59 54.5141C121.747 55.6237 122.382 57.6878 122.009 59.0205C121.316 59.3218 120.958 59.4296 120.21 59.241C119.111 58.2046 119.887 57.1164 119.267 56.0518C119.249 56.0202 119.228 55.99 119.208 55.9592C119.05 54.5809 119.305 53.1771 119.05 51.8466C118.879 51.6278 118.684 51.2737 118.435 51.1558C117.456 50.6925 115.447 50.6015 114.422 50.9426C113.866 51.5708 113.901 51.7635 113.799 52.5715L113.21 53C113.031 51.66 113.328 50.3766 113.103 49.0266C112.61 48.3392 112.38 48.3026 111.616 47.9914C114.137 47.4259 117.013 47.5744 119.591 47.5758C119.396 45.7127 119.031 41.616 119.882 40.0328C120.302 39.251 121.134 39.2044 121.59 38.2591ZM121.294 48.5387L120.507 47.7511C120.048 48.2777 119.619 48.6179 119.697 49.3864C119.724 49.6583 119.863 49.9579 119.966 50.206L120.445 50.503C120.908 50.2453 121.123 50.0015 121.25 49.4623C121.317 49.1731 121.299 48.8345 121.294 48.5387Z"/>
	<path fill="#F8F8F5" d="M101.654 48.2646C102.734 46.1683 100.318 41.7831 102.605 39.0333C102.572 39.7191 102.422 40.4648 102.841 41.0477C103.504 41.0352 103.86 40.813 104.395 40.4694C103.991 41.7949 103.567 48.9053 104.022 49.9739C103.638 49.907 103.234 49.7987 102.901 49.5897C102.308 49.2174 101.797 48.9529 101.654 48.2646Z"/>
	<path fill="#F8F8F5" d="M124.132 39.4087C127.169 39.0794 130.429 39.5562 133.498 39.5901C133.629 42.292 133.832 45.1333 133.658 47.8318C134.35 50.0838 132.513 52.8015 133.683 55.2114L133.761 55.5318C133.193 56.1075 132.941 56.2873 132.726 57.0822C132.469 57.5533 132.218 57.8324 132.258 58.38L132.818 58.2941L132.656 58.4057C132.868 58.8222 132.745 59.2778 132.711 59.7394C133.036 59.464 133.373 59.2186 133.723 58.9764C133.335 60.8282 133.985 62.6203 133.734 64.4716C133.403 65.0976 133.098 65.2625 132.479 65.5513C132.175 65.5125 131.897 65.5522 131.686 65.3083C130.885 64.3797 131.226 61.8583 131.254 60.6669C130.726 60.9923 130.188 61.3244 129.622 61.5788C126.104 63.1606 120.244 62.5669 116.707 61.2646Q113.851 60.1925 111.253 58.5945C107.625 56.3305 104.506 53.2687 100.932 50.9549C99.555 50.0633 96.2583 48.8858 95.6574 47.3912C95.5198 47.0489 95.6883 46.8965 95.841 46.5865C96.1343 46.3732 96.4585 46.1425 96.8227 46.0775C98.3919 45.7972 100.475 47.3332 101.654 48.2646C101.797 48.9529 102.308 49.2174 102.901 49.5897C103.234 49.7987 103.638 49.907 104.022 49.9739C105.525 51.1054 109.674 54.6973 111.31 54.8691C111.486 55.2024 112.068 55.8934 112.409 56.0417C112.561 56.1079 112.725 55.9754 112.866 55.9132C113.276 55.0896 113.178 53.9096 113.21 53L113.799 52.5715C113.901 51.7635 113.866 51.5708 114.422 50.9426C115.447 50.6015 117.456 50.6925 118.435 51.1558C118.684 51.2737 118.879 51.6278 119.05 51.8466C119.305 53.1771 119.05 54.5809 119.208 55.9592C117.428 56.7377 115.38 56.0352 114.028 56.7901C114.708 57.8433 120.051 59.9671 121.546 60.2879C122.667 60.5284 125.036 60.5162 126.018 59.8919L127.447 59.7969C127.569 59.8291 127.697 59.8575 127.823 59.8609C128.63 59.8824 129.497 59.485 130.107 58.9825C130.554 58.7667 130.949 58.4476 131.351 58.1589C131.78 57.2301 131.16 54.5744 131.125 53.4143C131.006 49.5064 131.749 45.3086 131.188 41.4519L131.896 41.6569C132.547 41.5158 132.929 41.4207 133.417 40.9362C133.38 40.61 133.371 40.4743 133.143 40.2184C132.636 39.9757 132.232 40.0888 131.696 40.1716C130.914 40.2924 128.971 40.4768 128.543 41.0665C129.22 41.0995 129.706 41.2144 130.326 41.4967L130.512 41.5829C128.172 41.7649 125.01 42.037 122.728 41.6045L122.499 41.1945Q121.756 41.2106 121.014 41.2345C120.748 40.803 120.814 40.694 120.86 40.2034C121.802 39.4675 123.02 40.1414 124.132 39.4087Z"/>
	<path fill="#F3F7F7" d="M130.512 41.5829L130.326 41.4967C129.706 41.2144 129.22 41.0995 128.543 41.0665C128.971 40.4768 130.914 40.2924 131.696 40.1716C132.232 40.0888 132.636 39.9757 133.143 40.2184C133.371 40.4743 133.38 40.61 133.417 40.9362C132.929 41.4207 132.547 41.5158 131.896 41.6569L131.188 41.4519L130.512 41.5829Z"/>
	<path fill="#F8F8F5" d="M126.7 49.8426C125.654 49.6483 124.443 48.1638 123.75 47.3905C123.312 46.9019 123.127 46.4485 123.174 45.7872C123.246 44.7768 125.279 43.4118 126.046 42.7467C126.435 42.7212 126.828 42.742 127.217 42.7496C128.402 43.8712 129.8 44.9185 129.99 46.6381C129.582 47.8283 127.701 49.0049 126.7 49.8426Z"/>
	<path fill="#F4F5F8" d="M133.658 47.8318C136.462 47.9222 139.222 48.0068 142.017 47.6724C142.169 49.2656 142.351 50.8334 142.18 52.4326C142.163 52.5976 142.181 52.694 142.244 52.8464C142.055 52.9515 141.93 53.0404 141.777 53.1969C141.411 53.5735 141.135 53.7843 140.654 53.9981C140.061 53.6169 140.009 53.3612 139.713 52.7348C139.88 51.8965 139.917 51.0944 139.931 50.2411C137.94 50.1406 135.825 50.2515 133.858 49.9806C133.845 51.6648 133.981 53.5588 133.683 55.2114C132.513 52.8015 134.35 50.0838 133.658 47.8318Z"/>
	<path fill="#F4F5F8" d="M120.507 47.7511L121.294 48.5387C121.299 48.8345 121.317 49.1731 121.25 49.4623C121.123 50.0015 120.908 50.2453 120.445 50.503L119.966 50.206C119.863 49.9579 119.724 49.6583 119.697 49.3864C119.619 48.6179 120.048 48.2777 120.507 47.7511Z"/>
	<path fill="#F4F5F8" d="M111.31 54.8691C110.944 52.7278 110.668 50.0048 111.616 47.9914C112.38 48.3026 112.61 48.3392 113.103 49.0266C113.328 50.3766 113.031 51.66 113.21 53C113.178 53.9096 113.276 55.0896 112.866 55.9132C112.725 55.9754 112.561 56.1079 112.409 56.0417C112.068 55.8934 111.486 55.2024 111.31 54.8691Z"/>
	<path fill="#F3F7F7" d="M98.0718 53.6418C97.0842 53.4787 95.9336 52.9782 95.044 52.5235C94.4184 52.2037 94.1369 51.7932 93.9362 51.1368C94.1252 50.2749 94.4564 50.0266 95.0394 49.3803C95.9624 49.576 97.0588 50.1475 97.877 50.6179C98.5146 50.9845 98.8512 51.3955 99.0611 52.0978C98.8543 52.8832 98.6209 53.0647 98.0718 53.6418Z"/>
	<path fill="#F3F7F7" d="M94.3755 56.3256C89.4918 52.8385 84.6163 53.0009 78.9035 53.0874C77.4225 53.1099 75.5516 52.9138 74.1146 53.1858C74.0478 53.1985 73.9374 53.2352 73.8788 53.2532L73.9856 53.6109L73.3101 53.4489C74.9487 54.7714 79.7522 52.0642 81.5021 54.6025C81.487 55.3241 81.1357 55.835 80.6327 56.32C79.0672 57.8299 77.2769 59.0173 76.0209 60.8269L75.9318 60.9528C75.0519 62.2212 74.8732 65.4196 75.1709 66.8878C75.728 69.6355 79.4055 70.4999 79.3148 73.0151L79.3099 73.1788C79.3062 73.2854 79.2972 73.3918 79.2878 73.4981L79.1344 73.94L79.2756 73.9727C78.0877 75.1663 76.7217 74.7527 75.2336 75.0982C73.6336 72.6948 71.8763 67.6717 71.9339 64.7877C71.954 63.7831 72.553 62.7417 72.4794 61.7529C72.4489 61.3426 72.3441 61.1778 72.0395 60.9345C71.3792 61.1634 70.7295 62.1116 70.2608 62.6419Q70.2828 64.9676 70.2658 67.2934C69.7866 67.595 69.4035 67.7266 69.2651 68.3351C69.0284 69.376 69.4511 70.3033 68.8682 71.3142C68.8151 71.3352 68.7616 71.3555 68.7087 71.3772C67.7333 71.7768 67.0677 72.6715 66.6746 73.6271C66.4392 74.1992 66.482 74.4721 66.7243 75.0323C66.9548 75.5653 67.147 75.9391 67.6844 76.206Q68.392 76.0807 69.1018 75.9692C70.0168 76.7969 69.9103 77.8557 69.9678 79.0177C69.9808 79.2801 69.9942 79.5343 70.0369 79.7945L69.2512 79.9565C67.3996 79.5814 66.18 77.8544 64.9705 76.5287C65.07 77.7672 65.6739 80.2142 65.4241 81.2927C65.2825 81.9039 64.8368 82.5908 64.2967 82.9218C63.8212 83.2132 63.642 83.2345 63.1209 83.1005C62.9104 82.7426 62.8264 82.3963 62.7696 81.9886C62.2073 77.9521 62.7596 73.408 62.7716 69.2998C62.7871 63.9841 62.4163 58.5201 62.7332 53.2223C62.7761 52.5047 62.7684 51.8329 63.2048 51.2478C65.002 50.5401 68.0252 50.3147 69.8902 50.807C70.4172 51.7601 69.9209 52.7043 70.4208 53.5921C70.9568 53.6981 71.2991 53.6479 71.8072 53.4906C72.0005 53.4308 71.7779 51.6755 72.0483 51.1718C73.888 50.2311 77.617 50.7539 79.677 50.774C82.6348 50.8028 85.6459 50.7034 88.5577 51.3237C99.9997 53.761 107.053 65.1781 118.283 67.8268C124.789 69.3612 128.212 66.8651 134.023 66.2671C136.604 66.0014 138.998 66.3887 141.516 66.9274C141.465 65.644 141.25 64.3073 142.107 63.2449C142.173 63.2414 142.238 63.2389 142.303 63.2344C143.447 63.1552 144.226 62.1354 145.207 62.1783C145.268 62.5354 145.331 62.8751 145.321 63.2382C144.477 63.8161 143.727 64.426 143.516 65.4762C143.464 65.7324 143.621 66.0578 143.696 66.3091C145.643 68.4398 151.236 68.8493 154.037 69.0654L154.421 68.887C154.565 68.212 154.619 67.597 154.623 66.9072L154.671 67.1204C154.9 68.143 154.638 69.3749 155.406 70.0553C155.765 70.0813 156.107 70.1371 156.451 70.0093L156.451 70.3921C155.939 70.6069 154.965 70.5796 154.699 70.995C155.178 71.4044 155.529 71.4258 156.126 71.4577C156.524 71.204 156.663 71.1694 156.782 70.6834C156.873 70.3106 156.786 69.8929 156.732 69.5183L156.965 69.2325C157.784 69.5237 158.84 69.1532 159.608 68.7981C160.888 68.2062 162.53 66.5336 164.025 67.0303C165.044 67.3691 165.612 68.4764 166.112 69.3511C166.235 71.3462 167.017 74.7446 166.014 76.5329L166.07 76.414L165.706 76.6452C165.169 76.322 164.731 75.9021 164.098 75.9574C163.766 76.5065 163.666 76.7616 163.824 77.4046C164.062 78.3735 164.633 79.1043 164.452 80.1137C163.615 80.525 162.521 80.2111 161.665 79.9266C160.646 79.5881 159.144 78.4074 158.131 78.4976C158.119 78.7745 158.079 78.8088 158.229 79.056Q157.881 79.7464 157.573 80.4553C157.008 80.5503 156.528 80.4558 155.975 80.3546C154.502 79.3667 152.771 79.4191 151.238 78.5966C150.923 78.0831 150.861 78.0845 150.992 77.5061C151.619 76.7983 152.293 76.2678 153.193 75.9427C156.262 74.8338 159.272 76.1694 161.998 77.4979C161.153 76.5446 158.227 74.4271 158.028 73.5623L158.286 73.1532C159.862 72.3376 161.557 72.5031 163.265 72.6862L163.481 72.4304C163.535 71.6076 163.717 70.8519 163.357 70.099C155.442 75.3141 143.693 67.9038 134.893 68.6272C127.88 69.2036 128.414 71.7073 123.536 73.9499C121.221 75.0143 117.868 74.886 116.158 76.9762C114.767 78.6756 113.101 82.1469 113.339 84.3656C113.684 84.9078 113.666 84.9031 114.291 85.0488C115.354 83.8248 115.293 80.7252 116.257 79.0652C117.338 77.2024 118.965 76.2945 120.967 75.7377C123.754 75.9909 124.481 75.7766 126.715 77.6178C125.398 77.4295 125.064 76.7204 123.347 77.1459C123.196 77.3951 123.005 77.6593 122.89 77.9251C121.079 78.3489 119.436 78.9455 118.408 80.6159C117.647 81.8513 117.391 83.4192 117.088 84.8229C118.049 84.8615 119.23 84.7705 120.067 85.292C120.323 85.7884 120.389 85.9778 120.194 86.5298C120.016 87.0326 119.613 87.5365 119.31 87.9762C119.321 90.5575 119.162 93.9823 121.206 95.9419C121.368 96.0973 121.553 96.2184 121.749 96.3252C122.122 96.2544 122.162 96.2916 122.379 95.98C123.732 94.0372 122.111 85.2134 123.98 84.8131C125.073 84.579 126.553 84.7611 127.69 84.7413C129.109 83.4388 130.631 82.1406 132.34 81.2301C133.534 81.4086 134.899 80.901 136.004 81.3058L135.946 81.6412L135.883 81.7136C135.054 82.6466 134.077 83.1904 133.038 83.8513C132.514 84.1846 131.864 84.6273 131.531 85.1641C130.738 86.443 131.129 90.4322 131.2 91.9112C131.234 92.6131 131.196 93.2455 131.625 93.8134L132.392 94.0065C134.936 92.9898 135.666 94.8936 138.745 92.9783L139.397 93.7797C140.03 93.7111 140.472 93.495 141.031 93.2092L141.606 93.1936L141.713 93.7428L142.249 93.7953C142.746 93.3522 142.83 93.1334 142.869 92.4602C142.915 91.6635 142.726 91.0861 143.119 90.3729L143.396 90.5181C143.538 91.3913 143.434 93.1374 144.226 93.6862C145.355 94.4695 147.071 94.0996 148.362 93.982L148.47 93.8832C148.748 93.6319 148.951 93.4553 149.305 93.3313C149.41 94.1832 149.313 94.8519 150.072 95.3936C151.894 96.6943 155.177 97.0686 156.269 99.1241C156.315 99.7237 156.346 100.182 155.94 100.68C155.638 101.051 155.198 101.38 154.824 101.681C153.335 100.635 151.909 99.5889 150.227 98.8675C150.186 98.8362 150.145 98.8042 150.104 98.7736C149.565 98.3737 148.74 97.8572 148.063 97.9669L147.844 97.9539C145.449 97.7952 143.076 97.0663 140.695 96.7326C134.206 95.8229 127.39 97.0716 121.437 99.6936C125.213 101.455 129.829 105.293 133.618 106.238C139.094 107.603 141.688 102.694 147.219 107.178C147.786 106.224 148.61 104.33 149.697 103.936C150.584 103.503 151.171 103.224 152.151 103.488L152.096 105.122C151.146 105.588 150.251 105.251 149.833 106.486C149.651 107.024 149.684 107.587 149.938 108.098C150.295 108.818 150.798 109.099 151.537 109.327C153.057 109.796 156.138 111.297 157.596 110.449C157.826 110.316 157.966 110.206 158.094 109.974C160.113 109.148 163.464 108.014 165.577 108.953C165.998 109.14 166.393 109.467 166.539 109.917C166.724 110.49 166.665 110.72 166.471 111.271C165.268 112.139 162.603 111.551 160.909 112.04C160.133 111.757 158.867 112.344 158.139 112.688C157.885 112.809 157.536 112.951 157.321 113.127C154.486 113.722 150.634 113.117 148.25 111.489C147.055 110.672 145.901 109.562 144.592 108.951C144.541 108.927 144.49 108.904 144.438 108.882C141.507 107.627 136.34 109.784 132.742 109.439C130.9 109.263 129.288 108.123 127.56 107.533C126.265 107.091 124.782 106.988 123.422 106.932C117.258 106.678 108.22 108.888 103.606 113.125C104.312 113.66 105.511 114.317 105.685 115.242C105.803 115.873 105.61 116.187 105.262 116.681C104.466 116.986 103.814 116.892 103.096 116.436C102.01 115.746 101.12 114.383 100.14 113.504C96.8845 110.584 92.6642 107.79 88.5096 106.351C87.8161 106.111 87.4614 106.134 86.8181 106.448C87.1655 107.093 93.3664 110.061 94.6765 110.895C96.796 112.243 101.278 114.927 101.856 117.523C101.709 117.837 101.701 118.018 101.361 118.15C100.787 118.373 99.9792 118.323 99.4324 118.043C98.0711 117.346 96.7421 115.873 95.5493 114.89C93.374 113.097 90.8885 111.668 88.3083 110.545C80.1102 106.978 70.8074 107.259 62.5735 110.497C62.6096 108.987 62.3709 106.503 62.9653 105.13C63.1409 104.724 63.2399 104.735 63.627 104.587C64.4602 104.834 64.8827 105.746 65.3208 106.441C70.4815 105.321 76.8472 104.266 81.9976 105.652C83.0903 105.129 84.502 104.594 85.4648 103.873C87.4118 102.417 86.7193 99.446 88.3826 97.9039C89.1916 97.1539 90.3028 97.3761 91.0892 96.7925C91.4819 96.5011 91.4931 96.4137 91.5759 95.9666L91.2314 95.5732C89.1615 94.7229 89.1422 96.2054 87.4051 96.3301C85.7529 95.8135 84.6641 93.2345 83.8445 91.7907C84.24 91.0125 84.7418 90.2736 85.1832 89.5193C85.5785 88.8438 86.2213 87.9166 86.011 87.1086C84.3723 86.7267 83.4832 89.9869 81.6196 90.1871C77.5894 89.1158 77.1992 89.456 76.7669 85.2721C76.7035 84.6586 76.6899 84.1377 76.3503 83.6019L75.8871 83.6262C75.2279 84.5332 75.5185 86.0696 75.2067 87.1676Q75.1308 87.4388 75.0023 87.6894Q74.8739 87.9401 74.698 88.1601Q74.5222 88.3801 74.3061 88.5607Q74.09 88.7413 73.8422 88.8752C73.2165 89.2121 72.3943 89.2811 71.6977 89.3769C67.8426 89.9073 69.1319 87.1081 66.4894 86.2666L66.0019 86.6313C65.7731 87.6673 67.0908 89.9052 67.5165 90.938C66.8793 92.0372 65.2251 95.0334 63.9963 95.367C63.8318 95.4116 63.2648 95.007 63.0908 94.903C62.1016 93.0288 63.6897 92.0836 63.6566 90.3216C63.6302 88.9115 62.4676 87.6732 62.8309 86.1797C63.3526 84.0344 65.542 83.2554 67.2543 82.1752Q69.4533 84.1789 71.7058 86.1224C71.925 84.8009 72.1301 82.7736 72.9579 81.7043C73.5643 80.921 74.7329 80.6392 75.6688 80.5518C76.9011 80.4368 78.573 80.5689 79.5303 81.4565C80.5402 82.3929 80.3299 85.5162 80.3823 86.875C81.6264 85.8076 83.0948 84.338 84.6476 83.7561C85.3497 83.493 85.9359 83.529 86.6043 83.8619C87.8892 84.5019 88.9794 85.9054 89.4252 87.2537C89.9927 88.9701 88.5219 91.1032 87.7618 92.6124C89.256 92.2719 90.7224 91.8245 92.2412 92.2854C95.5161 93.2791 94.2016 95.8775 95.3645 98.1054L95.9069 98.2559C96.8794 97.8393 98.4528 97.7596 99.1957 97.1074C99.2489 97.084 99.3027 97.0619 99.3553 97.0371C100.43 96.53 101.084 95.6807 101.446 94.6105C101.542 95.4501 101.632 96.2893 101.786 97.1209C103.18 97.0497 104.581 97.0322 105.976 96.9899Q106.729 95.85 107.456 94.6927C109.308 91.7256 109.346 89.9378 108.581 86.6152C109.079 85.4162 110.223 85.2472 110.641 84.1902C111.566 81.8494 111.299 79.0535 112.759 76.8645C114.917 73.6273 117.927 72.705 121.499 71.9613C122.104 71.8353 122.79 71.7265 123.154 71.1775L122.852 70.8944C119.951 70.8911 117.168 70.1467 114.339 69.5906C109.381 68.6158 103.895 68.5064 98.9665 69.7212C97.3028 70.1313 95.6448 70.7066 94.1301 71.5143C92.3779 72.4487 90.4184 74.2834 88.4241 74.5721C87.7832 74.6648 87.4948 74.6822 86.9716 74.2989C86.9762 74.1101 87.0007 73.9307 87.0685 73.7528C88.3854 70.2956 94.6258 68.9065 97.6026 67.4696L97.7728 67.3863L98.2934 67.3683L98.3339 67.0382C101.227 66.6309 104.125 66.4872 107.004 66.115L107.192 65.8259C106.744 65.076 103.583 62.602 102.749 62.3523C102.089 63.2951 102.461 64.8264 101.983 65.9653L101.536 66.1236C101.397 66.0643 101.34 66.0476 101.22 65.9723C98.1952 64.0836 101.3 62.7074 100.906 61.1432C100.485 59.4732 98.65 58.7046 97.2939 57.8621C96.9445 57.4955 96.5276 57.1074 96.098 56.8392C95.503 56.4678 95.0603 56.1932 94.3755 56.3256ZM115.61 87.6403C114.384 87.678 113.155 87.7326 111.929 87.7247C112.036 91.3644 111.665 93.9206 109.76 97.0518L113.69 97.4479C115.306 97.5943 116.844 97.9299 118.423 98.2966C117.348 95.8245 116.398 93.5054 116.308 90.7661C116.278 89.8786 116.59 88.1458 116.02 87.5507L115.61 87.6403ZM103.073 100.056C100.09 100.523 93.4464 101.726 91.3824 103.837L91.3438 104.258C92.1257 104.776 92.9541 105.105 93.82 105.451C94.78 105.482 95.9296 104.227 96.7632 103.691C98.5831 102.52 102.898 101.612 104.22 100.428C104.324 100.334 104.321 100.334 104.405 100.244C103.946 99.9672 103.581 100.019 103.073 100.056Z"/>
	<path fill="#ECEDF2" d="M133.761 55.5318C133.883 55.5597 134.262 55.6908 134.364 55.6693C135.501 55.4286 138.177 53.2861 139.713 52.7348C140.009 53.3612 140.061 53.6169 140.654 53.9981C141.135 53.7843 141.411 53.5735 141.777 53.1969C141.93 53.0404 142.055 52.9515 142.244 52.8464C143.05 52.6578 143.268 52.5189 144.052 52.839C145.633 54.3708 145.412 58.4458 147.31 59.1344C149.276 58.8891 152.951 57.2071 154.662 58.4864C155.363 59.0112 155.503 59.6262 155.592 60.4499C155.655 61.0307 155.665 61.6138 155.663 62.1975C154.97 62.102 154.422 61.8819 153.796 62.2164C153.611 62.69 153.506 63.1017 153.453 63.6075C152.842 62.8137 152.014 62.2188 151.131 61.7558C149.968 61.1456 149.238 61.0036 147.972 61.3917C147.875 61.1481 147.767 60.8489 147.598 60.6423C147.232 60.1928 146.873 60.0753 146.322 60.0188C145.897 60.2131 145.413 60.3773 145.16 60.7915C144.996 61.0593 144.891 61.1482 144.608 61.289C144.578 61.3039 144.547 61.3174 144.517 61.3316C144.52 60.8652 144.54 60.3146 144.4 59.8674C143.772 57.858 140.804 56.3977 139.106 55.4176L137.019 56.8753L136.649 56.2832C135.374 56.2576 133.857 56.4645 132.726 57.0822C132.941 56.2873 133.193 56.1075 133.761 55.5318Z"/>
	<path fill="#F4F5F8" d="M103.894 57.4966C103.722 57.4555 103.555 57.4075 103.388 57.35C102.36 56.998 100.414 55.9581 100.036 54.8431C99.7936 54.1278 100.136 53.7556 100.451 53.1433C101.08 53.1951 101.608 53.3047 102.184 53.5743C103.073 53.9903 104.17 54.6129 104.438 55.6518C104.635 56.4166 104.239 56.8463 103.894 57.4966Z"/>
	<path fill="#F8F8F5" d="M122.656 54.0027C123.861 53.1142 127.211 53.2882 128.659 53.4819C129.186 53.5524 129.581 53.6847 129.947 54.0949C130.461 55.4732 129.779 57.4215 130.107 58.9825C129.497 59.485 128.63 59.8824 127.823 59.8609C127.697 59.8575 127.569 59.8291 127.447 59.7969C127.462 59.6782 127.469 59.645 127.472 59.5096C127.503 58.2786 127.591 56.0194 126.791 55.134C125.843 54.681 124.362 54.9942 123.334 55.1044L122.59 54.5141L122.656 54.0027Z"/>
	<path fill="#AEE4EA" d="M123.334 55.1044C124.362 54.9942 125.843 54.681 126.791 55.134L126.14 55.3786C125.793 56.2038 125.603 58.7266 125.881 59.6146C125.908 59.7008 125.978 59.8189 126.018 59.8919C125.036 60.5162 122.667 60.5284 121.546 60.2879C120.051 59.9671 114.708 57.8433 114.028 56.7901C115.38 56.0352 117.428 56.7377 119.208 55.9592C119.228 55.99 119.249 56.0202 119.267 56.0518C119.887 57.1164 119.111 58.2046 120.21 59.241C120.958 59.4296 121.316 59.3218 122.009 59.0205C122.214 59.5371 122.277 59.8312 122.722 60.1841C122.755 60.1436 122.789 60.1036 122.821 60.0626C123.898 58.7049 123.53 56.7059 123.334 55.1044Z"/>
	<path fill="#F4F5F8" d="M94.3755 56.3256C95.0603 56.1932 95.503 56.4678 96.098 56.8392C96.5276 57.1074 96.9445 57.4955 97.2939 57.8621L96.1668 58.6557C95.2219 58.6333 93.6452 58.3923 92.8032 58.8035C91.7236 58.9523 90.3863 58.8697 89.5496 59.6323C89.2981 60.1104 89.1335 60.4923 89.0356 61.0261C88.6866 61.5639 88.3681 62.0718 88.1197 62.6656C86.2296 64.1621 84.0116 62.8771 81.6363 63.8276C82.2107 62.1217 81.8473 60.4594 83.048 58.9614C84.4429 59.7099 84.0265 61.0562 84.6015 62.37C84.8612 62.5837 85.0307 62.8055 85.377 62.835C85.907 62.8801 86.6421 62.5985 87.0459 62.2547C87.4768 61.8878 87.4668 61.7674 87.5188 61.2284C87.1551 60.5999 86.7522 60.0599 86.2877 59.5025C86.6733 59.0032 86.9177 58.6644 87.0081 58.0158C88.9103 55.1712 91.9826 57.4954 94.3755 56.3256Z"/>
	<path fill="#F3F7F7" d="M132.726 57.0822C133.857 56.4645 135.374 56.2576 136.649 56.2832L137.019 56.8753C135.964 57.6123 134.906 58.4586 133.723 58.9764C133.373 59.2186 133.036 59.464 132.711 59.7394C132.745 59.2778 132.868 58.8222 132.656 58.4057L132.818 58.2941L132.258 58.38C132.218 57.8324 132.469 57.5533 132.726 57.0822Z"/>
	<path fill="#F8F8F5" d="M109.761 61.7085C108.381 61.2357 106.558 60.385 105.76 59.1007C105.341 58.4269 105.441 58.1163 105.628 57.4029C106.083 57.3965 106.514 57.4248 106.952 57.5595C108.098 57.9116 109.524 58.5319 110.043 59.6979C110.355 60.401 109.988 61.041 109.761 61.7085Z"/>
	<path fill="#ECEDF2" d="M83.048 58.9614C84.2781 58.5725 85.9903 58.7942 87.0081 58.0158C86.9177 58.6644 86.6733 59.0032 86.2877 59.5025C86.7522 60.0599 87.1551 60.5999 87.5188 61.2284C87.4668 61.7674 87.4768 61.8878 87.0459 62.2547C86.6421 62.5985 85.907 62.8801 85.377 62.835C85.0307 62.8055 84.8612 62.5837 84.6015 62.37C84.0265 61.0562 84.4429 59.7099 83.048 58.9614Z"/>
	<path fill="#AEE4EA" d="M96.1668 58.6557L97.2939 57.8621C98.65 58.7046 100.485 59.4732 100.906 61.1432C101.3 62.7074 98.1952 64.0836 101.22 65.9723C101.34 66.0476 101.397 66.0643 101.536 66.1236L101.983 65.9653C102.461 64.8264 102.089 63.2951 102.749 62.3523C103.583 62.602 106.744 65.076 107.192 65.8259L107.004 66.115C104.125 66.4872 101.227 66.6309 98.3339 67.0382C97.9538 66.2934 97.6692 66.0853 96.9536 65.6932C96.4584 65.4219 95.6479 65.1388 95.5218 64.5386C95.3737 63.8339 95.4006 60.1119 95.671 59.4355C95.7687 59.1909 96.0216 58.884 96.1668 58.6557Z"/>
	<path fill="#F4F5F8" d="M92.8032 58.8035C93.6452 58.3923 95.2219 58.6333 96.1668 58.6557C96.0216 58.884 95.7687 59.1909 95.671 59.4355C95.4006 60.1119 95.3737 63.8339 95.5218 64.5386C95.6479 65.1388 96.4584 65.4219 96.9536 65.6932C97.6692 66.0853 97.9538 66.2934 98.3339 67.0382L98.2934 67.3683L97.7728 67.3863C95.7482 66.6381 92.8113 68.4047 90.5645 67.9884L90.2405 68.5322C89.8762 68.4758 89.6884 68.3192 89.4086 68.1C89.4445 67.5384 89.6514 67.4776 90.0408 67.1267L90.7647 67.1548L91.1526 66.7668C91.0703 66.1819 91.022 66.1548 90.5978 65.7354C90.2614 64.1315 89.7701 61.3827 90.7206 59.9435C90.9238 59.6358 91.0508 59.6647 91.3896 59.5863C93.3608 60.8692 91.6013 63.3731 92.1259 64.8832C92.2877 65.349 92.4677 65.3689 92.8843 65.583L93.4255 65.398C93.9236 64.6961 93.4769 61.1686 93.958 59.6037C94.0246 59.3874 93.9377 59.2704 93.8707 59.0589L92.8032 58.8035Z"/>
	<path fill="#F8F8F5" d="M142.107 63.2449C142.842 62.3281 143.403 61.7704 144.517 61.3316C144.547 61.3174 144.578 61.3039 144.608 61.289C144.891 61.1482 144.996 61.0593 145.16 60.7915C145.413 60.3773 145.897 60.2131 146.322 60.0188C146.873 60.0753 147.232 60.1928 147.598 60.6423C147.767 60.8489 147.875 61.1481 147.972 61.3917C147.137 61.9883 146.235 62.79 145.321 63.2382C145.331 62.8751 145.268 62.5354 145.207 62.1783C144.226 62.1354 143.447 63.1552 142.303 63.2344C142.238 63.2389 142.173 63.2414 142.107 63.2449Z"/>
	<path fill="#F3F7F7" d="M81.6363 63.8276C84.0116 62.8771 86.2296 64.1621 88.1197 62.6656C88.3681 62.0718 88.6866 61.5639 89.0356 61.0261C89.1639 62.4057 88.8991 64.4228 90.0149 65.3542C90.2038 65.5119 90.382 65.6204 90.5978 65.7354C91.022 66.1548 91.0703 66.1819 91.1526 66.7668L90.7647 67.1548L90.0408 67.1267C88.8312 66.8809 87.8164 65.6069 86.6181 65.9073L86.6961 65.9246L86.0598 66.9491C85.3177 66.8811 84.6237 66.7322 83.959 67.1364C83.9234 67.158 83.8869 67.178 83.8512 67.1993C83.7367 67.2677 83.7692 67.2487 83.6477 67.3391C82.9234 68.5239 81.3163 68.024 80.7255 69.2937C80.7409 67.5125 81.06 65.5139 81.6363 63.8276Z"/>
	<path fill="#F3F7F7" d="M115.855 64.9295C114.91 64.9192 114.151 64.7458 113.277 64.3799C112.552 64.0764 111.605 63.5728 111.31 62.7857C111.039 62.0611 111.332 61.7685 111.643 61.1315C111.988 61.1488 112.333 61.1736 112.674 61.231C114.051 61.4629 115.423 61.9783 116.242 63.1489C116.385 64.0235 116.238 64.1586 115.855 64.9295Z"/>
	<path fill="#F4F5F8" d="M153.453 63.6075C153.506 63.1017 153.611 62.69 153.796 62.2164C154.422 61.8819 154.97 62.102 155.663 62.1975C156.594 62.8804 156.826 64.1471 156.988 65.2272C157.179 66.4944 157.324 67.991 156.965 69.2325L156.732 69.5183C156.786 69.8929 156.873 70.3106 156.782 70.6834C156.663 71.1694 156.524 71.204 156.126 71.4577C155.529 71.4258 155.178 71.4044 154.699 70.995C154.965 70.5796 155.939 70.6069 156.451 70.3921L156.451 70.0093C156.107 70.1371 155.765 70.0813 155.406 70.0553C154.638 69.3749 154.9 68.143 154.671 67.1204L154.623 66.9072Q154.6 66.3454 154.554 65.785C154.466 64.7489 154.251 64.2833 153.453 63.6075Z"/>
	<path fill="#F8F8F5" d="M121.547 66.8603C121.011 66.8257 120.473 66.7773 119.945 66.6754C119.167 66.5255 118.055 66.1339 117.629 65.415C117.441 65.0998 117.571 64.8905 117.65 64.5526C118.2 64.0328 118.682 63.8087 119.386 63.5483C119.865 63.5594 120.366 63.5681 120.837 63.6644C121.52 63.8043 122.408 64.2876 122.769 64.9025C123.045 65.3712 122.971 65.5666 122.835 66.0457C122.426 66.4893 122.098 66.6511 121.547 66.8603Z"/>
	<path fill="#F4F5F8" d="M127.984 66.4487C127.303 66.5978 126.523 66.764 125.826 66.759C125.213 66.7547 124.823 66.3641 124.441 65.9412C124.327 65.3543 124.285 65.1769 124.662 64.6582C125.175 63.9511 126.19 63.9443 126.984 63.853C127.319 63.8201 127.654 63.7899 127.991 63.782C128.802 63.763 129.223 63.945 129.803 64.5003C130.02 65.1101 130.059 65.1231 129.817 65.716C129.241 66.2152 128.712 66.3094 127.984 66.4487Z"/>
	<path fill="#F8F8F5" d="M86.0598 66.9491L86.6961 65.9246L86.6181 65.9073C87.8164 65.6069 88.8312 66.8809 90.0408 67.1267C89.6514 67.4776 89.4445 67.5384 89.4086 68.1C89.6884 68.3192 89.8762 68.4758 90.2405 68.5322L90.5967 69.1653C90.2341 69.9527 89.6844 70.1447 88.8853 70.4405C88.23 70.6831 87.6261 70.8481 87.1159 71.3597L87.1958 70.5393C87.2697 68.8152 87.2224 68.2499 86.0598 66.9491Z"/>
	<path fill="#F4F5F8" d="M83.6477 67.3391C83.7692 67.2487 83.7367 67.2677 83.8512 67.1993C83.8869 67.178 83.9234 67.158 83.959 67.1364C84.6237 66.7322 85.3177 66.8811 86.0598 66.9491C87.2224 68.2499 87.2697 68.8152 87.1958 70.5393C85.9304 69.7916 86.0846 69.2271 84.5061 68.9821L84.1328 68.878C83.8006 68.3352 83.649 68.0012 83.6477 67.3391Z"/>
	<path fill="#F8F8F5" d="M80.7255 69.2937C81.3163 68.024 82.9234 68.5239 83.6477 67.3391C83.649 68.0012 83.8006 68.3352 84.1328 68.878L84.5061 68.9821C84.4971 69.8668 84.6991 70.8013 84.3439 71.6012C83.5072 71.814 82.5497 71.1708 81.8483 70.7614L80.7255 69.2937Z"/>
	<path fill="#F8F8F5" d="M70.0369 79.7945C69.9942 79.5343 69.9808 79.2801 69.9678 79.0177C69.9103 77.8557 70.0168 76.7969 69.1018 75.9692Q68.392 76.0807 67.6844 76.206C67.147 75.9391 66.9548 75.5653 66.7243 75.0323C66.482 74.4721 66.4392 74.1992 66.6746 73.6271C67.0677 72.6715 67.7333 71.7768 68.7087 71.3772C68.7616 71.3555 68.8151 71.3352 68.8682 71.3142C69.4511 70.3033 69.0284 69.376 69.2651 68.3351C69.4035 67.7266 69.7866 67.595 70.2658 67.2934C70.5175 69.8874 70.8623 77.5613 70.0369 79.7945Z"/>
	<path fill="#F3F7F7" d="M81.8483 70.7614C82.5497 71.1708 83.5072 71.814 84.3439 71.6012C84.6991 70.8013 84.4971 69.8668 84.5061 68.9821C86.0846 69.2271 85.9304 69.7916 87.1958 70.5393L87.1159 71.3597C87.0015 71.5282 86.9147 71.6473 86.7593 71.7806C86.1299 72.3203 85.286 72.6638 84.4548 72.5502C83.2626 72.3871 82.5454 71.6797 81.8483 70.7614Z"/>
	<path fill="#F4F5F8" d="M96.7672 88.158C95.8964 87.8192 95.0172 87.4954 94.1789 87.0807C93.2378 85.5741 92.4193 84.0003 91.4846 82.4918C91.4578 80.7644 91.31 78.9273 91.8772 77.2753C92.66 74.9953 94.0449 73.2061 96.221 72.0996C98.3766 71.0037 101.04 70.6844 103.354 71.4503Q103.789 71.5975 104.208 71.7859Q104.626 71.9743 105.025 72.2022Q105.424 72.4302 105.798 72.6955Q106.173 72.9608 106.52 73.261Q106.868 73.5613 107.185 73.8936Q107.502 74.226 107.785 74.5873Q108.068 74.9487 108.315 75.3357Q108.562 75.7227 108.771 76.1317Q108.978 76.5374 109.143 76.9619Q109.308 77.3865 109.43 77.8255Q109.551 78.2646 109.627 78.7137Q109.703 79.1628 109.734 79.6174Q109.764 80.0719 109.748 80.5271Q109.733 80.9824 109.671 81.4337Q109.609 81.885 109.502 82.3278Q109.394 82.7705 109.243 83.2001C108.742 84.644 108.016 86.5851 106.572 87.2974C105.733 87.7109 104.582 87.9292 103.829 88.4488C103.329 88.6152 102.458 88.7972 102.088 89.1443C101.54 89.3669 101.093 89.5005 100.499 89.559L100.13 89.2394C99.3178 89.0015 98.2988 88.9066 97.5821 88.4715C97.2855 88.2915 97.1096 88.2086 96.7672 88.158ZM99.7702 76.9539C98.7751 77.5493 98.2653 78.0807 97.9937 79.2311C97.7747 80.1589 97.8376 81.098 98.3617 81.9148C98.6705 82.3962 99.1811 82.8944 99.7483 83.0318C100.218 83.1455 100.863 83.0349 101.343 82.989C102.304 82.3586 103.051 81.7893 103.295 80.6104C103.446 79.8834 103.272 79.2503 102.857 78.645C102.103 77.5465 101.022 77.2256 99.7702 76.9539Z"/>
	<path fill="#ECEDF2" d="M75.2336 75.0982C76.7217 74.7527 78.0877 75.1663 79.2756 73.9727L79.1344 73.94L79.2878 73.4981C80.3197 73.4235 81.3422 73.35 82.1865 74.0571C82.7008 74.4879 82.8943 75.1098 82.9273 75.7592C82.9713 76.6253 82.6208 77.6199 82.2925 78.4163C81.8741 78.8001 81.3591 79.0306 80.8357 79.2405C80.1087 79.532 79.6438 79.5568 78.9199 79.2493C77.5978 77.9143 77.9928 76.9782 77.8903 75.3214C76.9521 75.4041 76.0863 75.5845 75.2336 75.0982Z"/>
	<path fill="#F8F8F5" d="M132.34 81.2301C133.216 80.6059 134.184 80.0082 134.963 79.2673C134.838 77.6878 134.582 76.0129 134.62 74.4341C136.594 74.1486 140.422 73.2167 142.133 74.5362C142.708 74.9798 142.979 75.6654 143.05 76.3725C143.122 77.0967 143.074 78.0453 142.567 78.6237C142.049 79.2152 141.327 79.3902 140.569 79.4154C139.258 79.459 137.953 79.2278 136.642 79.212C139.32 80.9516 141.902 82.7682 144.528 84.5742C146.128 84.6054 147.773 84.567 149.358 84.7901C149.423 86.8977 149.922 91.4306 149.305 93.3313C148.951 93.4553 148.748 93.6319 148.47 93.8832L148.362 93.982C147.071 94.0996 145.355 94.4695 144.226 93.6862C143.434 93.1374 143.538 91.3913 143.396 90.5181L143.119 90.3729C142.726 91.0861 142.915 91.6635 142.869 92.4602C142.83 93.1334 142.746 93.3522 142.249 93.7953L141.713 93.7428L141.606 93.1936L141.031 93.2092C141.061 91.6747 141.528 85.6707 140.408 84.6627C139.821 84.1348 138.562 83.947 137.817 83.433C137.14 82.966 136.487 82.5105 136.042 81.7998C136.009 81.7475 135.978 81.6941 135.946 81.6412L136.004 81.3058C134.899 80.901 133.534 81.4086 132.34 81.2301Z"/>
	<path fill="#F8F8F5" d="M173.767 100.932C172.842 100.356 171.892 99.7834 171.029 99.1171C167.697 96.5451 165.019 92.7587 164.497 88.5113C163.799 82.8269 166.439 78.6509 169.781 74.3488L170.483 74.8913C171.717 77.7793 167.767 82.0397 167.249 85.0089C167.014 86.3571 167.356 88.1346 167.598 89.4779C167.72 90.1597 167.826 90.8951 168.153 91.5119C169.288 93.6544 175.354 98.7504 175.208 100.628C175.195 100.8 174.926 100.947 174.794 101.056L173.767 100.932Z"/>
	<path fill="#F4F5F8" d="M120.967 75.7377C125.122 74.7755 126.029 76.3727 129.5 76.6736C130.861 76.7917 133.031 75.5963 134.127 76.0922C134.34 76.7408 134.326 77.3689 134.038 77.9983C133.74 78.6478 133.084 78.9443 132.437 79.1519C129.367 80.1372 126.015 77.8797 122.89 77.9251C123.005 77.6593 123.196 77.3951 123.347 77.1459C125.064 76.7204 125.398 77.4295 126.715 77.6178C124.481 75.7766 123.754 75.9909 120.967 75.7377Z"/>
	<path fill="#F4F5F8" d="M158.229 79.056C159.503 80.6391 161.069 81.8959 162.681 83.1184C161.924 83.558 160.913 83.9894 160.5 84.7921C160.682 85.825 161.556 86.4643 162.311 87.1585C160.795 88.2795 158.389 89.2029 157.192 90.5213L155.981 90.6255C155.679 90.2009 156.173 89.9597 156.094 89.3568L155.455 89.0678C154.536 89.3047 153.667 89.3206 152.726 89.3303C153.931 88.5686 155.394 88.1459 156.395 87.0964C156.92 87.1642 157.32 87.1503 157.838 87.0366C158.25 86.6049 158.45 86.3468 158.534 85.7415C158.597 85.2939 158.286 83.4007 158.017 83.0746L155.975 80.3546C156.528 80.4558 157.008 80.5503 157.573 80.4553Q157.881 79.7464 158.229 79.056Z"/>
	<path fill="#F3F7F7" d="M156.395 87.0964C156.153 86.8861 155.859 86.6547 155.674 86.3918C155.302 85.8637 155.41 85.4881 155.523 84.9071C156.119 84.0464 157.128 83.585 158.017 83.0746C158.286 83.4007 158.597 85.2939 158.534 85.7415C158.45 86.3468 158.25 86.6049 157.838 87.0366C157.32 87.1503 156.92 87.1642 156.395 87.0964Z"/>
	<path fill="#ECEDF2" d="M96.7672 88.158C97.1096 88.2086 97.2855 88.2915 97.5821 88.4715C98.2988 88.9066 99.3178 89.0015 100.13 89.2394C99.8328 89.6694 99.7637 89.9348 99.2105 90.0359C98.8842 90.0956 98.5494 90.0474 98.2224 90.0115L98.0566 90.2466C98.2675 90.9434 98.5001 91.3133 98.2718 92.0161C97.6462 92.535 96.453 92.3372 95.6633 92.3714C95.822 93.1727 96.3235 93.6384 96.9488 94.1547C96.2947 94.0194 95.6941 93.8472 95.1643 93.42C94.3914 92.7968 93.6914 91.3844 93.6071 90.4104C93.5072 89.2557 96.0903 88.948 96.7672 88.158Z"/>
	<path fill="#D6EAF3" d="M139.397 93.7797L138.745 92.9783C135.666 94.8936 134.936 92.9898 132.392 94.0065C133.117 92.4718 132.335 90.5022 133.472 89.0876C134.009 88.419 134.855 88.0332 135.697 87.9529C136.507 87.8758 137.496 87.989 138.124 88.5539C139.391 89.6925 139.27 92.1876 139.397 93.7797ZM135.547 90.0149C135.38 90.9121 134.998 92.0857 135.39 92.9444C135.933 93.5191 136.529 93.5366 137.276 93.6298C137.192 92.5825 137.231 91.3751 136.614 90.4865C136.24 90.2196 136.003 90.0859 135.547 90.0149Z"/>
	<path fill="#ECEDF2" d="M102.088 89.1443C102.458 88.7972 103.329 88.6152 103.829 88.4488C104.727 88.9965 105.961 88.9594 106.989 89.0449L106.961 90.3875C105.811 91.2982 103.999 90.8995 102.573 91.282C102.641 90.931 102.713 90.7189 102.961 90.4522C103.175 90.2218 103.33 90.0115 103.488 89.7404L102.191 89.6644L102.088 89.1443Z"/>
	<path fill="#F4F5F8" d="M158.027 93.2076C155.897 93.2401 152.294 93.661 150.649 92.1724C150.524 91.8204 150.386 91.6381 150.514 91.2721C150.875 90.2347 151.802 89.7881 152.726 89.3303C153.667 89.3206 154.536 89.3047 155.455 89.0678L156.094 89.3568C156.173 89.9597 155.679 90.2009 155.981 90.6255L157.192 90.5213C158.455 90.496 160.157 90.2664 161.326 90.7295C161.327 91.5512 161.368 91.9859 161.977 92.6033C162.881 93.5186 164.505 93.1508 164.565 94.8084C164.634 96.6928 161.648 98.9562 160.542 100.32C162.599 99.4483 165.225 97.6658 167.479 97.7552L167.952 98.0557C168.118 99.4012 167.009 99.8444 167.011 100.989C168.1 100.537 169.532 99.7189 170.707 100.217C171.093 100.38 171.117 100.613 171.289 100.975C171.223 102.903 169.589 105.146 168.628 106.808C170.458 105.618 173.855 102.757 176.033 102.677C176.439 103.086 176.382 103.123 176.385 103.708C175.335 105.736 172.796 106.464 171.514 108.252C170.583 109.552 171.272 111.325 169.972 112.685C169.325 112.863 169.279 112.835 168.652 112.582C167.474 111.332 166.553 108.036 166.634 106.338C166.668 105.622 166.869 104.867 167.031 104.17C166.19 103.67 165.24 104.983 164.097 104.82C163.423 104.4 163.225 103.385 162.984 102.665C161.762 101.808 158.89 104.394 157.32 104.428C156.854 104.217 156.638 104.171 156.384 103.7C155.85 102.712 156.747 100.603 157.032 99.5282C157.918 98.7725 158.982 98.1553 159.951 97.507C159.133 97.3905 157.955 97.3211 157.267 96.8431C156.742 96.4785 156.672 96.2127 156.571 95.6071C156.773 94.6246 157.406 93.9583 158.027 93.2076Z"/>
	<path fill="#F8F8F5" d="M100.13 89.2394L100.499 89.559C101.093 89.5005 101.54 89.3669 102.088 89.1443L102.191 89.6644L103.488 89.7404C103.33 90.0115 103.175 90.2218 102.961 90.4522C102.713 90.7189 102.641 90.931 102.573 91.282C102.125 91.8011 101.761 92.003 101.778 92.7031C102.158 93.2311 102.182 93.2125 102.086 93.851C101.702 94.1245 101.547 94.136 101.446 94.6105C101.084 95.6807 100.43 96.53 99.3553 97.0371C99.3027 97.0619 99.2489 97.084 99.1957 97.1074C99.309 96.3128 99.5249 95.4294 99.2473 94.6561C98.6884 94.1267 97.6832 94.1986 96.9488 94.1547C96.3235 93.6384 95.822 93.1727 95.6633 92.3714C96.453 92.3372 97.6462 92.535 98.2718 92.0161C98.5001 91.3133 98.2675 90.9434 98.0566 90.2466L98.2224 90.0115C98.5494 90.0474 98.8842 90.0956 99.2105 90.0359C99.7637 89.9348 99.8328 89.6694 100.13 89.2394Z"/>
	<path fill="#D6EAF3" d="M106.989 89.0449C107.484 89.6967 107.765 90.3695 107.639 91.2085C107.525 91.9698 106.754 92.782 106.125 93.1753C104.997 93.8806 103.484 94.4138 102.21 94.8032C101.923 95.5574 101.866 96.3235 101.786 97.1209C101.632 96.2893 101.542 95.4501 101.446 94.6105C101.547 94.136 101.702 94.1245 102.086 93.851C102.182 93.2125 102.158 93.2311 101.778 92.7031C101.761 92.003 102.125 91.8011 102.573 91.282C103.999 90.8995 105.811 91.2982 106.961 90.3875L106.989 89.0449Z"/>
	<path fill="#F8F8F5" d="M71.8716 96.2443C72.6707 95.7276 73.435 95.3675 74.3295 95.0447C75.5771 94.9472 77.8063 95.1182 78.7993 95.9092C80.2786 97.0875 80.2573 98.8034 80.4252 100.533L79.1429 103.503C78.1935 103.802 77.2096 103.981 76.236 104.182C75.1174 104.324 73.8032 104.261 72.7941 103.722C71.8119 103.198 71.1381 102.386 70.8293 101.316C70.2607 99.347 70.9405 97.9207 71.8716 96.2443Z"/>
	<path fill="#ECEDF2" d="M148.063 97.9669C148.74 97.8572 149.565 98.3737 150.104 98.7736C150.145 98.8042 150.186 98.8362 150.227 98.8675C151.096 100.316 151.903 101.661 152.249 103.343C152.287 103.356 152.324 103.371 152.362 103.383C154.312 104.008 155.58 102.809 156.865 105.183C157.684 106.697 157.783 108.322 158.094 109.974C157.966 110.206 157.826 110.316 157.596 110.449C156.138 111.297 153.057 109.796 151.537 109.327C150.798 109.099 150.295 108.818 149.938 108.098C149.684 107.587 149.651 107.024 149.833 106.486C150.251 105.251 151.146 105.588 152.096 105.122L152.151 103.488C151.171 103.224 150.584 103.503 149.697 103.936C150.038 102.172 147.86 100.642 148.354 98.8375C148.42 98.5951 148.172 98.2075 148.063 97.9669Z"/>
	<path fill="#F3F7F7" d="M89.3745 115.514C83.7079 111.907 74.9879 110.718 68.4626 112.086C66.8243 112.429 65.2907 113.691 63.6755 113.869C63.0427 113.939 62.7384 113.724 62.2667 113.351C62.3472 112.693 62.529 112.413 62.9688 111.913C65.4312 109.114 70.2446 109.027 73.6991 108.853Q75.5185 108.799 77.3326 108.949Q79.1466 109.099 80.9323 109.452Q82.718 109.804 84.4529 110.355Q86.1878 110.906 87.8499 111.648C90.6834 112.881 96.4851 115.663 97.6833 118.693C97.6437 119.356 97.6093 119.37 97.1542 119.86L97.1547 119.348L97.0588 119.912C94.5321 120.71 92.2572 116.917 89.3745 115.514Z"/>
	<path fill="#F8F8F5" d="M123.002 120.104L122.662 119.127C120.683 118.805 118.031 119.482 115.942 119.499C115.857 118.145 115.636 115.854 116.624 114.797C116.938 114.461 117.284 114.33 117.748 114.348C119.891 114.431 121.226 117.323 123.042 117.673C123.153 117.136 123.24 116.933 122.913 116.441C121.89 114.904 118.96 114.262 118.812 112.228C119.025 111.363 119.524 110.849 120.276 110.39C121.028 109.932 121.833 109.573 122.648 109.244C123.203 110.372 123.93 111.629 124.286 112.831C124.577 113.81 124.318 115.138 124.903 115.927L125.499 115.943C126.533 114.132 123.809 109.891 126.729 109.105C127.613 108.867 128.703 109.116 129.466 109.595C129.989 109.923 130.11 110.065 130.337 110.638C130.236 112.809 127.48 115.323 127.542 116.509L128.183 116.957C129.944 115.907 130.14 112.245 132.916 112.273C133.795 112.628 134.332 113.288 134.692 114.155C135.062 115.047 135.277 115.877 134.887 116.793C134.446 117.309 133.909 117.435 133.262 117.497C131.891 117.627 130.213 117.269 129.2 118.342L129.324 118.823C131.019 119.401 134.358 117.073 135.555 119.49C136.008 120.406 135.677 121.452 135.321 122.337C135.157 122.743 134.954 123.102 134.705 123.462C133.832 123.784 133.318 123.682 132.47 123.282C131.134 122.65 129.34 121.06 127.952 120.93C128.808 122.997 132.827 123.871 132.612 126.579C131.927 127.732 130.546 128.242 129.303 128.561Q128.703 128.712 128.096 128.828C127.623 126.716 126.839 124.353 127.003 122.18C127.104 122.097 127.144 121.964 127.2 121.848C126.176 121.873 125.099 121.975 124.097 121.726L123.51 120.973C122.582 122.487 121.151 125.139 119.525 125.919C118.73 125.99 118.13 125.783 117.512 125.271C116.926 124.786 116.407 124.023 116.371 123.242C116.347 122.703 116.56 122.185 116.921 121.791C118.269 120.318 121.135 120.202 123.002 120.104Z"/>
	<path fill="#ECEDF2" d="M157.321 113.127C157.536 112.951 157.885 112.809 158.139 112.688C158.867 112.344 160.133 111.757 160.909 112.04L161.179 112.579C164.352 112.775 167.473 113.273 169.709 115.796C171.516 117.836 171.664 120.408 171.468 123.001C171.416 123.691 171.226 124.4 170.959 125.039Q170.948 124.422 170.917 123.805C170.88 123.176 170.883 122.605 170.407 122.177C169.974 122.456 169.589 122.796 169.051 122.744L168.668 122.236C169.031 121.282 168.832 120.016 168.518 119.07C168.051 117.663 166.78 116.566 165.468 115.957C163.745 115.158 161.407 114.949 159.629 115.654C158.806 115.981 158.52 116.108 158.177 116.914L157.702 116.801C157.751 116.36 157.818 116.051 157.589 115.657C156.494 115.371 155.304 115.997 154.323 116.429C155.199 115.251 156.832 114.834 157.584 113.627L157.321 113.127Z"/>
	<path fill="#F8F8F5" d="M78.2222 118.972C78.4624 118.372 78.7081 117.922 78.4126 117.274C77.8467 116.033 76.4347 115.25 76.0609 113.877C76.3078 113.468 76.2964 113.42 76.7927 113.307C77.709 113.099 81.8994 113.164 82.6657 113.652C82.9726 113.847 82.9785 114.124 83.0831 114.457C82.9021 115.899 81.6379 117.85 80.8316 119.069L80.5766 118.514C79.8552 118.167 79.1718 118.979 78.2222 118.972Z"/>
	<path fill="#F4F5F8" d="M160.97 121.29Q161.298 120.909 161.652 120.553C162.462 119.747 163.193 119.805 164.28 119.811Q166.467 121.036 168.668 122.236L169.051 122.744C169.589 122.796 169.974 122.456 170.407 122.177C170.883 122.605 170.88 123.176 170.917 123.805Q170.948 124.422 170.959 125.039C170.608 125.555 170.559 125.659 169.99 125.893C167.75 125.277 165.423 123.13 162.934 123.734L162.568 124.143C162.71 124.62 162.8 124.705 163.248 124.937C164.924 125.806 168.876 125.793 169.92 127.401C169.812 128.002 169.629 128.398 169.095 128.75C166.629 130.374 156.922 126.588 156.193 128.016C157.235 131.466 163.52 132.575 160.708 137.958C159.978 139.356 158.69 140.578 157.154 141.02C152.764 142.282 150.477 138.035 143.464 141.298C143.02 142.538 142.359 145.507 141.149 146.063C140.786 146.23 140.545 146.144 140.159 146.095C139.743 145.655 139.535 145.364 139.524 144.734C139.494 143 140.489 140.187 141.769 139.036C143.716 137.284 147.072 137.053 149.578 137.217C150.948 137.307 155.282 138.674 155.346 138.671C155.571 138.658 156.006 138.365 156.174 138.213C157.029 137.44 157.733 136.346 158.42 135.42C157.755 134.861 157.121 134.26 156.586 133.573C155.688 132.421 149.959 124.166 149.867 123.382C149.764 122.504 150.23 121.987 150.722 121.332C150.818 121.204 150.786 121.251 150.824 121.072C148.292 122.248 148.39 122.127 145.607 122.172C144.869 121.777 144.831 120.6 144.109 120.636C143.107 121.986 144.813 123.256 143.004 124.567C141.652 124.469 141.314 123.094 140.038 122.836C140.051 123.938 141.196 124.395 140.809 125.522C138.748 125.526 137.567 124.133 136.049 122.944C136.028 122.551 136.049 122.121 136.177 121.747C136.694 120.236 139.171 119.812 140.46 119.27C142.936 118.23 144.644 115.458 147.117 114.344C147.362 114.234 147.586 114.394 147.832 114.485C148.947 115.711 148.93 117.442 149.084 119.01C149.645 117.848 150.337 116.75 150.997 115.643C151.773 116.072 152.51 116.589 153.253 117.072C153.876 119.341 154.041 120.935 153.364 123.213C153.882 124.331 154.745 126.63 155.871 127.205C155.889 126.635 155.695 126.155 155.515 125.623L155.771 125.172C156.683 124.671 157.872 124.808 158.887 124.809C159.642 123.898 160.936 122.506 160.97 121.29Z"/>
	<path fill="#F4F5F8" d="M62.8606 125.378C62.4746 123.069 62.1515 119.95 63.3525 117.842C63.6175 117.377 63.9928 116.955 64.5203 116.814C67.3552 116.056 75.6792 117.515 78.2222 118.972C79.1718 118.979 79.8552 118.167 80.5766 118.514L80.8316 119.069C80.9839 119.798 81.0846 120.094 81.7301 120.539C82.7342 121.23 84.2055 121.616 85.108 122.361C85.9081 123.022 85.4376 124.426 86.6338 124.168C88.1203 123.848 89.7263 123.002 91.1723 122.487C94.971 121.135 98.8473 120.002 102.644 118.644C105.704 117.549 108.71 116.176 111.841 115.309C112.778 115.05 113.773 114.762 114.744 114.97C115.184 115.771 114.924 118.127 114.923 119.11C114.261 120.206 113.627 121.338 112.88 122.378C113.121 123.151 113.446 123.973 113.51 124.779L112.867 124.604C112.386 125.421 112.747 126.019 112.045 126.831C111.654 126.908 111.382 126.912 110.992 126.824C111.143 126.388 111.185 125.937 111.245 125.482C111.045 124.514 110.128 123.767 109.463 123.077C109.959 122.45 110.465 122.012 110.557 121.2C109.369 120.992 101.607 125.843 99.9969 126.648C99.5363 126.706 99.3497 126.829 98.9989 127.127C96.3953 128.623 93.6499 129.911 91.1026 131.493C92.0202 131.656 93.2963 131.721 94.0435 132.301C94.677 133.229 94.6151 134.175 94.4199 135.245C93.9262 137.952 92.5947 140.443 91.0324 142.675C94.9739 142.348 98.4947 140.506 102.423 141.896C102.369 141.52 102.088 141.216 101.868 140.917C102.106 140.84 102.35 140.763 102.576 140.656C103.283 140.321 103.413 139.817 103.638 139.134C104.702 139.869 105.75 140.702 107 141.083C107.217 141.062 107.444 141.028 107.638 140.921C108.875 140.233 110.391 136.627 110.791 135.292L111.516 135.201C112.287 136.12 111.359 137.167 112.826 137.549C111.892 139.253 110.287 141.474 109.764 143.286C107.059 145.534 105.911 141.699 103.268 142.151C105.151 143.478 108.261 145.88 110.711 145.693C111.289 145.648 111.721 145.521 112.119 145.095C114.839 142.191 117.31 131.85 120.352 128.246C120.392 128.198 120.433 128.152 120.474 128.105C121.187 128.633 121.322 128.78 122.209 128.792C123.208 130.257 123.248 131.79 122.929 133.487C122.478 135.89 120.296 141.793 121.708 143.982C121.947 144.352 122.178 144.558 122.601 144.683C123.159 144.417 123.17 144.242 123.419 143.702L123.608 144.491C123.93 144.656 124.242 144.812 124.582 144.938C124.919 145.062 125.176 145.266 125.455 145.485C127.168 146.17 131.023 147.106 132.776 146.485C132.977 146.414 132.986 146.255 133.074 146.073C132.689 145.356 132.324 145.351 131.639 144.961C129.759 143.893 128.169 140.768 127.631 138.718C127.086 136.638 127.262 134.089 128.371 132.203C128.301 133.871 128.463 134.685 129.124 136.231L129.482 136.434C129.855 136.13 130.125 135.92 130.321 135.473C130.978 135.244 132.044 135.3 132.582 134.932C133.003 134.643 132.955 134.298 133.032 133.831C133.765 133.855 134.449 133.724 135.028 134.198L135.252 135.083C135.45 137.438 136.288 139.738 136.464 142.114C136.618 144.182 135.933 144.354 134.736 145.753C135.116 146.427 137.901 146.295 138.8 146.959C138.969 147.083 138.944 147.321 138.974 147.521C138.789 147.812 138.573 148.129 138.272 148.312C137.485 148.789 136 148.828 135.084 148.952C130.758 149.537 128.382 149.005 124.271 147.641C122.912 147.19 121.333 146.709 119.888 146.685C116.408 146.626 113.307 148.977 109.757 148.25C106.175 147.516 103.284 144.124 99.785 143.829C96.3176 143.536 92.9737 146.001 89.4533 145.08C84.5816 143.805 80.6779 139.632 75.9353 137.745C71.5599 136.003 67.086 136.327 62.7434 134.996C62.2798 134.376 62.1953 134.307 62.2379 133.494C62.4179 133.337 62.6137 133.203 62.8385 133.119C64.3076 132.569 66.3057 132.93 67.8333 133.126C72.6332 133.744 76.9739 134.911 81.2058 137.367C83.6407 138.779 85.9014 140.314 88.5166 141.402C89.3109 139.948 90.7188 137.9 90.9168 136.27C90.9789 135.76 90.9312 135.663 90.6308 135.28C89.6416 135.884 89.6695 137.151 88.6065 137.697C87.8441 137.359 87.3551 136.759 86.652 136.358C86.1384 136.066 85.3545 136.142 84.8741 135.781C84.7093 135.657 84.5024 135.326 84.3655 135.159C84.4149 134.259 85.1282 133.908 85.3195 133.028C85.2222 132.846 85.115 132.682 84.9707 132.532C79.601 126.961 70.2218 125.319 62.8606 125.378ZM66.1797 120.346C65.6566 120.702 65.3933 120.775 65.2081 121.402L65.5008 121.812L65.3011 121.542C66.5806 122.533 70.1823 122.564 71.9117 122.94Q76.5382 123.982 80.8395 125.979C81.3494 125.741 81.6697 125.506 82.0502 125.091C81.9216 124.394 81.6301 124.182 81.0498 123.776C77.3337 121.178 70.6763 119.792 66.1797 120.346ZM118.877 137.859C117.901 139.069 115.949 142.657 115.966 144.213C115.968 144.337 116.005 144.474 116.041 144.592L116.491 144.875C117.971 143.612 119.281 140.736 119.384 138.731C119.394 138.52 119.344 138.338 119.265 138.147L118.877 137.859Z"/>
	<path fill="#F4F5F8" d="M154.323 116.429C155.304 115.997 156.494 115.371 157.589 115.657C157.818 116.051 157.751 116.36 157.702 116.801L158.177 116.914C158.863 117.21 159.615 117.478 160.218 117.922C158.864 118.393 157.15 118.414 155.722 118.425C155.448 118.31 155.104 118.185 154.875 117.994C154.36 117.564 154.378 117.03 154.323 116.429Z"/>
	<path fill="#F8F8F5" d="M160.218 117.922C161.652 118.428 162.954 118.883 164.211 119.76C164.234 119.776 164.257 119.794 164.28 119.811C163.193 119.805 162.462 119.747 161.652 120.553Q161.298 120.909 160.97 121.29C159.197 120.984 157.351 119.285 155.722 118.425C157.15 118.414 158.864 118.393 160.218 117.922Z"/>
	<path fill="#F3F7F7" d="M124.097 121.726C125.099 121.975 126.176 121.873 127.2 121.848C127.144 121.964 127.104 122.097 127.003 122.18L126.311 122.338C125.376 124.103 126.929 126.994 125.954 128.933Q124.081 128.883 122.209 128.792C121.322 128.78 121.187 128.633 120.474 128.105C121.823 126.163 122.852 123.779 124.097 121.726Z"/>
	<path fill="#F3F7F7" d="M136.049 122.944C137.567 124.133 138.748 125.526 140.809 125.522C140.431 125.768 140.04 125.997 139.61 126.141C138.105 126.646 135.108 127.592 133.688 126.871C133.681 126.838 133.673 126.806 133.668 126.772C133.48 125.569 135.356 123.879 136.049 122.944Z"/>
	<path fill="#D6EAF3" d="M98.9989 127.127C99.3497 126.829 99.5363 126.706 99.9969 126.648C100.982 127.32 104.961 126.77 106.194 126.501C106.356 126.466 106.516 126.403 106.669 126.339C106.672 125.283 106.572 124.367 107.162 123.466C107.818 123.218 108.244 123.404 108.867 123.621C109.114 124.832 109.304 126.13 110.387 126.895L109.694 127.103C108.951 127.144 108.465 127.068 107.84 127.487C107.96 127.994 108.108 128.297 108.403 128.723C108.53 128.906 108.576 129.034 108.625 129.247C107.552 128.782 106.623 128.89 105.499 128.991L105.127 129.5C103.49 129.782 102.561 127.789 101.063 127.444C100.332 127.276 99.8561 127.36 99.2177 127.743L98.9989 127.127Z"/>
	<path fill="#F3F7F7" d="M110.992 126.824C111.382 126.912 111.654 126.908 112.045 126.831C112.747 126.019 112.386 125.421 112.867 124.604L113.51 124.779C113.511 125.836 113.67 127.139 112.877 127.954C112.639 128.199 112.384 128.383 112.072 128.519C111.385 128.436 110.679 128.222 110.003 128.064L109.694 127.103L110.387 126.895L110.992 126.824Z"/>
	<path fill="#ECEDF2" d="M108.625 129.247C108.576 129.034 108.53 128.906 108.403 128.723C108.108 128.297 107.96 127.994 107.84 127.487C108.465 127.068 108.951 127.144 109.694 127.103L110.003 128.064C109.571 128.557 109.277 129.107 108.625 129.247Z"/>
	<path fill="#F4F5F8" d="M98.2452 128.735L99.2177 127.743C99.8561 127.36 100.332 127.276 101.063 127.444C102.561 127.789 103.49 129.782 105.127 129.5C105.52 129.883 106.057 130.248 106.086 130.83C105.775 131.18 105.516 131.427 105.023 131.461C104.672 131.486 104.317 131.438 103.971 131.507C103.391 130.761 102.667 130.368 101.75 130.21C101.068 130.169 100.911 130.135 100.381 130.62C100.194 130.791 100.043 131.04 99.9001 131.248C99.9293 130.487 100.069 129.622 99.6346 128.958C99.1211 128.708 98.8114 128.67 98.2452 128.735Z"/>
	<defs>
		<linearGradient id="gradient_0" gradientUnits="userSpaceOnUse" x1="109.50445" y1="133.01048" x2="111.41577" y2="132.19833">
			<stop offset="0" stop-color="#E7F5EB"/>
			<stop offset="1" stop-color="#F4F0F3"/>
		</linearGradient>
	</defs>
	<path fill="url(#gradient_0)" d="M108.625 129.247C109.277 129.107 109.571 128.557 110.003 128.064C110.679 128.222 111.385 128.436 112.072 128.519C111.792 128.815 111.42 129.06 111.431 129.486C111.513 132.703 115.102 134.028 112.826 137.549C111.359 137.167 112.287 136.12 111.516 135.201L110.791 135.292C109.919 135.006 109.882 134.1 109.007 133.877L109.228 133.24C109.117 132.763 109.034 132.396 109.149 131.906C109.253 131.461 109.242 131.143 109.198 130.689C108.438 130.072 107.033 130.31 106.049 129.864C106.356 129.693 106.62 129.504 106.896 129.287C106.453 129.258 105.94 129.086 105.499 128.991C106.623 128.89 107.552 128.782 108.625 129.247Z"/>
	<defs>
		<linearGradient id="gradient_1" gradientUnits="userSpaceOnUse" x1="134.71005" y1="133.53246" x2="129.73128" y2="131.17639">
			<stop offset="0" stop-color="#D9EAE4"/>
			<stop offset="1" stop-color="#F7F8F9"/>
		</linearGradient>
	</defs>
	<path fill="url(#gradient_1)" d="M138.632 129.905C137.931 130.05 136.822 130.141 136.363 130.72L136.131 131.467C135.538 130.971 135.14 130.867 134.358 130.942C133.093 131.063 131.771 131.98 131.016 132.973C130.548 133.588 130.334 134.253 130.149 134.993L130.321 135.473C130.125 135.92 129.855 136.13 129.482 136.434L129.124 136.231C128.463 134.685 128.301 133.871 128.371 132.203C129.397 130.625 130.778 129.219 132.643 128.715C134.772 128.14 136.802 128.832 138.632 129.905Z"/>
	<path fill="#F3F7F7" d="M98.2452 128.735C98.8114 128.67 99.1211 128.708 99.6346 128.958C100.069 129.622 99.9293 130.487 99.9001 131.248C99.3668 132.593 98.3166 133.935 98.0876 135.346L98.0569 135.527C98.0364 135.654 98.0224 135.782 98.0089 135.909C97.9166 136.613 97.7593 136.907 97.1611 137.324C96.592 137.721 95.839 137.748 95.1725 137.754C94.4274 134.845 96.968 131.294 98.2452 128.735Z"/>
	<path fill="#F8F8F5" d="M122.209 128.792Q124.081 128.883 125.954 128.933C126.869 132.559 125.457 141.139 125.455 145.485C125.176 145.266 124.919 145.062 124.582 144.938C124.242 144.812 123.93 144.656 123.608 144.491L123.419 143.702C123.17 144.242 123.159 144.417 122.601 144.683C122.178 144.558 121.947 144.352 121.708 143.982C120.296 141.793 122.478 135.89 122.929 133.487C123.248 131.79 123.208 130.257 122.209 128.792Z"/>
	<path fill="#ECEDF2" d="M105.127 129.5L105.499 128.991C105.94 129.086 106.453 129.258 106.896 129.287C106.62 129.504 106.356 129.693 106.049 129.864C107.033 130.31 108.438 130.072 109.198 130.689C109.242 131.143 109.253 131.461 109.149 131.906C109.034 132.396 109.117 132.763 109.228 133.24L109.007 133.877C107.606 133.322 105.587 131.384 104.08 131.689L103.971 131.507C104.317 131.438 104.672 131.486 105.023 131.461C105.516 131.427 105.775 131.18 106.086 130.83C106.057 130.248 105.52 129.883 105.127 129.5Z"/>
	<path fill="#F8F8F5" d="M99.9001 131.248C100.043 131.04 100.194 130.791 100.381 130.62C100.911 130.135 101.068 130.169 101.75 130.21L101.795 130.718L101.633 130.869C100.471 131.975 99.7259 133.817 98.9946 135.241C99.1333 135.868 99.2115 136.211 99.789 136.566C100.414 136.95 101.162 136.907 101.859 136.835C102.961 136.061 103.434 133.866 104.37 132.71C104.44 132.18 104.371 132.149 104.08 131.689C105.587 131.384 107.606 133.322 109.007 133.877C109.882 134.1 109.919 135.006 110.791 135.292C110.391 136.627 108.875 140.233 107.638 140.921C107.444 141.028 107.217 141.062 107 141.083C105.75 140.702 104.702 139.869 103.638 139.134C101.819 138.283 99.4125 137.341 98.0089 135.909C98.0224 135.782 98.0364 135.654 98.0569 135.527L98.0876 135.346C98.3166 133.935 99.3668 132.593 99.9001 131.248Z"/>
	<path fill="#F8F8F5" d="M136.131 131.467L136.363 130.72C136.822 130.141 137.931 130.05 138.632 129.905C139.976 130.754 141.548 131.574 142.753 132.603C141.949 132.593 141.059 132.399 140.415 132.893C140.355 133.348 140.328 133.752 140.373 134.209L139.914 134.745C139.127 134.414 138.621 133.35 137.909 132.764L137.745 132.629C137.422 132.288 136.01 131.989 135.526 131.823L136.131 131.467Z"/>
	<path fill="#D6EAF3" d="M101.75 130.21C102.667 130.368 103.391 130.761 103.971 131.507L104.08 131.689C104.371 132.149 104.44 132.18 104.37 132.71C103.434 133.866 102.961 136.061 101.859 136.835C101.162 136.907 100.414 136.95 99.789 136.566C99.2115 136.211 99.1333 135.868 98.9946 135.241C99.7259 133.817 100.471 131.975 101.633 130.869L101.795 130.718L101.75 130.21Z"/>
	<path fill="#F3F7F7" d="M133.032 133.831C133.202 133.426 133.433 133.011 133.708 132.668C134.176 132.086 134.819 131.912 135.526 131.823C136.01 131.989 137.422 132.288 137.745 132.629L137.324 133.013C137.284 134.18 137.438 135.422 137.258 136.568C137.101 135.746 137.035 134.931 136.39 134.335C135.76 134.443 135.67 134.63 135.252 135.083L135.028 134.198C134.449 133.724 133.765 133.855 133.032 133.831Z"/>
	<path fill="#F3F7F7" d="M140.373 134.209C140.328 133.752 140.355 133.348 140.415 132.893C141.059 132.399 141.949 132.593 142.753 132.603C143.456 133.094 144.023 133.644 144.198 134.52C144.303 135.042 144.228 135.582 144.038 136.077C143.014 135.92 141.887 135.857 141.023 135.241C140.906 134.824 140.773 134.602 140.464 134.296C140.434 134.267 140.403 134.238 140.373 134.209Z"/>
	<path fill="#F4F5F8" d="M137.258 136.568C137.438 135.422 137.284 134.18 137.324 133.013L137.745 132.629L137.909 132.764C138.621 133.35 139.127 134.414 139.914 134.745L140.373 134.209C140.403 134.238 140.434 134.267 140.464 134.296C140.773 134.602 140.906 134.824 141.023 135.241C141.887 135.857 143.014 135.92 144.038 136.077L140.819 136.783C140.352 137.506 139.886 138.387 138.983 138.593C138.755 138.645 138.531 138.648 138.299 138.634C137.716 138.208 137.37 137.781 137.274 137.032C137.254 136.88 137.255 136.722 137.258 136.568Z"/>
	<path fill="#F3F7F7" d="M98.0089 135.909C99.4125 137.341 101.819 138.283 103.638 139.134C103.413 139.817 103.283 140.321 102.576 140.656C102.35 140.763 102.106 140.84 101.868 140.917C99.706 139.698 97.5683 138.451 95.1725 137.754C95.839 137.748 96.592 137.721 97.1611 137.324C97.7593 136.907 97.9166 136.613 98.0089 135.909Z"/>
	<path fill="#F8F8F5" d="M76.7915 145.675C77.5773 145.213 78.4866 144.983 79.2403 144.492L78.9799 144.015C75.8136 141.969 71.7427 140.876 68.0318 140.434C66.6322 140.268 65.0613 140.316 63.7065 139.96C63.0431 139.785 62.9754 139.704 62.6373 139.108C62.5978 138.603 62.5458 138.179 62.7776 137.712C62.9584 137.348 63.1531 137.237 63.5504 137.126C64.5033 136.859 66.1063 137.251 67.0946 137.393C75.0787 138.534 77.9361 140.551 84.416 144.588C87.9609 146.796 90.9975 146.935 94.9837 146.016C99.5191 144.97 102.713 146.812 106.422 149.134C106.858 150.028 107.313 150.471 108.294 150.83C110.079 151.484 112.213 150.626 113.988 151.241L114.104 151.709C110.516 152.788 107.887 152.67 104.575 150.884C102.761 149.905 101.031 148.648 99.1332 147.848C96.2104 148.494 93.3256 149.138 90.314 149.146C88.893 149.15 85.1894 148.195 84.502 148.42C83.2357 148.833 81.8593 150.881 81.1636 151.991C80.876 152.45 80.7674 152.92 80.8779 153.459C80.9018 153.576 80.9251 153.642 80.9591 153.751L81.3255 153.848C82.9603 152.448 83.7329 149.604 86.29 149.526C86.6042 149.726 86.7867 149.76 86.887 150.139C87.0938 150.92 86.6593 151.95 86.2509 152.611C85.6296 153.617 84.7809 154.606 83.9949 155.49C85.9152 157.804 87.8507 159.952 89.0135 162.767C88.4373 162.84 87.9446 162.76 87.5621 163.228C87.4492 163.367 87.4164 163.473 87.3899 163.647L87.1712 163.558C84.6152 161.843 81.8583 160.753 79.227 159.216C78.9247 158.929 78.9042 158.757 78.7809 158.366C79.1771 157.723 79.4624 157.614 80.1073 157.245L80.3102 157.176C80.0043 156.279 79.05 155.79 78.2815 155.318C76.6012 154.286 74.6278 153.311 72.7326 152.777C70.5643 152.167 64.2257 151.642 62.788 150.551C62.649 149.761 62.6139 149.177 62.7772 148.389C64.2808 146.426 65.8772 148.058 67.714 148.22C68.3179 148.273 69.0876 148.056 69.681 147.929C71.3578 148.891 72.3725 149.482 74.3602 149.304L74.5528 149.026C72.7867 146.871 68.0969 146.956 65.5345 146.495C64.5469 146.317 63.4166 146.127 62.8239 145.231C62.6496 144.968 62.6414 144.584 62.7211 144.285C62.9338 143.489 63.4363 142.276 64.1884 141.857C64.9294 141.445 67.8408 143.375 68.8978 143.718Q69.3114 143.497 69.7344 143.295C70.0429 143.149 70.4373 142.915 70.7895 142.98C71.2626 143.068 75.6579 145.265 76.7915 145.675Z"/>
	<path fill="#F4F5F8" d="M106.422 149.134C107.932 149.605 109.282 149.866 110.879 149.754C113.674 149.557 122.53 146.362 124.317 149.671C124.446 149.91 124.404 150.351 124.413 150.631C124.111 151.011 124.041 151.09 123.534 151.154C122.287 151.312 120.994 150.528 119.738 150.489C117.814 150.429 115.966 151.386 114.104 151.709L113.988 151.241C112.213 150.626 110.079 151.484 108.294 150.83C107.313 150.471 106.858 150.028 106.422 149.134Z"/>
	<path fill="#F8F8F5" d="M70.5709 161.104C71.114 161.354 71.595 161.599 72.0734 161.961C72.275 162.113 72.3722 162.35 72.3794 162.605C72.4001 163.343 72.189 164.093 71.7296 164.644C69.7051 164.38 64.3413 161.788 62.6729 160.612C62.5312 160.021 62.5349 159.975 62.7725 159.415C63.3875 158.994 64.0273 158.814 64.7336 158.604C64.4396 157.98 64.1359 157.968 63.5544 157.623C62.9531 157.267 62.7385 157.043 62.5688 156.369C62.7489 155.198 63.7421 154.056 64.3963 153.088C64.9158 153.132 70.1571 156.338 71.2047 156.817C71.5207 156.51 71.8601 156.15 72.2313 155.912C72.7694 155.567 73.1926 155.587 73.7939 155.688C74.2556 156.161 74.4576 156.445 74.5432 157.112C74.6955 158.299 74.335 159.623 73.6295 160.576C72.5496 161.086 70.0814 159.513 68.6597 159.383L68.4652 159.582C68.9154 160.368 69.7941 160.708 70.5709 161.104Z"/>
	<path fill="#F3F7F7" d="M80.1073 157.245C79.4624 157.614 79.1771 157.723 78.7809 158.366C78.9042 158.757 78.9247 158.929 79.227 159.216C78.4438 159.316 78.192 159.42 77.6946 160.08C75.1065 163.518 73.4582 167.762 71.1315 171.39C74.4422 172.701 77.3754 174.249 80.3915 176.137C82.7058 172.014 84.6554 167.544 87.1712 163.558L87.3899 163.647C87.4164 163.473 87.4492 163.367 87.5621 163.228C87.9446 162.76 88.4373 162.84 89.0135 162.767C89.2795 164.2 88.9261 165.091 88.2948 166.364C86.7966 169.492 85.0182 172.521 83.314 175.542C82.8668 176.334 82.4899 177.372 81.9483 178.074C81.9045 177.291 82.159 176.414 81.776 175.7C81.0997 175.772 80.8837 176.11 80.3829 176.554C80.4 176.899 80.4226 177.266 80.6211 177.559C80.961 178.062 81.3812 177.985 81.9483 178.074C81.4915 178.833 80.9493 179.377 80.3024 179.977C80.1263 179.666 79.9394 179.362 79.7624 179.051C78.932 177.596 76.579 176.484 75.1492 175.694L74.6034 175.927C72.9822 175.203 69.8822 174.42 68.6494 173.239L68.6201 172.711L68.2746 172.573C66.8229 171.298 63.5033 170.684 62.6064 169.091C62.6525 168.415 62.6075 168.377 63.0915 167.917C65.2327 167.416 67.304 169.526 69.3949 169.702L69.6573 169.401L69.4877 168.737L70.3825 167.746C72.4325 165.771 75.1197 159.113 76.8495 156.277C77.9475 156.528 79.0309 156.912 80.1073 157.245Z"/>
	<path fill="#F8F8F5" d="M109.445 156.958C112.15 156.917 114.918 156.976 117.606 156.678L117.921 156.664C118.656 157.724 118.143 159.427 117.945 160.647C116.768 160.658 115.221 160.537 114.325 161.43L114.535 161.793C115.648 162.294 116.968 162.044 118.153 161.949C118.255 163.266 118.278 164.599 118.336 165.918C117.076 165.921 115.602 165.663 114.419 166.144C113.978 166.64 113.982 166.632 113.998 167.296C114.968 167.992 116.78 167.304 118.164 168.069C118.779 168.649 118.767 169.557 118.853 170.351C118.787 170.43 118.751 170.476 118.673 170.552C117.418 171.78 111.754 171.175 110.065 171.131C109.407 166.507 109.711 161.639 109.445 156.958Z"/>
	<path fill="#F8F8F5" d="M119.031 160.972Q119.059 159.958 119.108 158.944C119.159 158.003 119.19 157.504 119.91 156.86C123.457 156.652 127.034 156.877 130.593 156.69C130.557 157.82 130.69 159.233 129.922 160.139C129.341 160.824 127.66 160.811 126.815 160.885C127.371 163.649 127.215 166.74 127.271 169.562C127.292 170.161 127.368 170.652 127.023 171.175C125.831 171.889 123.893 171.442 122.56 171.326Q122.438 166.094 122.4 160.861C121.288 160.997 120.15 160.963 119.031 160.972Z"/>
	<path fill="#F8F8F5" d="M95.8889 171.38C95.8591 168.26 95.1924 159.42 95.9681 156.989C98.8525 156.972 103.175 156.556 105.649 158.303C107.033 159.281 107.7 160.906 107.957 162.533C108.387 165.263 107.606 167.513 106.035 169.705C102.693 171.476 99.5616 171.244 95.8889 171.38ZM100.408 160.278C100.177 161.03 100.263 167.009 100.601 167.725C101.393 167.72 102.077 167.332 102.78 167.005C103.604 166.172 103.956 165.313 103.961 164.132C103.966 163.102 103.498 162.06 102.765 161.341C102.164 160.75 101.221 160.441 100.408 160.278Z"/>
	<path fill="#F3F7F7" d="M83.9079 167.061C82.2596 164.966 78.2481 164.811 77.1457 162.661C77.3974 161.842 77.8028 161.573 78.4104 160.983C80.27 161.336 83.0613 162.278 84.4204 163.641C84.8655 164.087 85.1353 164.606 85.1073 165.246C85.0739 166.008 84.4299 166.586 83.9079 167.061Z"/>
	<path fill="#F4F5F8" d="M70.3825 167.746L69.4877 168.737C67.6578 167.732 63.2257 166.136 62.5394 164.228C62.9166 163.702 63.1671 163.561 63.8213 163.474C65.502 163.251 67.432 164.092 68.7725 165.044C69.991 165.909 70.1342 166.302 70.3825 167.746Z"/>
	<path fill="#F3F7F7" d="M82.5215 170.487C81.0304 170.014 79.9987 168.575 78.5781 167.975C77.7212 167.613 75.545 167.27 75.0615 166.634C75.1323 165.774 75.8069 165.061 76.3112 164.394C78.0147 164.84 79.9079 165.436 81.4698 166.242C82.3594 166.701 83.2472 167.374 83.5545 168.36C83.58 169.163 82.9614 169.855 82.5215 170.487Z"/>
	<path fill="#F3F7F7" d="M72.8786 170.626C73.2477 169.688 73.637 168.784 74.0941 167.885C75.5924 167.9 77.5804 168.655 78.8975 169.354C80.0264 169.953 80.8939 170.762 81.2885 171.994C81.2677 172.803 80.8698 173.378 80.469 174.053C77.921 172.843 75.5793 171.5 72.8786 170.626Z"/>
	<path fill="#F8F8F5" d="M68.2746 172.573L68.6201 172.711L68.6494 173.239C67.7853 174.449 67.4404 175.78 65.9013 176.224C64.5518 175.725 65.0292 174.978 64.2685 174.093C63.5654 174.306 63.1487 174.85 62.6679 175.373C62.7287 174.824 62.8076 174.274 63.0058 173.754C63.8604 171.515 66.6029 173.317 68.2746 172.573Z"/>
	<path fill="#F4F5F8" d="M65.9013 176.224C67.4404 175.78 67.7853 174.449 68.6494 173.239C69.8822 174.42 72.9822 175.203 74.6034 175.927C75.3753 177.054 76.7536 176.606 76.5538 178.28C75.7217 178.083 75.1193 177.788 74.3068 178.125C73.8453 178.741 73.7495 178.877 72.9884 179.136C72.6083 178.802 72.3915 178.467 72.1267 178.041L71.9355 177.671C69.9136 177.762 68.5088 175.493 65.9013 176.224Z"/>
	<path fill="#F3F7F7" d="M62.6679 175.373C63.1487 174.85 63.5654 174.306 64.2685 174.093C65.0292 174.978 64.5518 175.725 65.9013 176.224C68.5088 175.493 69.9136 177.762 71.9355 177.671L72.1267 178.041L71.5015 178.249C71.7088 179.224 72.0061 180.042 72.4433 180.937C70.6627 179.96 68.8749 179.252 66.9574 178.585C65.7199 178.067 64.2453 178.14 63.167 177.253C62.7077 176.606 62.6828 176.15 62.6679 175.373Z"/>
	<path fill="#ECEDF2" d="M74.6034 175.927L75.1492 175.694C76.579 176.484 78.932 177.596 79.7624 179.051C79.9394 179.362 80.1263 179.666 80.3024 179.977C80.2018 180.412 80.0584 180.84 80.1402 181.286Q80.425 182.321 80.6838 183.362L80.3953 183.781C79.747 183.876 79.4135 183.876 78.8072 183.554C78.2533 182.926 78.3226 181.985 78.2845 181.19C77.5888 180.837 77.4175 181.377 76.728 181.517C76.1123 181.643 75.8461 181.317 75.3771 180.988C75.9308 180.132 76.6036 179.316 76.5538 178.28C76.7536 176.606 75.3753 177.054 74.6034 175.927Z"/>
	<path fill="#F8F8F5" d="M81.9483 178.074C81.3812 177.985 80.961 178.062 80.6211 177.559C80.4226 177.266 80.4 176.899 80.3829 176.554C80.8837 176.11 81.0997 175.772 81.776 175.7C82.159 176.414 81.9045 177.291 81.9483 178.074Z"/>
	<path fill="#A1D5EF" d="M114.551 179.686C113.089 180.061 109.763 180.23 108.307 179.88L107.745 179.154C106.775 179.353 106.472 180.543 105.323 179.775C105.051 179.592 104.817 179.364 104.581 179.138C104.039 179.278 104.013 179.631 103.602 179.904C103.089 180.246 98.9468 179.953 98.011 180.038C98.0122 178.423 97.9428 176.772 98.0454 175.162C99.3106 175.589 100.615 176.088 101.942 176.277C106.462 176.921 116.687 175.727 119.897 176.962C120.137 177.673 120.064 178.43 120.047 179.169C119.626 179.775 119.352 179.692 118.646 179.83C118.656 179.495 118.686 179.168 118.527 178.862C118.365 178.55 117.885 178.33 117.544 178.237C116.717 178.011 115.858 178.198 115.123 178.612C114.683 178.861 114.687 179.225 114.551 179.686Z"/>
	<path fill="#F8F8F5" d="M72.4433 180.937C72.0061 180.042 71.7088 179.224 71.5015 178.249L72.1267 178.041C72.3915 178.467 72.6083 178.802 72.9884 179.136C73.6491 180.181 74.7475 180.014 75.3771 180.988C75.8461 181.317 76.1123 181.643 76.728 181.517C77.4175 181.377 77.5888 180.837 78.2845 181.19C78.3226 181.985 78.2533 182.926 78.8072 183.554C79.4135 183.876 79.747 183.876 80.3953 183.781L80.6838 183.362Q80.425 182.321 80.1402 181.286C81.3043 181.186 81.991 181.153 83.029 181.743C82.9304 182.38 82.6383 183.276 82.2195 183.775C81.6862 184.41 80.6984 184.841 79.8837 184.907C76.9478 185.146 74.4973 182.709 72.4433 180.937Z"/>
	<path fill="#F4F5F8" d="M72.9884 179.136C73.7495 178.877 73.8453 178.741 74.3068 178.125C75.1193 177.788 75.7217 178.083 76.5538 178.28C76.6036 179.316 75.9308 180.132 75.3771 180.988C74.7475 180.014 73.6491 180.181 72.9884 179.136Z"/>
	<path fill="#AEE4EA" d="M114.551 179.686C114.687 179.225 114.683 178.861 115.123 178.612C115.858 178.198 116.717 178.011 117.544 178.237C117.885 178.33 118.365 178.55 118.527 178.862C118.686 179.168 118.656 179.495 118.646 179.83C117.274 179.726 115.927 179.624 114.551 179.686Z"/>
	<path fill="#F4F5F8" d="M62.8942 184.394C62.7484 183.602 62.5542 182.592 62.8759 181.819C63.1745 181.102 63.4416 181.001 64.1171 180.706C67.5065 182.069 67.8671 184.713 70.6006 186.142C72.8469 187.317 75.5987 186.312 77.8502 187.485C77.2074 187.945 76.5942 188.41 75.8586 188.713L73.9921 189.158C66.9105 189.228 66.0534 183.921 63.1418 182.821L62.9861 183.091C63.0905 183.543 62.9796 183.949 62.8942 184.394Z"/>
	<path fill="#D6EAF3" d="M91.089 181.479C96.6634 183.604 103.447 182.384 109.361 182.5C110.345 182.52 111.265 182.224 112.236 182.491C111.628 183.419 112.267 185.773 111.444 186.171C107.388 185.935 95.9208 186.756 93.0485 185.605C91.9242 184.575 91.5624 182.886 91.089 181.479Z"/>
	<path fill="#AEE4EA" d="M117.559 186.242C117.27 184.768 117.157 183.105 117.361 181.618C118.486 181.581 118.998 182.463 119.831 182.461C121.428 182.459 134.081 182.916 135.007 183.246C135.597 183.984 135.625 184.991 135.747 185.898C135.694 185.924 135.641 185.95 135.588 185.978C134.119 186.747 120.567 186.013 117.559 186.242Z"/>
	<path fill="#A1D5EF" d="M112.236 182.491C112.276 182.508 112.314 182.525 112.355 182.54C113.662 183.017 114.598 181.878 115.416 183.487C115.775 184.194 116.054 185.156 115.827 185.934C115.331 186.385 115.07 186.469 114.391 186.453C113.406 186.43 112.427 186.208 111.444 186.171C112.267 185.773 111.628 183.419 112.236 182.491Z"/>
	<path fill="#F8F8F5" d="M62.8942 184.394C62.9796 183.949 63.0905 183.543 62.9861 183.091L63.1418 182.821C66.0534 183.921 66.9105 189.228 73.9921 189.158C71.3237 189.513 69.4203 189.902 66.8473 188.862C65.3525 187.508 64.0761 186.026 62.8942 184.394Z"/>
</svg>
