<?xml version="1.0" encoding="utf-8" ?>
<svg xmlns="http://www.w3.org/2000/svg" xmlns:xlink="http://www.w3.org/1999/xlink" width="607" height="510">
	<path fill="#E3467D" transform="matrix(1.9644 0 0 1.96154 0.00012207 0)" d="M151.894 56.5931C150.312 56.8102 148.318 56.9238 146.892 56.0721C146.689 55.9508 139.101 48.5366 138.722 48.0667C138.097 47.2909 137.587 46.3898 137.357 45.4146Q137.293 45.1378 137.258 44.856Q137.222 44.5742 137.215 44.2902Q137.209 44.0062 137.231 43.723Q137.253 43.4398 137.305 43.1604Q137.356 42.881 137.435 42.6082Q137.514 42.3353 137.62 42.072Q137.727 41.8087 137.86 41.5575Q137.992 41.3064 138.15 41.0701C139.439 39.1103 141.22 38.2654 143.449 37.8106C145.521 38.0687 146.873 38.5743 148.594 39.7761C150.334 39.4644 152.31 38.9382 153.985 39.7505C155.277 40.3767 156.101 41.5493 156.564 42.878C157.571 45.7677 157.548 50.022 156.211 52.76C155.241 54.7476 153.976 55.8734 151.894 56.5931Z"/>
	<path fill="#1A71C3" transform="matrix(1.9644 0 0 1.96154 0.00012207 0)" d="M74.5336 63.4388C74.3995 60.9405 73.8013 57.4213 74.8361 55.1131C75.3743 53.9126 76.3615 53.4655 77.5331 53.0311C84.5965 52.7242 89.3024 55.0358 95.7631 56.0567C107.634 57.9324 119.518 58.7073 131.179 61.9284C142.797 65.1376 155.325 72.4995 161.389 83.2938C164.068 88.0612 164.838 94.5092 163.338 99.7811C160.665 109.176 151.242 114.334 143.323 118.717C145.276 119.417 147.238 120.124 149.148 120.935C157.078 124.304 163.593 129.889 166.8 137.977C168.515 142.301 169.126 146.94 167.209 151.324C163.491 159.822 155.25 165.099 146.948 168.368C146.2 168.521 145.446 168.811 144.7 168.999C126.613 173.555 106.015 172.533 87.5689 171.032C83.1142 170.669 76.6833 170.815 72.8024 168.411C70.8183 167.182 69.5465 165.368 69.0557 163.09C68.5532 160.758 68.6261 157.934 69.9811 155.887C71.1934 154.055 73.3024 152.922 75.4162 152.491C81.3373 151.285 90.9999 155.225 95.9521 158.43C94.1176 153.678 93.7701 147.783 93.2393 142.737C92.6699 137.324 92.0688 131.876 91.7906 126.441C91.5127 121.011 91.5364 115.566 91.3865 110.132C91.0952 99.5727 90.8829 89.0804 91.7169 78.5311Q92.1795 73.2615 93.3484 68.1024C90.3956 67.7123 87.4613 67.6508 84.4889 67.5439C80.3436 67.395 77.4182 66.5389 74.5336 63.4388ZM101.866 69.1629C103.459 74.7596 103.469 87.0419 103.691 93.3046C103.901 99.2539 104.277 105.326 104.199 111.272C110.796 109.985 113.803 110.9 120.263 111.262C127.897 111.691 137.369 108.856 143.807 104.878C146.756 102.802 150.261 100.738 150.943 96.8779C151.535 93.5296 150.766 89.5802 148.783 86.8322C141.408 76.6115 127.927 72.598 116.078 70.7917C111.372 70.0743 106.602 69.6339 101.866 69.1629ZM112.964 127.061C110.625 127.392 108.357 127.882 106.059 128.418C106.365 133.403 106.748 138.343 107.358 143.303C107.962 148.217 108.975 153.249 108.779 158.209C119.142 159.458 136.157 159.554 145.611 155.243C149.892 152.995 153.417 151.042 154.938 146.057C155.223 145.121 155.393 144.139 155.571 143.178C154.182 138.721 151.239 135.591 147.168 133.445C139.304 129.299 128.066 127.948 119.336 127.318C117.339 127.174 114.946 126.814 112.964 127.061Z"/>
	<path fill="#E3467D" transform="matrix(1.9644 0 0 1.96154 0.00012207 0)" d="M154.278 201.132C149.597 205.594 145.194 210.478 140.243 214.645C137.591 216.877 134.7 218.721 131.894 220.739C129.881 222.187 127.646 224.146 125.223 224.781C123.975 225.108 122.626 225.171 121.494 224.461C120.528 223.854 119.965 222.726 119.728 221.641C118.856 217.646 121.059 213.301 123.566 210.32C128.761 204.143 135.769 199.453 141.172 193.451C149.16 184.575 156.035 174.653 163.157 165.085C167.101 159.787 171.366 154.715 175.26 149.386C179.325 143.824 183.088 137.797 186.592 131.871C189.685 126.642 192.905 121.164 194.934 115.421C196.62 110.652 198.064 100.543 200.472 96.9771C202.155 94.4838 204.565 93.3756 207.418 92.8065Q207.727 92.7822 208.036 92.7624C210.567 92.5974 213.071 93.1724 215.004 94.9099C216.534 96.284 217.135 97.9714 217.277 99.9807C217.536 103.638 216.998 107.36 216.698 111.001Q216.137 118.078 215.698 125.164C215.431 129.54 215.09 133.943 214.994 138.326C214.888 143.107 215.023 147.895 214.926 152.679C214.758 160.86 214.362 169.004 214.771 177.185C218.457 178.302 224.512 177.913 227.236 180.839C227.884 181.535 228.244 182.458 228.179 183.413C227.927 187.072 219.358 188.811 216.988 191.037C216.095 191.876 216.048 193.412 216.102 194.57C216.431 201.678 220.327 210.522 220.146 217.991C220.085 220.511 218.966 222.85 217.131 224.571C215.715 225.9 213.926 226.582 211.983 226.507C209.135 226.397 206.943 224.785 205.099 222.738C200.378 217.496 199.433 215.433 200.978 208.399C201.325 206.822 201.726 205.239 201.801 203.621C201.918 201.093 201.587 197.804 199.767 195.897C199.246 195.35 198.58 194.779 197.806 194.673C195.564 194.364 192.583 195.254 190.323 195.647C184.883 196.594 179.392 197.453 173.99 198.589C168.431 199.758 163.444 201.615 157.688 201.487C156.568 201.462 155.395 201.253 154.278 201.132ZM199.535 139.163C197.981 140.851 196.543 142.496 195.364 144.471C194.141 146.518 193.123 148.688 191.869 150.713C190.442 153.015 188.751 155.177 187.193 157.393C185.128 160.329 183.151 163.289 180.957 166.136C178.179 169.742 175.28 173.261 172.439 176.819C170.904 178.742 168.982 180.793 167.865 182.976L167.97 183.428L168.235 183.556C178.535 183.896 189.282 183.238 198.976 179.539C199.968 169.494 199.775 159.515 199.782 149.436C199.784 146.286 200.21 142.514 199.807 139.421L199.535 139.163Z"/>
	<path fill="#E3467D" transform="matrix(1.9644 0 0 1.96154 0.00012207 0)" d="M64.699 96.1506C65.8498 94.974 66.9784 94.1842 68.5027 93.5502C69.6818 93.4217 71.0194 93.306 72.1786 93.6001C73.857 94.0259 75.363 95.1934 76.2346 96.6814C77.6352 99.0725 78.0134 103.947 77.2883 106.642C76.6544 108.998 75.1306 110.284 73.0785 111.444C71.9548 111.594 70.8684 111.682 69.7417 111.497Q69.436 111.445 69.1369 111.364Q68.8377 111.283 68.548 111.172Q68.2583 111.062 67.9809 110.923Q67.7035 110.785 67.441 110.62Q67.1786 110.455 66.9336 110.265Q66.6886 110.075 66.4635 109.862Q66.2384 109.649 66.0354 109.414Q65.8323 109.18 65.6533 108.927C63.3538 105.676 64.0896 99.8603 64.699 96.1506Z"/>
	<path fill="#1A71C3" transform="matrix(1.9644 0 0 1.96154 0.00012207 0)" d="M237.204 162.806C235.655 162.744 234.171 162.413 232.836 161.607C231.708 160.927 230.9 159.94 230.59 158.648C230.205 157.046 230.556 155.39 231.437 154.015C233.337 151.051 237.159 148.783 240.54 148.041Q240.91 148.013 241.28 148.017Q241.651 148.022 242.02 148.06Q242.389 148.098 242.753 148.169Q243.117 148.24 243.473 148.343Q243.829 148.446 244.175 148.58Q244.52 148.715 244.852 148.88Q245.185 149.045 245.501 149.239Q245.817 149.433 246.114 149.654C248.655 151.581 249.285 154.206 251.062 156.604C251.866 157.689 252.951 158.601 253.623 159.777Q253.92 160.304 254.104 160.88Q254.288 161.456 254.352 162.058C254.608 164.306 253.645 166.357 252.256 168.068C250.272 170.511 247.848 172.379 244.656 172.723C243.189 172.604 241.901 172.226 240.718 171.324C238.077 169.308 237.639 165.86 237.204 162.806Z"/>
	<path fill="#1A71C3" transform="matrix(1.9644 0 0 1.96154 0.00012207 0)" d="M177.996 228.472C175.908 228.654 174.651 228.529 172.874 227.358C170.552 225.826 167.882 222.718 167.352 219.948C166.141 213.611 172.634 214.309 173.335 212.812C174.063 211.255 173.399 209.436 174.554 207.822C175.587 206.379 177.517 205.6 179.201 205.304C180.454 205.225 181.918 205.305 183.154 205.511C186.295 206.034 190.197 209.096 192.033 211.689C192.99 213.04 193.436 214.658 193.14 216.301C192.865 217.827 192.044 219.083 190.76 219.95C188.005 221.811 184.598 221.061 181.579 220.452C181.833 221.229 182.097 222.02 182.164 222.839C182.298 224.446 181.592 225.49 180.594 226.668C179.824 227.393 178.891 227.918 177.996 228.472Z"/>
</svg>
