<?xml version="1.0" encoding="utf-8" ?>
<svg xmlns="http://www.w3.org/2000/svg" xmlns:xlink="http://www.w3.org/1999/xlink" width="376" height="376">
	<path fill="#0DB5CC" transform="scale(1.67111 1.67111)" d="M110.206 15.2946C110.827 14.9257 111.005 14.7173 111.74 14.7815C112.636 15.9904 111.171 18.7622 112.836 19.3362C114.36 18.8592 115.625 17.1784 117.015 16.346C117.022 17.2632 116.753 17.4783 116.124 18.1163Q115.8 18.4401 115.465 18.7527L115.581 19.1386C114.439 20.1447 113.07 21.5958 111.6 22.0354C110.868 21.9572 110.809 21.9524 110.272 21.4543C109.755 20.4506 109.965 19.1097 110.004 18.0087L110.482 17.9108C110.919 17.459 110.993 17.3465 111.151 16.7398C110.953 15.9573 110.823 15.8153 110.206 15.2946Z"/>
	<path fill="#0DB5CC" transform="scale(1.67111 1.67111)" d="M117.807 15.5833C118.368 15.2412 119.019 14.7059 119.705 14.814C120.163 15.4939 120.076 16.1561 120.034 16.9696C120.14 17.5216 120.033 18.0958 120.145 18.65C120.234 19.0864 120.314 19.0991 120.665 19.337C121.892 19.0783 123.619 17.3325 124.702 16.542C125.32 16.6751 125.654 16.792 126.011 17.372C126.055 17.4432 126.085 17.5223 126.118 17.5986C124.484 18.8525 121.136 22.2491 119.227 22.2224C118.633 21.9058 118.323 21.7101 118.098 21.0489C117.821 20.2328 117.941 18.9486 117.934 18.0733L118.592 18.245C118.745 17.6583 118.852 17.061 118.967 16.466C118.657 15.7984 118.468 15.8286 117.807 15.5833Z"/>
	<path fill="#04B0C8" transform="scale(1.67111 1.67111)" d="M124.702 16.542C125.734 15.6998 126.585 14.8362 127.996 14.9594C128.404 15.4359 128.538 15.7623 128.497 16.4054C128.432 17.405 128.11 19.1055 127.331 19.7955L126.734 19.6629C126.38 18.9786 126.44 18.2567 126.118 17.5986C126.085 17.5223 126.055 17.4432 126.011 17.372C125.654 16.792 125.32 16.6751 124.702 16.542Z"/>
	<path fill="#04B0C8" transform="scale(1.67111 1.67111)" d="M105.144 18.9874C106.582 17.6289 108.588 16.4694 110.206 15.2946C110.823 15.8153 110.953 15.9573 111.151 16.7398C110.993 17.3465 110.919 17.459 110.482 17.9108L110.004 18.0087C108.167 17.8532 106.219 20.7444 104.392 21.3591C104.276 21.2488 105.165 19.8072 105.144 18.9874Z"/>
	<path fill="#04B0C8" transform="scale(1.67111 1.67111)" d="M117.015 16.346L117.807 15.5833C118.468 15.8286 118.657 15.7984 118.967 16.466C118.852 17.061 118.745 17.6583 118.592 18.245L117.934 18.0733C116.867 18.0686 116.502 18.7233 115.581 19.1386L115.465 18.7527Q115.8 18.4401 116.124 18.1163C116.753 17.4783 117.022 17.2632 117.015 16.346Z"/>
	<path fill="#03AFE4" transform="scale(1.67111 1.67111)" d="M101.964 21.283C102.871 20.4274 104.116 19.7099 105.144 18.9874C105.165 19.8072 104.276 21.2488 104.392 21.3591L103.605 22.3132C103.379 22.4777 103.226 22.7289 103.058 22.951L103.077 22.8123L102.379 23.0776C101.95 22.4862 102.02 22.0029 101.964 21.283Z"/>
	<path fill="#0DB5CC" fill-opacity="0.98823529" transform="scale(1.67111 1.67111)" d="M124.018 31.2967C124.041 28.2796 123.296 24.173 124.087 21.3159C124.608 20.7672 124.804 20.8279 125.528 20.7573C125.7 20.9248 126.198 21.3184 126.202 21.5331C126.209 21.8923 126.191 22.1063 126.042 22.4327C126.106 25.2792 126.515 43.7682 125.873 45.0408C125.312 45.2969 125.317 45.3361 124.741 45.1357C123.473 43.626 123.995 35.4297 124.004 33.0687C121.488 33.5029 119.168 33.0002 116.698 33.0803C114.957 33.1368 116.311 39.2123 114.794 40.7992L114.241 40.6964C113.116 39.5076 113.237 37.9437 113.205 36.4069C113.176 34.9959 112.979 32.643 114.089 31.5968C115.448 30.3171 122.048 31.1939 124.018 31.2967Z"/>
	<path fill="#08B1CD" transform="scale(1.67111 1.67111)" d="M125.528 20.7573C128.221 20.7502 137.972 20.193 140.064 20.9712C139.291 21.0657 138.68 20.9857 138.119 21.556C138.119 21.8574 138.095 22.1625 138.166 22.4563C134.229 22.747 129.989 22.6038 126.042 22.4327C126.191 22.1063 126.209 21.8923 126.202 21.5331C126.198 21.3184 125.7 20.9248 125.528 20.7573Z"/>
	<path fill="#03AFE4" transform="scale(1.67111 1.67111)" d="M138.166 22.4563C138.095 22.1625 138.119 21.8574 138.119 21.556C138.68 20.9857 139.291 21.0657 140.064 20.9712L140.247 21.02C140.175 21.6209 140.241 22.1369 139.743 22.5586C139.437 22.8183 138.955 22.9811 138.585 23.138L138.166 22.4563Z"/>
	<path fill="#08B1CD" transform="scale(1.67111 1.67111)" d="M140.247 21.02C140.269 21.0549 140.293 21.0888 140.314 21.1246C141.419 23.039 140.076 30.426 140.876 31.209C142.835 31.4247 149.502 30.5396 150.664 31.4434L150.776 31.7685L150.632 32.7795L150.579 33.4234C150.036 33.7974 149.688 33.7383 149.039 33.7748L148.299 33.0856C145.798 33.7367 142.978 32.7843 140.481 33.2982C140.202 33.7389 139.769 34.0708 139.384 34.4174L139.13 34.0137L138.918 34.5261L138.518 32.1451C138.42 29.1773 138.33 26.0973 138.585 23.138C138.955 22.9811 139.437 22.8183 139.743 22.5586C140.241 22.1369 140.175 21.6209 140.247 21.02Z"/>
	<path fill="#08B1CD" transform="scale(1.67111 1.67111)" d="M103.605 22.3132C103.518 25.05 104.185 28.2935 103.653 30.9481C103.52 31.6091 103.404 31.8517 102.857 32.2323C102.394 32.0911 102.157 32.1037 101.909 31.658C101.304 30.5677 101.631 22.6886 101.964 21.283C102.02 22.0029 101.95 22.4862 102.379 23.0776L103.077 22.8123L103.058 22.951C103.226 22.7289 103.379 22.4777 103.605 22.3132Z"/>
	<path transform="scale(1.67111 1.67111)" d="M136.713 25.9231C136.244 25.8876 135.859 25.7585 135.421 25.5954C135.11 24.8811 135.268 24.6107 135.427 23.8627L136.351 24.0923C136.823 24.7497 136.71 25.1271 136.713 25.9231Z"/>
	<path fill="#0DB5CC" transform="scale(1.67111 1.67111)" d="M132.629 32.2266C132.142 32.1714 131.524 32.1594 131.113 31.8737C130.824 31.673 130.85 31.2062 130.799 30.8686C130.363 30.1589 129.811 30.141 129.114 29.8161C128.548 29.5525 128.461 29.4068 128.279 28.8444C128.376 28.2898 128.411 27.8406 128.854 27.4421C129.418 27.3979 129.954 27.4316 130.515 27.4756C131.034 26.8291 130.991 25.7448 131.235 24.9171C131.557 24.9154 131.937 24.8868 132.253 24.9468C133.384 25.1612 132.81 26.2616 133.356 27.0155C133.627 27.389 133.973 27.3068 134.383 27.3952C135.012 27.5308 135.058 27.5691 135.384 28.0964C135.378 29.8364 133.488 30.7193 132.629 32.2266Z"/>
	<path fill="#04B0C8" transform="scale(1.67111 1.67111)" d="M137.535 47.0779C133.967 48.8404 127.721 49.1431 123.833 48.3659C120.774 47.7544 117.908 46.5055 115.182 45.0129C109.993 42.1727 105.562 38.1512 100.661 34.8718C99.0548 33.7966 94.707 31.9201 93.8435 30.5473C93.7444 30.3898 93.8432 30.1643 93.8784 29.9856C94.0691 29.8229 94.2746 29.659 94.5082 29.5618C95.0044 29.3554 95.7659 29.3088 96.2834 29.4571C100.003 30.5228 108.87 38.2899 112.591 40.8458Q115.964 43.1825 119.765 44.7298C125.91 47.2731 131.891 46.9174 137.994 44.3812L137.923 44.5313C137.604 45.1923 136.835 45.7872 136.793 46.4912C137.031 46.793 137.174 46.9378 137.535 47.0779Z"/>
	<path fill="#0DB5CC" transform="scale(1.67111 1.67111)" d="M150.776 31.7685C150.964 33.0007 151.275 35.0445 150.502 36.13C150.132 36.6499 149.974 36.7612 149.35 36.8773C148.949 36.4934 148.767 36.2521 148.767 35.6688C148.768 35.1408 148.842 34.2585 149.039 33.7748C149.688 33.7383 150.036 33.7974 150.579 33.4234L150.632 32.7795L150.776 31.7685Z"/>
	<path fill="#0DB5CC" transform="scale(1.67111 1.67111)" d="M138.518 32.1451L138.918 34.5261L139.13 34.0137L139.384 34.4174C139.769 34.0708 140.202 33.7389 140.481 33.2982C140.563 35.7468 141.072 37.9001 140.322 40.3353C140.09 41.0887 139.837 41.5913 139.139 41.9528L138.784 41.6957C137.755 39.6139 138.467 34.6363 138.518 32.1451Z"/>
	<path fill="#0DB5CC" transform="scale(1.67111 1.67111)" d="M96.8535 37.6789C95.273 37.1675 93.2746 36.1558 92.1859 34.899C91.9916 34.2171 92.0651 34.0947 92.3053 33.4595C92.5062 33.4452 92.7108 33.4386 92.9116 33.4598C94.4953 33.627 96.1189 34.5573 97.0709 35.7989C97.3189 36.481 97.0724 37.0241 96.8535 37.6789Z"/>
	<path fill="#08B1CD" transform="scale(1.67111 1.67111)" d="M94.7528 42.1583C85.1712 36.6966 82.2142 36.9148 71.4732 37.1622C69.3744 37.2105 67.0493 37.5289 64.9891 37.1013C64.5425 36.6576 64.5661 36.4048 64.4656 35.8024L64.798 35.3698C67.3766 34.1373 78.3966 34.4892 81.4722 34.7965C83.2688 34.9761 85.0046 35.3375 86.7486 35.7955C87.9215 38.5942 95.6049 39.1225 94.7528 42.1583Z"/>
	<path fill="#08B1CD" transform="scale(1.67111 1.67111)" d="M122.722 36.9617C120.959 37.0258 118.657 37.666 117.069 36.8095C116.6 35.9929 116.718 35.4038 116.729 34.4922C118.426 34.5467 121.322 33.8544 122.656 35.0648C123.028 35.7093 122.855 36.2703 122.722 36.9617Z"/>
	<path fill="#04B0C8" transform="scale(1.67111 1.67111)" d="M70.9855 59.2407L69.3032 59.738C69.514 60.1367 69.7429 60.481 70.0246 60.8324C69.3368 61.2899 69.1919 60.7211 68.5967 60.8655C68.1639 60.9705 67.9602 61.2915 67.4444 61.2719L67.372 61.3303C66.1421 58.387 64.5831 54.1806 65.0148 50.9393C65.2177 49.4155 65.795 47.9576 65.8758 46.4152C64.6039 46.6965 63.0781 47.7379 61.8995 48.3506C61.975 52.1203 62.6509 66.7526 61.5357 69.3164C61.2937 69.8727 61.1772 70.0063 60.6185 70.2317C58.7224 69.806 56.7281 67.174 55.3995 65.8003C55.5081 68.2532 55.9447 70.7293 55.1414 73.1124C54.9444 73.6971 54.6801 74.2977 54.1025 74.5774C53.8318 74.3802 53.7714 74.2429 53.6592 73.9341C52.901 71.8477 53.0058 42.1306 53.244 37.9912C53.2972 37.0666 53.3801 36.1398 53.7801 35.2918C54.0175 35.1456 54.2666 35.0232 54.5377 34.9532C56.3502 34.4849 59.6438 34.4236 61.2869 35.3619C61.9236 36.1442 61.7663 37.8231 61.7914 38.7897C63.0418 39.9193 73.392 37.6262 75.3937 39.41C75.2389 41.0069 70.006 44.1679 68.4205 47.4271C67.22 49.8951 67.092 53.3555 68.02 55.9571C68.6319 57.6722 69.3481 58.4852 70.9855 59.2407ZM56.8369 38.9024C57.4164 38.3732 57.8145 38.1678 57.9987 37.3931C57.6066 37.0458 57.5759 36.9862 57.0232 37.0177C56.6348 37.0398 56.2532 37.3123 55.9305 37.512C55.5856 38.131 55.3826 38.6817 55.6115 39.3988C55.6507 39.5216 55.7123 39.6405 55.7738 39.7535L55.5494 39.9947C55.9816 40.1164 56.2743 40.1243 56.716 40.0474L56.7951 40.4254C56.454 40.9361 55.8034 41.6922 55.7336 42.2909C56.5654 43.4138 58.5252 44.5913 59.6366 45.5129C59.3934 44.0844 59.7041 40.423 59.0053 39.5979C58.9254 39.4764 58.9064 39.4356 58.787 39.3235C58.2183 38.7894 57.566 38.9235 56.8369 38.9024ZM68.7325 41.119C67.6776 41.1601 65.1955 40.9531 64.3815 41.4837C64.7741 42.0959 65.2383 42.1995 65.887 42.5082C66.5925 42.8661 67.1567 42.8733 67.9009 42.6211C68.5203 42.4112 68.9325 42.1089 69.3846 41.6463L69.3635 41.244C69.169 41.1997 68.9297 41.1129 68.7325 41.119ZM61.7197 42.3602C61.7045 43.2256 61.4077 44.8166 61.8956 45.5016C62.6409 45.5166 63.2322 45.074 63.8495 44.7062L64.3106 44.5075C64.2346 43.9345 63.4115 43.4281 62.9386 43.0613C62.5682 42.774 62.1737 42.4914 61.7197 42.3602ZM55.4525 45.273C55.5392 47.0865 55.5671 48.8525 55.4475 50.6648C55.9962 50.2426 56.6193 49.6333 57.2192 49.3114C57.8625 48.7922 58.2258 48.6534 58.4417 47.8404C58.0817 46.804 56.711 45.8332 55.7228 45.3718C55.645 45.3355 55.5289 45.2991 55.4525 45.273ZM58.9887 49.9275C57.9663 50.7978 56.9602 51.725 55.8978 52.5437L57.8881 53.8333C58.3694 54.2682 58.5368 54.5642 59.1951 54.6156C59.8859 53.5655 59.4411 51.3912 59.3531 50.1632L58.9887 49.9275ZM55.4533 55.2938C55.5324 57.1936 55.5715 59.0626 55.4747 60.9622C56.0059 60.4462 56.6091 59.7051 57.2259 59.3172C57.8813 58.7339 58.2807 58.5768 58.4262 57.6943C58.0862 56.7561 56.7194 55.8808 55.8356 55.4565Q55.6487 55.3652 55.4533 55.2938ZM59.0928 60.1699C58.0033 61.1946 56.9246 62.3121 55.7083 63.1831C56.368 63.7405 57.1381 64.2913 57.6829 64.9606L59.5763 66.9885C59.5534 65.5753 59.8582 61.1441 59.0928 60.1699Z"/>
	<path fill="#04B0C8" transform="scale(1.67111 1.67111)" d="M86.7486 35.7955C92.4865 37.7265 98.612 41.5353 103.145 45.5829L100.729 46.3473C98.7368 44.9708 96.6609 43.6479 94.7528 42.1583C95.6049 39.1225 87.9215 38.5942 86.7486 35.7955Z"/>
	<path fill="#0DB5CC" transform="scale(1.67111 1.67111)" d="M148.408 38.5096C148.725 38.6412 149.049 38.67 149.386 38.714C149.758 38.4278 150.106 38.2002 150.535 38.004L150.656 37.9497C151.929 37.6052 153.266 37.7619 154.568 37.8276L154.879 42.3745C156.115 43.7782 156.542 44.6167 156.486 46.5365C156.038 47.1723 155.984 47.4407 155.15 47.5625C154.96 47.5902 154.758 47.58 154.566 47.5715C154.456 45.4279 154.074 44.7632 152.627 43.1974C152.637 41.9444 152.608 40.853 152.279 39.6322C152.142 40.447 152.099 41.2006 151.452 41.7815C150.989 41.9768 150.749 42.1478 150.251 41.9076C149.853 41.7157 149.206 41.0993 148.961 40.7277L149.299 40.1974C149.253 39.4209 148.873 39.1201 148.408 38.5096Z"/>
	<path fill="#0DB5CC" transform="scale(1.67111 1.67111)" d="M128.734 40.0896C128.445 39.7873 128.237 39.5303 128.075 39.1459C127.874 38.672 127.873 38.6311 128.063 38.1552L128.597 38.0838C131.255 37.9749 134.781 37.5465 137.357 38.1997C137.168 38.9111 137.168 39.3395 136.517 39.785C136.282 39.946 135.954 40.052 135.689 40.1567C135.667 41.394 135.778 42.7253 135.182 43.8461L134.742 44.2248C134.28 43.9297 134.149 43.6615 134.015 43.1344C133.789 42.2438 133.91 41.0381 133.912 40.1116L133.755 39.7049C132.852 39.7993 131.942 39.7439 131.037 39.714L130.766 40.0385C130.8 41.5106 131.123 44.0884 130.108 45.2916C129.564 45.0719 129.419 44.6394 129.206 44.1074C128.72 42.8983 128.892 41.3738 128.734 40.0896Z"/>
	<path fill="#08B1CD" transform="scale(1.67111 1.67111)" d="M139.716 43.0634C140.89 41.949 145.913 38.3022 147.376 38.1012C147.911 38.0276 148.001 38.1957 148.408 38.5096C148.873 39.1201 149.253 39.4209 149.299 40.1974L148.961 40.7277C148.359 40.387 147.905 39.9634 147.176 40.2034C144.646 41.0363 142.043 43.7114 140.019 45.3984L139.349 44.8996C139.137 44.1872 139.458 43.7475 139.716 43.0634Z"/>
	<path fill="#0DB5CC" transform="scale(1.67111 1.67111)" d="M103.84 42.3998C102.83 41.9539 101.746 41.3112 100.88 40.6282C100.236 40.1198 99.9968 39.7226 99.8929 38.9235L100.422 38.2673C100.515 38.2794 100.608 38.2921 100.7 38.3105C102.067 38.5846 103.473 39.4653 104.258 40.6016C104.398 41.4345 104.194 41.6515 103.84 42.3998Z"/>
	<path fill="#08B1CD" transform="scale(1.67111 1.67111)" d="M122.767 40.7237C120.959 40.6794 118.76 41.2404 117.124 40.3914C116.631 39.6108 116.759 39.0291 116.766 38.1365C118.632 38.3925 120.68 37.8365 122.42 38.538C122.946 39.2715 122.786 39.853 122.767 40.7237Z"/>
	<path fill="#0DB5CC" transform="scale(1.67111 1.67111)" d="M55.7738 39.7535L56.8369 38.9024C57.566 38.9235 58.2183 38.7894 58.787 39.3235C58.9064 39.4356 58.9254 39.4764 59.0053 39.5979C57.9722 40.6174 56.9283 41.4675 55.7336 42.2909C55.8034 41.6922 56.454 40.9361 56.7951 40.4254L56.716 40.0474C56.2743 40.1243 55.9816 40.1164 55.5494 39.9947L55.7738 39.7535Z"/>
	<path fill="#0DB5CC" transform="scale(1.67111 1.67111)" d="M83.7717 42.5978C85.4165 41.5473 89.4023 41.793 91.2834 42.2225C92.0313 42.3933 92.7114 42.5603 93.2333 43.13C91.8577 44.2694 87.2454 43.4599 85.363 43.7432C84.9098 43.1563 84.2092 43.3315 83.7717 42.5978Z"/>
	<path fill="#08B1CD" transform="scale(1.67111 1.67111)" d="M83.8419 42.8706L83.7717 42.5978C84.2092 43.3315 84.9098 43.1563 85.363 43.7432L85.207 44.0282C85.1321 44.9653 85.1661 45.9215 84.3928 46.5754C84.2071 46.7324 84.0104 46.8706 83.8098 47.0075L83.1067 46.0497L82.792 45.7729C82.8195 45.7405 82.8476 45.7086 82.8745 45.6758C83.6068 44.7822 83.9477 44.0331 83.8419 42.8706Z"/>
	<path fill="#04B0C8" transform="scale(1.67111 1.67111)" d="M78.2118 44.6069C79.7876 43.9956 81.453 44.3861 82.9649 43.8906C83.5227 43.7079 83.5839 43.3566 83.8419 42.8706C83.9477 44.0331 83.6068 44.7822 82.8745 45.6758C82.8476 45.7086 82.8195 45.7405 82.792 45.7729L83.1067 46.0497C82.1675 46.4023 81.0865 46.2859 80.0974 46.2688L80.7035 45.9862L80.7563 45.6782C80.1414 45.0221 79.0537 44.8482 78.2118 44.6069Z"/>
	<path fill="#0DB5CC" transform="scale(1.67111 1.67111)" d="M110.79 47.4775C110.609 47.426 110.428 47.3698 110.255 47.2962C108.826 46.6882 107.039 45.8653 106.411 44.3671C106.539 43.6063 106.855 43.4237 107.381 42.8768C108.827 43.2165 110.713 44.3219 111.538 45.5559C111.541 46.4106 111.221 46.7519 110.79 47.4775Z"/>
	<path fill="#0DB5CC" transform="scale(1.67111 1.67111)" d="M137.994 44.3812C138.27 43.8827 139.227 43.3923 139.716 43.0634C139.458 43.7475 139.137 44.1872 139.349 44.8996L140.019 45.3984Q140.152 47.1855 140.328 48.9688C140.125 49.2412 139.997 49.5474 139.668 49.6394C139.232 49.761 138.828 50.2297 138.527 50.5607L138.219 50.3258C138.27 49.3399 138.405 48.2964 138.133 47.3361L137.535 47.0779C137.174 46.9378 137.031 46.793 136.793 46.4912C136.835 45.7872 137.604 45.1923 137.923 44.5313L137.994 44.3812Z"/>
	<path fill="#04B0C8" transform="scale(1.67111 1.67111)" d="M156.486 46.5365C157.578 45.6115 158.938 44.1474 160.472 44.2109C161.207 44.7762 161.39 45.1635 162.354 45.2862C163.637 44.738 164.815 43.0276 166.394 43.6431C166.843 43.8177 166.999 43.9217 167.201 44.3663C167.697 45.4588 167.495 47.548 167.481 48.7534C167.002 48.3042 166.611 47.6825 166.219 47.1549C165.795 47.5263 165.784 48.2481 165.667 48.7973L165.387 47.1622C164.897 47.3235 164.729 47.5661 164.452 47.9869C163.147 48.2044 161.401 46.6683 160.377 45.9673C157.986 47.8722 155.292 49.4684 153.021 51.5022C153.009 52.2922 152.751 53.9757 153.207 54.5637C157.782 55.9269 162.687 57.0023 167.44 57.4522C167.759 56.9061 167.564 56.1079 167.517 55.4734L169.102 55.7346C169.129 56.5603 168.978 56.9577 169.571 57.5597C172.392 58.5415 176.801 54.2812 178.599 55.175C179.356 55.5513 180.25 56.4978 180.934 57.0453C181.299 58.6046 180.627 60.2717 180.751 61.8684C180.848 63.1275 181.551 64.4924 181.298 65.7253C180.88 66.0508 180.712 66.085 180.172 66.0141C178.885 65.8456 177.401 64.8443 176.267 64.2279C177.187 65.9187 178.372 68.3688 177.784 70.3198C177.713 70.5562 177.454 70.7209 177.274 70.8868C175.639 71.2883 171.038 67.3713 169.914 68.5018C170.861 70.6986 175.44 73.3703 175.677 74.9284C175.08 75.9141 172.52 76.4757 172.583 77.5299C173.685 78.3445 174.713 77.4223 175.528 79.0563C175.136 80.1837 174.255 80.6657 173.213 81.1715C171.61 81.9496 168.266 82.4731 167.218 83.7899L166.964 83.7279C166.78 84.3537 166.764 84.6432 166.98 85.2686C167.361 85.4345 167.7 85.5334 168.111 85.5986C166.543 85.7665 164.441 85.7926 163.151 84.7928C162.814 84.1493 162.811 83.9593 162.849 83.2627C163.456 81.908 167.136 80.6074 168.502 79.936C169.054 79.6646 170.148 79.2449 170.341 78.6804C169.862 78.3964 168.945 77.9711 168.699 77.462C168.373 76.7832 168.469 76.3009 168.729 75.6333C169.683 74.7789 171.477 74.5471 172.715 74.0529Q170.667 71.6799 168.535 69.3823C166.874 68.9211 164.079 68.9074 162.923 67.6229L163.019 67.016C163.85 66.0944 165.32 65.4551 166.504 65.1511C170.204 64.201 173.429 65.8811 176.512 67.6924C175.315 65.7303 172.337 63.5407 171.872 61.4054L172.419 60.8477C174.512 60.7575 176.455 61.4663 178.424 62.0855C178.355 59.9809 178.786 58.3233 179.404 56.3395C165.897 65.7677 153.606 53.7349 138.783 56.7068C133.932 57.6792 132.921 60.4552 129.175 62.4035C126.548 63.7697 123.391 63.8517 120.721 65.3003C118.108 66.7175 116.633 68.8232 115.814 71.6134C115.057 70.5917 114.957 69.9154 115.018 68.6442C115.024 68.6154 115.026 68.5859 115.034 68.5577C115.195 67.9695 115.837 67.1143 116.221 66.6225C119.898 61.9117 126.032 62.0962 130.835 59.2545C125.596 59.3978 122.318 58.3192 117.345 57.3267C109.281 55.7172 98.8547 56.5762 91.4022 60.0696C89.5333 60.9457 87.9869 62.5247 86.1361 63.4587C85.5397 63.7596 85.2365 63.7961 84.6231 63.575L84.3992 62.8571C84.5836 61.9789 85.0545 61.4652 85.7354 60.9036C92.2618 55.5209 103.483 53.6893 111.777 54.4492C108.877 52.734 105.989 50.598 103.459 48.3722C104.184 48.091 104.397 47.8625 105.151 48.2058C106.044 48.6122 106.173 48.8257 107.217 48.8941C108.165 49.3085 109.204 50.2083 110.09 50.7916C112.789 52.5677 115.598 54.3761 118.657 55.4607C122.795 56.928 127.832 57.3364 132.128 56.3613C134.597 55.8011 137.011 54.9485 139.517 54.5634C143.454 53.9585 147.217 54.1838 151.117 54.9119C151.048 53.9199 150.914 52.8382 151.038 51.8513C151.291 49.8415 153.112 48.731 154.566 47.5715C154.758 47.58 154.96 47.5902 155.15 47.5625C155.984 47.4407 156.038 47.1723 156.486 46.5365Z"/>
	<path fill="#0DB5CC" transform="scale(1.67111 1.67111)" d="M83.8098 47.0075C84.0104 46.8706 84.2071 46.7324 84.3928 46.5754C85.1661 45.9215 85.1321 44.9653 85.207 44.0282C85.8424 45.5019 85.043 52.1591 86.0085 52.4954C86.4637 52.654 87.0449 52.6929 87.5246 52.7675C87.0142 51.1576 86.98 46.6014 87.7725 45.1309C87.8681 44.9535 88.1334 44.9392 88.3225 44.8847C88.899 45.2408 89.0473 45.4587 89.2001 46.1309C89.6461 48.0938 89.1199 50.4032 89.1341 52.4183C89.7529 52.5715 90.2605 52.5936 90.8913 52.5702C92.4291 50.7681 89.9987 45.7958 92.1828 44.6084C92.3723 44.6422 92.4858 44.6052 92.598 44.775C93.952 46.8236 92.1277 51.4608 94.2522 52.816L94.6286 52.864C95.1942 52.376 95.3984 52.0209 95.468 51.255C95.6418 49.3437 95.3249 47.3229 95.941 45.4761L96.3287 45.1681C97.2873 45.8781 97.4573 47.0266 97.6286 48.1559C97.8123 49.3675 97.8689 51.4875 97.3128 52.6249C96.8888 52.8971 96.5547 53.0848 96.0556 53.1757C93.1302 54.9429 88.6152 54.6278 85.3081 54.3956L86.0513 53.3169L85.9399 52.905C85.2036 52.737 84.5953 52.5431 83.9385 52.163L83.7622 52.0596C82.7693 51.4693 79.8755 51.9943 78.5985 52.0985C79.0194 51.4948 79.1335 50.6531 79.3008 49.9411C80.6333 49.7358 82.0364 49.8642 83.3806 49.9047C83.9066 49.1544 83.2074 47.9302 83.684 47.1857C83.7232 47.1245 83.7679 47.0669 83.8098 47.0075Z"/>
	<path fill="#08B1CD" transform="scale(1.67111 1.67111)" d="M76.8832 50.6893C77.6049 48.8139 76.873 46.2059 78.2118 44.6069C79.0537 44.8482 80.1414 45.0221 80.7563 45.6782L80.7035 45.9862L80.0974 46.2688C79.2427 47.2728 79.5252 48.6726 79.3008 49.9411C79.1335 50.6531 79.0194 51.4948 78.5985 52.0985L78.3479 52.2574C78.3263 52.1608 78.3049 52.052 78.2743 51.9561C78.0097 51.1295 77.5941 51.043 76.8832 50.6893Z"/>
	<path fill="#0DB5CC" transform="scale(1.67111 1.67111)" d="M100.729 46.3473L103.145 45.5829Q105.165 47.2578 107.217 48.8941C106.173 48.8257 106.044 48.6122 105.151 48.2058C104.397 47.8625 104.184 48.091 103.459 48.3722L100.729 46.3473Z"/>
	<path fill="#0DB5CC" transform="scale(1.67111 1.67111)" d="M165.667 48.7973C165.784 48.2481 165.795 47.5263 166.219 47.1549C166.611 47.6825 167.002 48.3042 167.481 48.7534C168.153 49.2796 168.596 49.7288 169.026 50.4691C168.533 51.1317 168.311 51.0315 167.519 51.1581C166.77 50.413 166.007 49.8325 165.667 48.7973Z"/>
	<path fill="#0DB5CC" transform="scale(1.67111 1.67111)" d="M101.116 52.3109C100.711 52.1643 100.49 51.9858 100.18 51.6909C99.6697 50.2983 99.7536 48.9862 100.109 47.5647L101.001 47.9742C101.329 48.348 101.512 48.6921 101.615 49.176C101.825 50.157 101.658 51.4564 101.116 52.3109Z"/>
	<path fill="#0DB5CC" transform="scale(1.67111 1.67111)" d="M118.399 51.7028C118.227 51.6914 118.053 51.6741 117.884 51.6347C116.667 51.3503 114.452 50.5421 113.832 49.4211C113.501 48.8231 113.808 48.2778 113.978 47.67Q114.19 47.6828 114.4 47.7179C115.649 47.9194 117.69 48.6892 118.392 49.7932C118.772 50.3912 118.552 51.0633 118.399 51.7028Z"/>
	<path fill="#08B1CD" transform="scale(1.67111 1.67111)" d="M138.219 50.3258L138.527 50.5607C138.828 50.2297 139.232 49.761 139.668 49.6394C139.997 49.5474 140.125 49.2412 140.328 48.9688C140.341 50.4957 140.268 51.4079 139.225 52.6063L138.753 52.6386C138.165 51.9034 138.231 51.2124 138.219 50.3258Z"/>
	<path fill="#08B1CD" transform="scale(1.67111 1.67111)" d="M169.026 50.4691C169.223 52.2568 169.336 53.9419 169.102 55.7346L167.517 55.4734L167.519 51.1581C168.311 51.0315 168.533 51.1317 169.026 50.4691Z"/>
	<path fill="#04B0C8" transform="scale(1.67111 1.67111)" d="M76.8832 50.6893C77.5941 51.043 78.0097 51.1295 78.2743 51.9561C78.3049 52.052 78.3263 52.1608 78.3479 52.2574C78.5006 52.755 78.701 53.2243 79.1732 53.4973C81.1157 54.6206 82.3156 53.7791 83.5238 56.1058L83.6916 56.5483C84.7585 56.9065 85.837 56.541 86.5006 57.6528C84.5109 58.3088 83.6214 58.669 82.1664 60.2263C81.7348 59.7891 81.4192 59.4495 81.1923 58.8614C81.3405 58.5151 81.3741 58.13 81.4298 57.7598C81.1805 57.1391 81.2138 57.1052 80.613 56.83C79.726 56.909 79.4736 57.1276 78.7416 57.6406C78.0602 57.7863 77.3629 57.8825 76.7785 58.2851C76.7593 58.2779 76.7386 58.2737 76.7209 58.2634C76.2163 57.97 76.0893 57.7427 75.9405 57.1882C75.3759 55.0839 75.8381 52.5451 76.8832 50.6893Z"/>
	<path fill="#0DB5CC" transform="scale(1.67111 1.67111)" d="M126.637 54.1825C125.602 53.9887 124.56 53.8358 123.524 53.6443C122.591 53.4716 122.112 53.3018 121.57 52.5142C121.509 51.7917 121.793 51.4211 122.174 50.8415C123.052 51.2594 123.816 51.4008 124.763 51.5236C125.526 51.6225 126.47 51.7307 126.971 52.3798C127.131 53.0917 126.913 53.5379 126.637 54.1825Z"/>
	<path fill="#0DB5CC" transform="scale(1.67111 1.67111)" d="M131.549 54.0173C131.252 54.0896 130.938 54.0231 130.638 53.9898C130.384 53.7021 130.182 53.4439 130.054 53.0802C129.869 52.5589 129.945 52.532 130.171 52.0491C131.183 51.357 132.868 51.3379 134.085 51.0646C134.393 50.9821 134.731 51.1094 135.034 51.18C135.583 51.662 135.603 51.6717 135.712 52.3912C134.945 53.6811 132.923 53.6183 131.549 54.0173Z"/>
	<path fill="#04B0C8" transform="scale(1.67111 1.67111)" d="M83.7622 52.0596L83.9385 52.163C84.5953 52.5431 85.2036 52.737 85.9399 52.905L86.0513 53.3169L85.3081 54.3956L85.1729 55.1662C84.7142 55.3104 84.2689 55.4801 83.7843 55.4943L83.7622 52.0596Z"/>
	<path fill="#08B1CD" transform="scale(1.67111 1.67111)" d="M83.7843 55.4943C84.2689 55.4801 84.7142 55.3104 85.1729 55.1662L85.6683 55.9517L85.8227 55.9719C86.479 56.0627 87.0958 56.229 87.7313 56.4122L87.7755 56.8012C87.3633 57.1539 87.0094 57.4404 86.5006 57.6528C85.837 56.541 84.7585 56.9065 83.6916 56.5483L83.5238 56.1058L83.7843 55.4943Z"/>
	<path fill="#0DB5CC" transform="scale(1.67111 1.67111)" d="M76.7785 58.2851C77.3629 57.8825 78.0602 57.7863 78.7416 57.6406C79.214 58.3346 79.3172 58.6056 80.1007 58.9522L81.1923 58.8614C81.4192 59.4495 81.7348 59.7891 82.1664 60.2263C81.6573 60.4067 81.0164 60.5851 80.478 60.6019C78.9992 60.6482 77.7605 59.2191 76.7785 58.2851Z"/>
	<path fill="#08B1CD" transform="scale(1.67111 1.67111)" d="M67.372 61.3303L67.4444 61.2719C67.9602 61.2915 68.1639 60.9705 68.5967 60.8655C69.1919 60.7211 69.3368 61.2899 70.0246 60.8324C69.7429 60.481 69.514 60.1367 69.3032 59.738L70.9855 59.2407C71.7592 59.8301 72.8023 60.4221 72.8992 61.4802C72.9477 62.0107 72.6871 62.5499 72.4967 63.0328C72.4409 63.1744 72.4611 63.1135 72.4252 63.2633C72.3774 63.9257 72.2962 64.2667 71.9024 64.8235C71.0533 64.3894 70.1865 64.6318 69.3131 64.2254C68.1895 63.7026 67.766 62.4182 67.372 61.3303Z"/>
	<path fill="#0DB5CC" transform="scale(1.67111 1.67111)" d="M94.038 79.3062C93.9055 79.334 93.797 79.3557 93.6606 79.3507C91.0491 79.2537 91.162 77.3384 90.1552 75.5306C89.881 75.0382 89.4341 74.6797 89.0848 74.2473C87.7715 72.6214 89.0676 72.0739 88.9697 70.5218C88.9088 69.5552 88.2936 68.7642 88.4525 67.7436C88.4584 67.7057 88.4657 67.668 88.4716 67.63C88.6964 66.1904 90.1851 65.697 90.5537 64.3577C90.5753 64.279 90.5933 64.1991 90.618 64.1213C90.71 63.832 90.8596 63.222 91.0263 62.9864C91.8522 61.8184 95.255 60.1168 96.5876 59.4877C97.6897 58.9675 98.2697 59.5814 99.3397 59.6898C100.285 59.7857 101.24 59.2402 102.242 59.3571C103.634 59.5194 104.023 60.5301 105.111 61.1754C105.613 61.4728 106.268 61.6235 106.821 61.8173C107.913 62.2007 108.125 62.7961 108.609 63.8003C108.339 64.691 108.137 64.9188 108.591 65.7743C109.227 66.9726 109.743 68.4501 110.57 69.5103C110.549 69.5529 110.527 69.5945 110.509 69.6381C110.013 70.8357 110.916 72.1101 110.488 73.4424C110.022 74.8945 108.375 78.1307 106.988 78.8612C106.434 79.1531 105.561 79.2697 104.944 79.3996C104.578 79.8231 104.165 80.351 103.694 80.654C103.024 81.0847 101.051 81.6716 100.86 82.4259C101.501 82.6899 102.16 82.3581 102.805 82.2228L102.932 82.2236C103.758 81.9087 105.574 81.7071 106.428 81.9312C107.076 82.1013 107.265 82.4907 107.594 83.0027C107.696 83.6763 107.661 84.1784 107.395 84.8139C106.626 86.6501 104.64 87.8947 102.707 88.1395C102.1 88.2164 101.607 88.0874 101.014 88.3299C100.566 89.3768 100.971 91.0936 100.858 92.3592C102.897 92.246 104.958 92.2647 107.001 92.2272C107.884 91.1599 108.765 89.9671 109.47 88.7751C111.716 84.9784 111.169 81.4528 110.107 77.3956L113.403 77.4073C113.32 74.3037 113.906 71.523 115.018 68.6442C114.957 69.9154 115.057 70.5917 115.814 71.6134C115.446 73.4645 115.275 75.3482 114.91 77.1949C115.932 77.2932 116.967 77.3626 117.98 77.5324C118.014 74.0378 118.025 70.7685 120.709 68.1437C122.406 66.4845 125.55 64.766 127.961 64.7576C130.341 64.7494 132.675 66.432 135.023 66.7188C136.829 66.9393 140.092 66.001 141.131 66.2275C141.3 66.2643 141.45 66.3143 141.608 66.3813L141.909 66.8594C141.754 67.4502 141.632 67.8336 141.094 68.1807C139.762 69.0401 136.108 69.3071 134.663 68.911C131.292 67.9873 128.08 66.0977 124.651 68.1013C122.93 69.1064 121.9 70.5752 121.42 72.4956C121.018 74.1054 121.009 75.8157 121.035 77.4651L124.503 77.5441C123.336 81.7035 122.407 85.4464 124.693 89.4708C125.18 90.3285 125.804 91.167 126.433 91.9265C127.179 91.5484 128.263 91.1518 128.787 90.4953C128.687 87.6104 128.592 84.7549 128.759 81.8705C128.557 80.9228 128.69 79.7021 128.682 78.7219C128.699 78.3748 128.737 77.5979 129.002 77.3637C130.151 76.3515 133.264 76.829 134.751 76.8963C137.174 74.6385 140.624 73.3769 142.787 70.994C143.428 70.2881 143.234 69.6095 143.209 68.7203Q143.202 68.1093 143.201 67.4983C143.199 66.2373 143.045 65.1665 143.978 64.2298L145.61 64.3678C146.955 64.4601 149.95 64.1445 150.893 65.1694C151.691 66.0377 151.392 67.5256 151.273 68.5972Q151.227 69.0086 151.168 69.4182C150.166 69.4117 148.807 69.2219 147.927 69.7379C147.876 69.7677 147.825 69.7957 147.774 69.8251C147.653 69.8947 147.537 69.9676 147.421 70.0446C147.384 70.0538 147.347 70.0635 147.31 70.0722C146.719 70.2111 145.897 70.0818 145.481 70.4906C146.076 71.6708 152.17 74.8451 153.929 76.7668Q155.638 76.7803 157.346 76.8325C158.009 76.9598 158.659 77.0928 159.309 77.2791C159.417 77.457 159.862 88.3015 160.245 90.1029L160.295 90.3283C163.037 91.03 168.255 93.1408 169.901 95.562C169.924 95.596 169.946 95.6305 169.969 95.6648C170.144 95.5959 170.291 95.5446 170.437 95.4204C171.47 94.5408 175.753 90.4749 175.878 89.425L175.277 89.323C175.132 89.2997 174.96 89.2827 174.825 89.2137C174.197 88.8913 174.171 88.2906 173.982 87.6704C175.87 87.1969 177.406 87.6132 179.235 88.0746C177.942 91.3014 175.3 94.3215 172.55 96.422C171.775 96.7471 170.916 97.3977 170.107 97.185L169.876 95.9895C169.583 96.2174 169.38 96.2929 169.28 96.6573L168.628 95.9323C167.708 95.8015 167.347 96.0636 166.504 96.4239C163.383 94.6581 160.093 93.0917 156.62 92.154C150.129 90.4013 139.893 90.3729 133.417 92.1725C130.508 92.9808 127.449 94.0376 124.777 95.4385C130.56 97.2308 134.535 102.081 140.202 103.725C146.543 105.564 150.012 101.057 155.273 103.328C156.63 103.913 157.589 104.924 158.828 105.659L159.718 106.208C159.76 106.287 159.82 106.415 159.884 106.488C161.107 107.904 165.874 109.131 167.687 109.084C168.237 109.07 168.413 109.029 168.778 108.635C168.552 106.717 168.035 104.756 167.227 103.003C168.465 103.044 168.413 103.35 169.415 103.783C169.662 104.111 169.818 104.433 169.931 104.826C170.399 106.441 170.343 107.15 169.549 108.57C170.592 108.939 175.754 107.212 177.339 107.057C178.598 106.933 179.85 107.112 181.098 107.276C181.41 108.212 181.551 109.231 181.742 110.199C175.947 109.587 171.581 112.476 166.503 112.194C159.912 111.827 157.58 107.026 152.958 105.895C150.607 105.319 145.293 107.994 141.403 107.489C138.151 107.067 135.929 105.125 132.932 104.216C126.75 102.341 115.638 105.628 109.608 108.088C107.293 109.032 105.073 110.257 102.86 111.419C103.853 112.64 105.753 114.257 105.643 115.889L105.149 116.216C104.605 116.279 104.053 116.356 103.56 116.064C102.415 115.385 101.131 113.46 100.099 112.485C96.5029 109.089 90.7272 104.855 85.9283 103.335C84.715 102.95 83.2567 102.969 82.1172 103.561C81.869 104.447 82.9178 104.646 83.6009 104.922C87.6511 106.558 98.7276 112.482 100.489 116.388C100.736 116.936 100.667 117.05 100.466 117.587C99.768 117.87 99.3919 117.841 98.7192 117.472C96.6954 116.363 94.8427 114.227 93.0539 112.741C89.9314 110.147 85.2041 108.181 81.3771 106.878C72.8889 103.988 61.5457 104.303 53.4603 108.264C53.4721 107.137 53.0288 103.803 53.6426 102.964C53.9742 103.151 54.5511 103.592 54.9152 103.587C57.0828 103.557 59.4482 102.868 61.6117 102.566C66.4597 101.888 68.8524 102.222 73.656 102.663C77.1006 102.979 79.874 100.991 82.3978 98.8986C82.5742 97.3925 82.4412 95.6931 82.8802 94.2376C83.4309 92.4116 86.8618 92.9186 88.0281 91.5582C88.4321 90.8229 88.0428 89.8267 87.8551 89.0544C87.2818 88.6559 86.9859 88.7918 86.3029 88.8416C85.5542 87.3721 84.3341 87.8199 83.2412 86.5422C85.0852 86.9646 87.2142 86.3883 89.101 86.371C89.8318 86.9357 90.6244 87.4805 91.2791 88.1317C91.7694 89.5415 92.7498 91.7077 92.0556 93.1635C91.1089 95.1488 87.1121 95.0075 86.2964 97.0508L86.597 97.1861C90.641 95.4062 94.5043 93.8486 98.8648 92.9636C98.6773 91.9652 98.7646 89.3046 98.2664 88.6491C97.0536 88.0849 95.7074 88.4334 94.47 88.0118C93.5302 87.3564 92.7473 86.3987 92.1556 85.433C91.8255 84.3478 91.6217 83.6891 92.1518 82.6464C93.8419 81.5109 96.706 82.7589 98.6783 82.7027L98.9456 82.4192C98.8717 82.2601 98.7957 82.0824 98.6893 81.9426C98.2918 81.4204 97.7704 81.5168 97.1681 81.4587C96.9548 81.2285 96.7661 80.9654 96.5716 80.7184L96.7476 79.84C97.1222 79.9085 97.6021 80.0464 97.9658 79.8934C98.2628 79.7684 98.399 79.2574 98.5324 78.9598C98.4925 78.3289 98.4282 77.8774 98.1346 77.3102C98.0122 77.0737 97.6567 77.0425 97.4069 76.9623C96.5919 77.0715 95.8046 77.1624 94.9815 77.1541C94.1629 77.6883 94.0945 78.0516 93.8924 78.9945L93.8616 79.1413L94.038 79.3062ZM94.7302 66.9588C95.324 66.937 95.3489 66.9729 95.7664 66.5604C95.7193 65.9286 95.5443 65.2865 95.1042 64.8056C94.6944 64.3578 94.3512 64.2532 93.7684 64.2221C93.1732 64.58 93.0228 64.9927 92.7732 65.603C93.4468 66.0287 94.1248 66.4376 94.7302 66.9588ZM145.361 66.2785L144.902 67.2244C145.744 67.5091 146.664 67.5533 147.548 67.5526C148.35 67.5521 148.988 67.3857 149.549 66.8184L149.153 66.4582C147.89 66.0928 146.656 66.211 145.361 66.2785ZM91.9614 67.4841C91.4089 67.8278 91.2391 67.8697 91.0107 68.5067C91.305 69.0236 91.537 69.3033 92.1323 69.4778C92.8311 69.6825 93.4022 69.6432 94.0185 69.2453C94.0427 69.2296 94.0654 69.2117 94.0889 69.1949C94.0609 69.1559 94.032 69.1174 94.0049 69.0778C93.4243 68.2289 92.8876 67.9189 91.9614 67.4841ZM134.893 79.0778C133.4 79.153 131.894 79.123 130.399 79.1287C130.494 81.3713 130.606 83.8452 130.423 86.0755C130.431 87.0647 130.177 89.0273 130.512 89.8636C131.964 89.2287 133.532 88.9465 135.073 88.6091C134.715 85.4717 134.873 82.2339 134.893 79.0778ZM140.965 87.7584C140.941 86.7111 140.91 85.6592 140.935 84.6117C140.961 83.4911 141.102 82.4952 141.968 81.703C142.661 81.069 143.644 80.7974 144.571 80.8615C145.67 80.9374 146.252 81.3903 146.961 82.1907C147.806 83.8243 146.944 86.5724 147.768 87.6982L148.416 87.8276Q149.586 87.8089 150.757 87.8215C151.295 86.1071 150.713 78.9359 150.582 76.7594Q147.207 74.6366 143.792 72.5795L137.532 76.7133C137.407 80.4375 137.782 84.1357 137.531 87.8755C138.67 87.7621 139.822 87.7751 140.965 87.7584ZM105.752 83.9807L102.867 84.069C101.666 84.8301 100.79 85.8641 99.849 86.9123C101.612 86.7776 104.141 86.7201 105.393 85.2859C105.624 85.0222 105.865 84.7308 105.84 84.3535C105.831 84.2001 105.797 84.1192 105.752 83.9807ZM94.8923 85.9742C95.4891 86.1947 96.2303 86.541 96.8593 86.5982C97.3873 86.6462 97.6032 86.4981 97.996 86.1874C97.981 85.5998 97.9308 85.433 97.4898 85.0148C96.8312 84.3902 95.333 84.0802 94.4332 84.111C93.9083 84.129 93.7449 84.2153 93.4097 84.5929L93.5641 85.2464C94.0123 85.4541 94.5285 85.6346 94.8923 85.9742ZM145.751 86.4168C145.655 84.821 145.599 83.573 144.333 82.4302C143.793 82.3779 143.678 82.3496 143.237 82.71C142.494 83.318 142.041 84.4363 141.969 85.3722C141.907 86.1674 141.916 86.9692 141.847 87.7622L145.661 87.8221L145.751 86.4168ZM101.383 61.8141C101.269 62.7588 101.114 63.6682 101.366 64.6044C101.731 65.0334 101.828 65.1442 102.433 65.133C102.481 65.1321 102.528 65.1197 102.575 65.113C102.867 64.3594 103.277 63.5671 103.071 62.7486C102.553 62.1536 102.172 61.9425 101.383 61.8141ZM96.4295 62.1771C96.6485 63.1829 97.1418 64.5964 98.089 65.1493C98.3636 65.3095 98.6912 65.3983 98.9963 65.4803C98.9707 64.5752 98.9686 63.7454 98.624 62.8919C97.9211 62.2468 97.5503 62.1295 96.5702 62.1699L96.4295 62.1771ZM105.137 63.8695C104.563 64.5136 104.115 65.0124 103.905 65.8631L104.102 66.3153C104.376 66.3716 104.629 66.4473 104.91 66.4167C105.551 65.9301 106.129 65.573 106.355 64.7602C106.133 64.2468 106.054 64.1381 105.49 63.9468C105.328 63.8918 105.287 63.8912 105.137 63.8695ZM98.3309 67.0615C97.2931 67.6517 96.4295 68.2603 96.0832 69.4624C95.7473 70.6285 95.9774 71.726 96.2245 72.8773C97.1333 73.897 97.8693 74.7078 99.3143 74.8006C99.8542 74.8353 100.412 74.7824 100.95 74.7379C102.21 74.021 103.122 73.3043 103.544 71.86Q103.647 71.5164 103.679 71.1592Q103.711 70.802 103.671 70.4455Q103.631 70.0891 103.521 69.7478Q103.41 69.4066 103.234 69.0943C102.69 68.1371 101.692 67.3867 100.625 67.1198C99.8757 66.9326 99.092 67.0029 98.3309 67.0615ZM106.901 67.9128C106.274 68.4477 105.705 68.8703 105.439 69.6757C105.5 69.8606 105.535 70.1591 105.709 70.2498C106.279 70.5452 106.827 70.4265 107.438 70.3484C108.036 69.9738 108.243 69.7512 108.499 69.0922C108.33 68.4304 108.307 68.413 107.758 68.0027L106.901 67.9128ZM93.0092 71.4546C92.3233 71.7822 91.4571 72.0801 91.0439 72.7472C91.0365 73.3271 91.1448 73.5901 91.5657 74.0078C91.703 74.1442 91.8592 74.2532 92.0213 74.3573C92.7418 73.8804 93.2742 73.4917 93.7422 72.7569C93.7932 72.2666 93.8753 72.1496 93.5423 71.7588C93.3829 71.5717 93.2358 71.5299 93.0092 71.4546ZM105.551 72.3193C105.765 72.9457 105.833 73.3573 106.491 73.6773C107.187 74.0157 108.195 73.8791 108.938 73.8268C108.657 73.1728 108.491 72.7098 107.801 72.3885C107.131 72.0761 106.253 72.2143 105.551 72.3193ZM103.791 74.8812C104.117 76.0788 104.219 77.0699 105.368 77.7324C105.858 77.7044 106.195 77.628 106.637 77.4118C106.561 76.6669 106.508 76.233 105.911 75.7055C105.32 75.182 104.55 74.9875 103.791 74.8812ZM100.708 76.2944C100.556 77.1662 100.327 78.317 100.904 79.0921C101.152 79.4253 101.44 79.675 101.857 79.7564C102.19 79.8213 102.592 79.782 102.929 79.7659C102.966 78.8529 102.108 77.2753 101.458 76.6376C101.256 76.4404 100.973 76.3614 100.708 76.2944ZM153.175 79.1847C153.21 82.3213 153.004 85.3261 153.374 88.4512C154.85 88.6065 156.355 88.8313 157.697 89.5064C158.093 86.106 157.445 82.5886 157.749 79.1804C156.224 79.2204 154.699 79.282 153.175 79.1847ZM113.199 79.9092C113.381 84.9145 113.014 88.7878 109.642 92.7729C113.315 92.6772 116.5 93.3924 120.091 93.9289C120.834 93.9951 121.806 94.2016 122.484 93.847C122.707 91.965 120.567 89.2105 120.035 87.2923C119.351 84.8267 119.478 82.3688 119.911 79.8712C117.772 80.1982 115.316 80.4665 113.199 79.9092ZM104.151 95.3985C97.4344 95.57 91.8417 97.7503 85.9465 100.782C87.923 101.717 89.9865 102.587 91.8505 103.733C98.1672 98.9027 103.035 97.8385 110.088 95.1462Q107.116 95.182 104.151 95.3985ZM117.24 96.3726C111.426 96.7324 104.784 98.9148 99.6 101.435C97.5096 102.451 95.5569 103.683 93.5019 104.752C94.4293 105.326 95.55 106.222 96.6252 106.426C96.81 106.306 97.0267 106.203 97.1519 106.02C103.934 101.215 112.519 98.7648 120.607 97.4185C120.398 96.9635 120.092 96.9545 119.643 96.7888C118.888 96.5099 118.049 96.3019 117.24 96.3726ZM123.059 99.3633C115.782 99.6525 104.601 103.729 98.6238 107.717L100.691 109.851C101.637 109.209 102.591 108.467 103.577 107.897C111.514 103.647 121.285 100.849 130.348 100.936C127.991 99.5978 125.824 98.7212 123.059 99.3633Z"/>
	<path fill="#0DB5CC" transform="scale(1.67111 1.67111)" d="M72.4252 63.2633C74.2132 62.8579 74.9982 62.9553 76.6539 63.7654L76.412 64.9322C76.083 65.0944 75.8857 65.1583 75.5171 65.1513C74.2359 64.5063 72.9693 65.4725 71.9024 64.8235C72.2962 64.2667 72.3774 63.9257 72.4252 63.2633Z"/>
	<path fill="#08B1CD" transform="scale(1.67111 1.67111)" d="M76.6539 63.7654C77.3921 64.6544 77.8645 65.5448 77.745 66.7374C77.6515 67.6713 77.2112 68.6255 76.4558 69.2034C75.7264 69.7614 74.7613 69.8759 73.8736 69.7454C73.6188 69.7079 73.3905 69.6177 73.1649 69.4971C72.6205 69.2137 72.0484 68.7413 71.8119 68.1568C71.6076 67.652 71.6205 67.5601 71.815 67.0777C72.6247 67.0381 72.86 67.2369 73.5627 67.6118C74.2532 67.6512 74.5687 67.467 75.0881 67.0613C75.5073 66.3828 75.5441 65.9406 75.5171 65.1513C75.8857 65.1583 76.083 65.0944 76.412 64.9322L76.6539 63.7654Z"/>
	<path fill="#08B1CD" transform="scale(1.67111 1.67111)" d="M108.609 63.8003C108.996 66.16 111.472 66.6282 110.57 69.5103C109.743 68.4501 109.227 66.9726 108.591 65.7743C108.137 64.9188 108.339 64.691 108.609 63.8003Z"/>
	<path fill="#08B1CD" transform="scale(1.67111 1.67111)" d="M143.978 64.2298C146.728 63.8407 149.679 64.0228 152.442 64.2221C152.507 66.1452 152.522 68.0495 152.46 69.9729Q149.941 70.039 147.421 70.0446C147.537 69.9676 147.653 69.8947 147.774 69.8251C147.825 69.7957 147.876 69.7677 147.927 69.7379C148.807 69.2219 150.166 69.4117 151.168 69.4182Q151.227 69.0086 151.273 68.5972C151.392 67.5256 151.691 66.0377 150.893 65.1694C149.95 64.1445 146.955 64.4601 145.61 64.3678L143.978 64.2298Z"/>
	<path fill="#04B0C8" transform="scale(1.67111 1.67111)" d="M191.398 96.6597Q188.715 95.1553 186.412 93.1164C182.739 89.8198 179.855 85.2996 179.593 80.2573C179.286 74.353 182.14 69.1614 185.991 64.8929C186.234 65.0168 186.31 65.1566 186.465 65.3714C186.756 68.0283 185.654 69.4365 184.497 71.6974C180.16 80.1771 181.912 84.9497 188.448 91.3823C189.956 92.8658 191.762 94.4784 192.432 96.5486L192.043 96.895L191.398 96.6597Z"/>
	<path fill="#04B0C8" transform="scale(1.67111 1.67111)" d="M54.5184 83.9386C53.8062 82.7784 52.8639 81.4456 52.9097 80.0286C52.9512 78.746 53.4437 77.5968 54.4174 76.7502C55.4332 75.8672 56.7348 75.5485 58.0581 75.6772C60.4242 75.9072 60.683 77.4121 62.1138 78.9565C62.5833 79.4632 62.9432 79.5071 63.6025 79.5464C65.3796 78.5287 64.4349 76.0887 65.2982 74.4197C65.6881 73.6658 66.3511 73.1861 67.1519 72.9398C68.3843 72.5608 71.6417 72.5639 72.7512 73.2567C74.4473 74.3157 73.8385 77.3286 74.1986 78.9928C74.3496 79.6907 74.6739 79.9298 75.2526 80.2875C77.0734 80.2514 78.0634 77.9357 79.5067 76.9945C80.1415 76.5805 80.8142 76.4638 81.5483 76.6492C83.1174 77.0456 84.8329 78.2543 85.643 79.6694C87.0577 82.1407 83.8352 84.1116 83.2811 86.3679C83.2669 86.4258 83.2545 86.4841 83.2412 86.5422C84.3341 87.8199 85.5542 87.3721 86.3029 88.8416C85.1855 89.1053 83.6277 89.6637 82.4898 89.4891C80.9453 89.2522 79.885 86.6936 79.0204 85.4621C80.2407 83.8269 81.3591 82.1005 82.5129 80.4172L80.4962 78.712C78.8224 80.1691 77.2388 81.482 75.938 83.3025C74.003 82.1921 72.2314 81.6338 70.0674 81.1184C70.1116 79.7493 70.2863 78.1908 70.1038 76.8364C70.0181 76.2004 69.8266 75.6711 69.2898 75.285C68.6504 75.1115 68.2788 75.2454 67.6851 75.4603C66.3795 76.5671 66.7705 79.7316 66.6284 81.3787Q63.9728 81.921 61.3047 82.3974Q59.4231 79.9179 57.5755 77.413L55.4962 79.3785C56.4307 81.0676 57.4764 82.6099 58.1633 84.4322C57.272 85.6561 55.6071 87.935 54.297 88.6231C53.8378 88.8642 53.773 88.8027 53.3046 88.6643C53.1519 88.3858 53.0146 88.0984 52.971 87.7809C52.7476 86.1558 53.6304 85.1792 54.5184 83.9386Z"/>
	<path fill="#08B1CD" transform="scale(1.67111 1.67111)" d="M157.346 76.8325C158.264 76.8019 159.408 76.627 160.245 77.049C160.926 78.2636 160.845 88.4516 160.391 90.0261C160.362 90.1277 160.33 90.2284 160.295 90.3283L160.245 90.1029C159.862 88.3015 159.417 77.457 159.309 77.2791C158.659 77.0928 158.009 76.9598 157.346 76.8325Z"/>
	<path fill="#08B1CD" transform="scale(1.67111 1.67111)" d="M94.038 79.3062L93.8616 79.1413L93.8924 78.9945C94.0945 78.0516 94.1629 77.6883 94.9815 77.1541C95.8046 77.1624 96.5919 77.0715 97.4069 76.9623C96.992 77.6186 96.3577 78.3932 96.4028 79.1961L96.7476 79.84L96.5716 80.7184C96.7661 80.9654 96.9548 81.2285 97.1681 81.4587C95.7545 81.0003 95.2018 80.0938 94.038 79.3062Z"/>
	<path fill="#0DB5CC" transform="scale(1.67111 1.67111)" d="M168.111 85.5986C167.7 85.5334 167.361 85.4345 166.98 85.2686C166.764 84.6432 166.78 84.3537 166.964 83.7279L167.218 83.7899C169.049 83.7447 171.028 83.6644 172.755 84.3757C172.571 84.8197 172.041 85.4347 172.03 85.8715C170.788 85.5712 169.383 85.5941 168.111 85.5986Z"/>
	<path fill="#08B1CD" transform="scale(1.67111 1.67111)" d="M172.755 84.3757C173.493 84.3296 174.565 84.124 175.199 84.5189C175.296 85.8395 173.782 86.5596 173.982 87.6704C174.171 88.2906 174.197 88.8913 174.825 89.2137C174.96 89.2827 175.132 89.2997 175.277 89.323C174.886 89.6424 174.416 89.9183 173.99 90.1911C173.144 90.7325 171.79 91.3323 170.761 91.0512C170.232 90.9067 170.209 90.7569 169.935 90.3112C169.882 88.3568 171.16 87.4809 172.03 85.8715C172.041 85.4347 172.571 84.8197 172.755 84.3757Z"/>
	<path fill="#04B0C8" transform="scale(1.67111 1.67111)" d="M69.6133 100.746C68.6968 100.812 67.808 100.847 66.9096 100.617C65.5606 100.271 64.3164 99.3669 63.6182 98.1574Q63.4817 97.9211 63.3697 97.6722Q63.2576 97.4234 63.1711 97.1646Q63.0846 96.9058 63.0245 96.6396Q62.9644 96.3734 62.9313 96.1025Q62.8982 95.8316 62.8924 95.5588Q62.8867 95.2859 62.9083 95.0139Q62.93 94.7418 62.9788 94.4733Q63.0277 94.2048 63.1032 93.9426C63.7289 91.7856 65.1786 90.8206 67.022 89.7856C68.1548 89.6944 69.3554 89.685 70.4203 90.1223C71.8958 90.7281 73.1131 91.8992 73.6893 93.3957Q73.7865 93.65 73.8573 93.9128Q73.9282 94.1756 73.9721 94.4442Q74.0159 94.7129 74.0323 94.9846Q74.0487 95.2563 74.0375 95.5283Q74.0262 95.8002 73.9875 96.0697Q73.9487 96.3391 73.8828 96.6032Q73.8169 96.8673 73.7246 97.1234Q73.6322 97.3794 73.5144 97.6248C72.6683 99.3851 71.3643 100.124 69.6133 100.746ZM68.0786 92.971C67.4332 93.4814 66.6684 94.0248 66.5761 94.9103C66.5177 95.4704 66.5919 95.9166 66.9818 96.3556C67.5458 96.9905 68.43 97.0464 69.2214 97.0525C69.2528 97.0527 69.2843 97.0522 69.3158 97.0521C69.9534 96.662 70.4046 96.4875 70.607 95.6998C70.7484 95.1495 70.5883 94.5378 70.2814 94.0742C69.969 93.6022 69.4975 93.16 68.9318 93.0423C68.6548 92.9847 68.3608 92.9706 68.0786 92.971Z"/>
	<path fill="#0DB5CC" transform="scale(1.67111 1.67111)" d="M173.087 96.7437L173.3 96.6734C175.321 95.9912 181.166 92.3461 182.951 93.2023C183.105 94.9454 181.044 96.1855 181.071 97.6329C182.905 97.0169 185.133 95.6424 187.126 96.4557C187.411 96.8261 187.514 96.8891 187.446 97.3833C187.284 98.551 185.76 99.8576 185.273 101.014C184.595 102.626 184.303 104.454 183.817 106.137C184.453 105.378 185.103 104.522 185.846 103.869C186.926 102.919 191.945 99.1778 193.255 99.0819C193.44 99.0683 193.428 99.0712 193.59 99.0736L193.718 99.3805C191.773 102.941 188.2 103.06 186.91 105.107C186.126 106.354 186.724 108.39 186.078 109.772C185.94 110.069 185.755 110.269 185.492 110.458C184.834 110.383 184.569 110.215 184.147 109.688C182.536 107.677 182.175 104.682 182.547 102.21C182.669 101.397 183.528 99.474 183.355 98.8532C181.721 99.0307 180.289 101.028 178.57 100.36C177.74 99.3567 178.357 97.6434 177.771 97.06C176.53 97.3653 175.444 97.9542 174.269 98.43C174.001 98.4074 173.781 98.3121 173.531 98.2208C173.121 97.6583 173.137 97.4166 173.087 96.7437Z"/>
	<path fill="#0DB5CC" transform="scale(1.67111 1.67111)" d="M163.272 100.248C162.351 100.043 161.977 99.6974 161.42 98.9485C160.527 97.7472 159.246 95.4373 159.453 93.9877C159.553 94.0184 159.654 94.0486 159.754 94.0829C161.122 94.555 162.254 95.7874 162.849 97.0863C163.227 97.9118 163.602 99.3801 163.272 100.248Z"/>
	<path fill="#08B1CD" transform="scale(1.67111 1.67111)" d="M166.504 96.4239C167.347 96.0636 167.708 95.8015 168.628 95.9323L169.28 96.6573C169.034 96.886 168.753 97.0881 168.489 97.2964C167.591 97.2351 167.25 96.9089 166.504 96.4239Z"/>
	<path fill="#08B1CD" transform="scale(1.67111 1.67111)" d="M169.876 95.9895L170.107 97.185C170.916 97.3977 171.775 96.7471 172.55 96.422L173.087 96.7437C173.137 97.4166 173.121 97.6583 173.531 98.2208C173.781 98.3121 174.001 98.4074 174.269 98.43C174.249 98.4486 174.232 98.4693 174.211 98.4857C173.162 99.3029 171.799 100.403 170.411 100.295C170.163 100.144 169.789 99.9953 169.65 99.7412C168.982 98.5208 169.534 97.2356 169.876 95.9895Z"/>
	<path fill="#08B1CD" transform="scale(1.67111 1.67111)" d="M158.828 105.659L158.829 105.564C158.844 104.355 159.248 102.943 160.16 102.092C161.352 100.979 162.612 100.961 164.143 100.985C165.508 101.017 167.36 100.857 168.402 101.909C168.903 102.414 169.176 103.127 169.415 103.783C168.413 103.35 168.465 103.044 167.227 103.003C166.274 102.083 163.7 102.28 162.452 102.225C160.994 103.323 160.943 105.066 159.718 106.208L158.828 105.659Z"/>
	<path fill="#04B0C8" transform="scale(1.67111 1.67111)" d="M87.0006 114.782C79.5459 110.822 70.0375 107.884 61.5208 109.624C58.7288 110.194 56.0888 111.47 53.2778 112.008L52.6907 111.384C52.6729 110.937 52.5988 110.725 52.8865 110.357C54.8924 107.79 61.9872 107.217 65.1188 106.851Q65.4165 106.824 65.7152 106.812C75.235 106.445 86.7201 110.181 93.7352 116.76C94.5677 117.541 95.7758 118.725 95.8163 119.885L95.4247 120.05C92.563 119.73 89.5568 116.311 87.0006 114.782Z"/>
	<path fill="#04B0C8" transform="scale(1.67111 1.67111)" d="M134.64 113.341C134.426 113.764 134.206 114.258 133.908 114.626C133.515 115.113 133.081 115.177 132.501 115.228L131.978 114.778C131.085 112.838 131.193 109.514 131.757 107.491C132.681 107.465 133.594 107.51 134.506 107.675C135.273 107.814 135.734 108.078 136.179 108.721C136.631 110.367 135.402 111.962 134.64 113.341Z"/>
	<path fill="#04B0C8" transform="scale(1.67111 1.67111)" d="M127.239 115.599C126.159 114.303 124.389 113.095 123.618 111.63C123.251 110.934 123.351 110.525 123.581 109.823C124.263 108.997 125.241 108.633 126.191 108.197C126.525 108.187 126.864 108.299 127.188 108.375C128.109 109.359 128.774 111.542 129.014 112.867C129.184 113.81 129.296 114.506 128.742 115.305C128.182 115.574 127.875 115.689 127.239 115.599Z"/>
	<path fill="#04B0C8" transform="scale(1.67111 1.67111)" d="M137.648 117.099C136.976 117.401 136.406 117.709 135.65 117.62C135.192 117.172 135.126 116.982 134.95 116.39C135.214 114.346 138.182 112.324 139.644 111.052C139.72 111.087 139.795 111.122 139.867 111.162C141.666 112.162 142.161 113.853 142.668 115.693C141.006 116.195 139.319 116.625 137.648 117.099Z"/>
	<path fill="#08B1CD" transform="scale(1.67111 1.67111)" d="M171.156 113.106C174.201 111.59 177.156 111.427 180.377 112.495C183.474 113.521 186.32 115.768 187.779 118.721C188.733 120.654 189.035 122.738 188.346 124.811C188.087 125.592 187.782 126.447 187.167 127.016C186.882 127.105 186.724 127.23 186.442 127.093C185.531 126.647 184.649 125.368 183.768 124.733C182.763 124.402 181.824 124.473 180.826 124.226C179.798 123.972 179.346 122.884 178.842 122.035C178.141 123.823 177.151 125.21 175.947 126.687C177.948 126.766 183.555 127.63 185.218 128.623C185.703 128.913 185.675 129.033 185.811 129.555C185.681 129.892 185.544 130.235 185.277 130.488C184.974 130.776 184.456 131.113 184.035 131.118C182.432 131.137 180.365 130.366 178.73 130.101C175.942 129.648 173.177 129.527 170.36 129.482C169.55 128.687 168.873 127.703 168.171 126.811C170.018 126.688 171.878 126.713 173.728 126.699C174.349 125.14 176.283 123.024 175.843 121.365L174.758 121.023L174.78 120.675L174.335 120.386L174.382 120.055L176.165 119.34C178.607 119.945 180.584 121.96 182.946 122.911C183.404 123.095 183.847 123.326 184.291 123.542C184.749 123.818 184.8 123.871 185.326 123.829C185.655 123.166 185.529 122.418 185.392 121.717C184.884 119.123 183.777 116.843 181.495 115.36C178.781 113.595 176.026 113.723 173.032 114.39C172.45 113.847 171.759 113.791 171.156 113.106Z"/>
	<path fill="#04B0C8" transform="scale(1.67111 1.67111)" d="M112.769 119.897C111.744 119.838 110.279 120.597 109.489 120.237C110.397 119.524 111.388 118.96 112.31 118.275C107.849 119.588 103.702 121.633 99.1561 122.707C101.316 123.35 102.175 123.685 104.345 122.916C103.962 123.659 103.293 124.43 103.03 125.193C97.3418 128.635 91.2326 132.088 85.1399 134.756C87.2062 135.375 89.1339 135.859 91.3025 135.869C91.3704 140.983 90.0207 144.861 86.8317 148.859C90.6484 148.674 96.2842 146.886 99.3392 147.27C105.544 148.048 105.577 152.716 114.846 152.558C115.631 150.196 123.884 131.733 124.834 131.189C125.126 131.022 125.321 131.125 125.633 131.186C125.924 131.658 126.115 131.922 125.994 132.5C125.654 134.122 123.394 138.61 122.545 140.054C122.265 140.777 122.118 141.355 122.09 142.132C120.436 143.283 118.373 150.032 117.055 152.179C118.403 151.906 120.925 151.685 121.929 150.722C122.691 148.956 123.881 144.112 123.798 142.274C123.905 141.768 124.543 141.202 124.858 140.78C125.323 140.157 125.115 139.385 125.007 138.667C125.264 136.769 125.981 133.559 127.321 132.124L127.81 131.994C128.251 132.398 128.333 132.549 128.357 133.166C128.445 135.429 126.529 139.275 126.878 141.093C126.809 141.736 126.777 142.316 126.839 142.961L126.634 143.08C125.109 144.789 124.827 148.659 124.041 150.877C125.41 150.87 126.611 151.041 127.945 151.341C128.023 149.454 128.687 144.839 127.601 143.442C127.796 142.936 128.414 142.349 128.742 141.905L128.319 141.699C128.955 140.56 129.093 134.371 128.88 132.922C129.613 132.691 129.863 132.517 130.61 132.75C131.314 133.933 130.891 135.431 130.708 136.744C130.999 141.087 130.259 147.374 129.65 151.787C134.098 154.647 137.804 154.142 142.759 153.354Q145.511 154.654 148.315 155.836C146.509 156.239 144.686 156.356 142.85 156.551C138.38 157.026 135.186 157.38 130.856 155.799C128.659 154.997 126.636 153.772 124.247 153.708C121.341 153.631 118.979 154.717 116.214 155.377C109.537 156.971 105.161 153.557 99.7943 150.257C95.1206 150.104 91.0103 152.302 86.2477 151.54Q86.1066 151.518 85.9659 151.493L85.83 151.469C81.4063 150.662 78.6747 147.809 75.017 145.483C73.1045 144.267 70.9101 143.325 68.7821 142.563C64.8994 141.175 60.4024 139.963 56.2472 139.905C55.2793 139.891 54.157 140.072 53.2682 139.639C53.226 139.619 53.1855 139.595 53.1442 139.573C52.8017 139.022 52.7806 138.987 52.8449 138.344C52.9974 138.172 53.1525 138.051 53.3618 137.95C54.6344 137.337 57.3633 137.772 58.7268 137.912Q59.9822 138.04 61.2275 138.245Q62.4728 138.449 63.7034 138.729Q64.934 139.008 66.1454 139.362Q67.3568 139.715 68.5446 140.142Q69.7323 140.568 70.892 141.066Q72.0517 141.564 73.179 142.131Q74.3064 142.698 75.3973 143.332Q76.4882 143.967 77.5386 144.666C79.3032 145.856 81.2428 147.757 83.3001 148.338C83.8147 148.483 84.2344 148.484 84.703 148.197C87.0586 146.759 88.1808 142.062 88.7608 139.587C83.5133 138.499 80.2739 135.874 75.986 132.92C68.8749 128.022 61.4356 127.266 53.0722 127.092C52.9933 124.873 52.6756 122.122 53.4355 119.985C53.7276 119.163 54.1519 118.482 54.9671 118.112C58.4928 116.516 68.5257 119.146 72.0463 120.475C72.558 119.445 73.1333 118.442 73.6823 117.432C72.1626 115.695 70.2464 114.206 68.4474 112.764C71.5448 112.767 74.6432 112.996 77.7445 113.02C76.347 115.582 74.9215 118.514 73.1027 120.786C74.9824 121.6 78.9479 123.068 80.1402 124.797C80.567 125.416 80.3595 125.93 80.2292 126.602L80.4508 126.824C83.3863 126.409 86.6477 124.772 89.4986 123.77C98.2878 120.682 107.008 117.292 115.852 114.376Q116.482 115.907 117.065 117.456C116.232 119.617 114.742 121.661 113.487 123.605C114.401 124.492 114.942 125.232 115.351 126.471C116.427 129.741 112.35 129.38 111.54 130.966C111.492 131.745 111.567 132.728 110.954 133.288C110.858 133.376 110.757 133.452 110.652 133.527C110.268 132.512 109.865 131.502 109.571 130.457C107.23 130.832 104.886 131.087 102.529 131.334C103.975 132.077 110.325 136.14 111.271 135.852C111.423 135.806 111.368 135.83 111.494 135.726C111.996 135.63 112.564 135.461 113.074 135.479C113.588 136.829 114.43 137.638 115.46 138.606C114.811 139.895 114.201 141.265 113.407 142.468C112.064 144.852 110.792 147.595 109.149 149.767C107.753 149.01 106.349 148.264 104.984 147.452C105.385 147.237 105.739 146.84 106.076 146.533C107.068 146.931 107.846 147.46 108.702 148.084C110.068 146.256 111.305 143.99 112.25 141.911C112.84 141.095 113.231 140.074 113.662 139.165C109.456 137.402 103.151 133.832 99.2549 131.356C98.7276 132.862 97.9369 134.23 97.1713 135.624C96.4665 135.622 95.7508 135.667 95.0758 135.435Q96.6382 132.396 98.374 129.452C99.7056 129.601 106.73 129.054 107.738 128.511C108.281 128.886 108.528 129.144 109.239 129.046C109.463 129.015 109.692 128.929 109.904 128.854C110.774 129.046 111.664 128.956 112.514 128.729C113.865 127.423 112.085 125.086 112.211 123.328C112.214 123.283 112.219 123.238 112.222 123.193C112.313 121.84 113.623 121.138 113.71 119.911L113.398 119.727L112.769 119.897ZM56.7294 119.758L54.2359 123.968C61.1461 123.184 69.5209 125.3 75.652 128.536C76.6965 128.241 77.2837 126.622 77.8512 125.68C70.9628 121.945 64.726 119.623 56.7294 119.758ZM96.887 123.972C96.3672 125.084 95.9418 126.23 95.5072 127.377C96.1853 127.098 96.8971 126.843 97.5519 126.515C98.2296 126.187 98.9966 125.928 99.3742 125.237C99.1795 124.738 99.0672 124.701 98.5815 124.482C98.0488 124.241 97.4527 124.114 96.887 123.972ZM94.3154 124.499C92.9461 125.147 90.7654 125.473 89.6936 126.444L89.7391 126.818C90.3113 127.134 90.8036 127.263 91.4375 127.387C92.2691 127.645 92.6477 127.922 93.4729 127.598C94.1307 126.784 94.3629 125.953 94.6479 124.969L94.5074 124.559L94.3154 124.499ZM86.3662 127.843C86.0666 128.904 84.9873 131.444 85.2978 132.417C85.867 132.601 86.1421 132.46 86.6747 132.19C87.2281 131.909 87.7629 131.551 88.2902 131.224C89.4977 130.566 90.6973 129.88 91.9362 129.282C90.0422 128.9 88.2148 128.404 86.3662 127.843ZM83.1611 128.233C81.4372 128.905 79.6814 129.541 78.0171 130.351C79.0662 130.967 80.108 131.571 81.0885 132.294L82.7045 133.601C83.1155 132.192 84.1018 129.857 83.9273 128.408C83.5858 128.217 83.5664 128.173 83.1611 128.233Z"/>
	<path fill="#0DB5CC" transform="scale(1.67111 1.67111)" d="M169.051 114.641C169.727 114.098 170.448 113.608 171.156 113.106C171.759 113.791 172.45 113.847 173.032 114.39C172.017 114.882 170.976 115.348 169.994 115.902C169.47 115.568 169.302 115.18 169.051 114.641Z"/>
	<path fill="#04B0C8" transform="scale(1.67111 1.67111)" d="M143.987 122.553C144.642 121.776 145.586 121.052 146.641 120.969C147.772 120.881 149.279 121.816 150.301 121.277C150.548 120.655 150.834 119.856 151.302 119.37C152.318 118.315 153.824 117.745 154.889 116.743C155.796 115.89 156.078 114.584 157.193 113.93L157.907 113.828C158.881 114.566 158.993 115.589 159.157 116.741C159.348 118.086 159.203 119.439 159.074 120.783C160.104 119.643 161.837 116.332 163.15 115.939C164.023 116.273 164.62 116.653 165.028 117.527C166.491 120.66 164.627 122.714 164.776 124.743C164.889 126.282 170.252 133.379 171.483 134.81C172.075 135.498 172.806 136.072 173.501 136.651C173.797 137.695 174.108 138.735 174.325 139.798C173.727 142.034 172.18 144.846 170.132 146.01C166.539 148.052 160.285 143.242 153.594 146.089C150.562 147.379 151.886 151.172 149.492 152.41C148.88 152.202 148.862 152.227 148.56 151.663C148.416 149.613 149.379 147.015 150.707 145.46C152.545 143.307 155.593 142.7 158.287 142.525C161.748 142.302 166.499 144.074 168.005 143.907C168.782 143.82 169.451 143.326 169.959 142.756C170.898 141.703 171.591 140.262 172.123 138.962C171.288 138.539 170.35 138.103 169.679 137.442C167.448 135.242 161.889 127.017 160.249 124.137C161.166 123.34 162.779 122.269 162.886 120.97C162.898 120.821 162.888 120.675 162.872 120.528C162.247 120.481 161.753 121.038 161.286 121.443C160.543 122.089 160.146 122.795 159.106 122.72C158.112 122.649 155.571 122.642 154.831 122.372C154.723 122.202 154.523 122.001 154.567 121.8C154.81 120.683 156.138 119.304 156.823 118.324C155.555 119.124 153.026 120.306 152.63 121.792C152.909 123.379 152.95 124.41 152.261 125.92C151.695 126.054 151.523 125.997 151.023 125.692C149.629 124.843 148.444 123.179 146.679 123.253L146.133 123.578C146.136 124.15 146.328 124.296 146.717 124.688C147.42 125.396 148.411 125.892 148.812 126.839C148.717 127.265 148.687 127.287 148.307 127.513C146.717 128.456 142.152 128.864 140.138 129.227C140.895 128.128 141.85 126.587 143.253 126.275C143.39 126.245 143.487 126.243 143.625 126.225C144.125 126.16 144.383 126.163 144.732 125.772C145.241 125.269 145.778 124.77 145.8 124.014C145.302 123.354 144.649 123.263 144.096 122.673C144.059 122.633 144.023 122.593 143.987 122.553Z"/>
	<path fill="#04B0C8" transform="scale(1.67111 1.67111)" d="M119.147 118.906C119.273 117.167 119.404 115.619 120.406 114.123C121.829 114.483 123.657 115.178 124.949 115.883C125.849 116.375 126.405 116.869 126.703 117.852C126.553 118.525 126.142 118.803 125.636 119.212C123.463 119.26 121.294 119.276 119.147 118.906Z"/>
	<path fill="#08B1CD" transform="scale(1.67111 1.67111)" d="M170.344 118.466Q169.682 118.172 169.031 117.855C168.281 117.482 167.965 117.226 167.698 116.441C167.885 115.67 168.505 115.178 169.051 114.641C169.302 115.18 169.47 115.568 169.994 115.902C170.639 116.604 171.825 116.959 172.228 117.771C171.351 117.776 171.042 117.94 170.344 118.466Z"/>
	<path fill="#04B0C8" transform="scale(1.67111 1.67111)" d="M132.347 122.679C131.821 122.756 131.236 122.862 130.707 122.787C129.794 122.657 128.918 122.101 128.386 121.354C127.842 120.589 127.683 119.618 127.87 118.704C128.141 117.377 128.835 116.71 129.928 115.982C130.275 115.92 130.602 115.919 130.952 115.953C132.094 116.066 133.142 116.381 133.873 117.32C134.411 118.012 134.587 118.898 134.475 119.758C134.289 121.187 133.417 121.86 132.347 122.679Z"/>
	<path fill="#04B0C8" transform="scale(1.67111 1.67111)" d="M170.344 118.466C171.042 117.94 171.351 117.776 172.228 117.771L172.145 118.652L171.481 119.18L170.344 118.466Z"/>
	<path fill="#0DB5CC" transform="scale(1.67111 1.67111)" d="M172.228 117.771C173.531 118.446 174.746 118.961 176.165 119.34L174.382 120.055L174.335 120.386L174.78 120.675L174.758 121.023C173.466 120.955 172.393 120.007 171.481 119.18L172.145 118.652L172.228 117.771Z"/>
	<path fill="#04B0C8" transform="scale(1.67111 1.67111)" d="M135.18 121.751C135.531 120.933 135.833 120.215 136.453 119.564C138.143 119.531 140.518 119.224 142.104 119.814C142.776 120.065 142.934 120.421 143.211 121.047C143.212 122.496 142.42 123.705 141.647 124.875C139.397 124.819 136.965 122.961 135.18 121.751Z"/>
	<path fill="#08B1CD" transform="scale(1.67111 1.67111)" d="M109.489 120.237C110.279 120.597 111.744 119.838 112.769 119.897C110.051 121.979 106.164 123.824 103.03 125.193C103.293 124.43 103.962 123.659 104.345 122.916C105.809 121.871 107.787 120.803 109.489 120.237Z"/>
	<path fill="#04B0C8" transform="scale(1.67111 1.67111)" d="M122.274 127.286C121.594 126.684 120.941 125.996 120.442 125.234C120.065 124.657 119.998 124.172 120.148 123.5C121.084 121.97 124.283 121.38 125.937 120.756C126.609 120.926 126.754 120.97 127.242 121.507C127.25 121.83 127.313 122.133 127.167 122.426C126.38 124.008 123.931 126.722 122.274 127.286Z"/>
	<path fill="#0DB5CC" transform="scale(1.67111 1.67111)" d="M144.732 125.772Q144.62 125.61 144.511 125.446C143.801 124.372 143.727 123.812 143.987 122.553C144.023 122.593 144.059 122.633 144.096 122.673C144.649 123.263 145.302 123.354 145.8 124.014C145.778 124.77 145.241 125.269 144.732 125.772Z"/>
	<path fill="#04B0C8" transform="scale(1.67111 1.67111)" d="M127.438 130.069C126.607 130.025 126.278 129.93 125.647 129.395C125.512 129.082 125.375 128.743 125.366 128.397C125.316 126.6 126.925 124.227 128.121 122.972C128.753 122.98 129.069 122.939 129.627 123.264C130.596 125.025 130.217 127.91 129.923 129.826C129.352 130.214 128.136 130.067 127.438 130.069Z"/>
	<path fill="#04B0C8" transform="scale(1.67111 1.67111)" d="M137.476 129.875C136.999 130.118 136.355 130.448 135.819 130.472C135.294 130.495 134.926 130.343 134.566 129.957C133.379 128.683 132.653 125.948 132.815 124.226C132.878 123.546 133.419 123.295 133.906 122.902C134.282 122.932 134.56 123.054 134.855 123.295C135.788 124.057 138.748 126.789 138.897 127.99C138.663 128.817 138.078 129.297 137.476 129.875Z"/>
	<path fill="#0DB5CC" transform="scale(1.67111 1.67111)" d="M107.738 128.511C107.569 127.48 107.363 126.62 108.01 125.721C108.107 125.585 108.214 125.459 108.323 125.333L108.623 125.379C109.042 126.586 109.259 127.73 109.904 128.854C109.692 128.929 109.463 129.015 109.239 129.046C108.528 129.144 108.281 128.886 107.738 128.511Z"/>
	<path fill="#0DB5CC" transform="scale(1.67111 1.67111)" d="M111.54 130.966C112.094 132.44 112.447 134.052 113.074 135.479C112.564 135.461 111.996 135.63 111.494 135.726C111.104 135.043 110.894 134.271 110.652 133.527C110.757 133.452 110.858 133.376 110.954 133.288C111.567 132.728 111.492 131.745 111.54 130.966Z"/>
	<path fill="#0DB5CC" transform="scale(1.67111 1.67111)" d="M145.249 135.981L145.511 136.06C145.525 135.646 145.597 135.548 145.304 135.228C144.437 134.281 142.695 133.761 141.501 133.316C139.003 134.205 136.772 135.096 135.59 137.678C135.092 138.765 134.959 140.107 134.761 141.28C135.12 141.784 135.162 142.123 135.192 142.733C135.271 144.388 135.851 144.966 136.993 146.078C137.391 146.619 137.875 147.529 138.483 147.772C138.761 147.331 139.051 146.91 139.365 146.493C139.913 146.47 139.987 146.546 140.46 146.842C140.722 147.39 140.758 147.904 140.565 148.484C140.434 148.879 140.1 149.241 139.832 149.552C140.304 149.748 140.741 149.963 141.259 149.991C141.465 150.038 142.114 150.123 142.211 150.277C142.502 150.74 142.528 151.22 142.586 151.748C142.233 151.861 141.86 151.983 141.489 152.009C140.039 152.107 138.904 150.916 137.883 150.049C136.22 147.871 134.923 145.888 133.926 143.321C133.712 141.262 133.665 139.551 134.383 137.571C135.219 135.264 136.929 133.155 139.195 132.142C140.939 131.363 143.158 131.24 144.933 131.986C146.375 132.592 147.58 133.961 148.86 134.864C150.022 135.683 151.33 136.209 152.463 137.097C152.847 137.398 153.292 137.781 153.45 138.259C153.613 138.75 153.456 138.872 153.214 139.288C151.932 140.141 150.738 140.084 149.251 140.153C149.383 139.331 149.066 139.005 148.609 138.357C148.398 138.058 148.061 138.102 147.709 138.042C147.599 138.745 147.643 139.261 147.151 139.789C146.754 139.811 146.41 139.826 146.019 139.741C145.869 138.887 145.636 138.323 145.174 137.591C145.139 137.063 145.214 136.509 145.249 135.981Z"/>
	<path fill="#0DB5CC" transform="scale(1.67111 1.67111)" d="M92.3362 140.622C93.1305 138.81 94.0742 137.136 95.0758 135.435C95.7508 135.667 96.4665 135.622 97.1713 135.624C96.2795 137.253 95.4216 138.917 94.4481 140.498L97.3658 141.79C96.8051 142.048 96.484 142.206 96.1716 142.775C94.8646 142.157 93.596 141.338 92.3362 140.622Z"/>
	<path fill="#08B1CD" transform="scale(1.67111 1.67111)" d="M140.873 137.34C142.433 136.273 143.317 135.854 145.249 135.981C145.214 136.509 145.139 137.063 145.174 137.591C144.298 137.765 143.439 137.903 142.916 138.702C142.534 139.285 142.517 139.996 142.482 140.67C143.298 143.883 144.753 148.281 142.868 151.332C142.779 151.476 142.686 151.612 142.586 151.748C142.528 151.22 142.502 150.74 142.211 150.277C142.114 150.123 141.465 150.038 141.259 149.991C141.982 148.316 141.863 145.913 141.255 144.193C140.654 143.888 139.824 144.021 139.137 143.779C138.908 143.116 139.068 142.811 139.229 142.139L139.281 142.208L139.588 142.247C140.032 141.519 140.3 141.04 140.259 140.173L140.497 140.104C140.455 139.189 140.706 138.237 140.873 137.34Z"/>
	<path fill="#04B0C8" transform="scale(1.67111 1.67111)" d="M147.709 138.042C148.061 138.102 148.398 138.058 148.609 138.357C149.066 139.005 149.383 139.331 149.251 140.153C149.161 141.124 149.182 142.189 148.524 142.966C147.918 143.324 147.925 143.389 147.253 143.221C146.264 142.225 146.053 141.104 146.019 139.741C146.41 139.826 146.754 139.811 147.151 139.789C147.643 139.261 147.599 138.745 147.709 138.042Z"/>
	<path fill="#08B1CD" transform="scale(1.67111 1.67111)" d="M122.545 140.054C123.144 140.363 123.572 140.571 124.26 140.595C124.83 140.176 124.876 139.32 125.007 138.667C125.115 139.385 125.323 140.157 124.858 140.78C124.543 141.202 123.905 141.768 123.798 142.274L122.09 142.132C122.118 141.355 122.265 140.777 122.545 140.054Z"/>
	<path fill="#04B0C8" transform="scale(1.67111 1.67111)" d="M134.761 141.28C135.368 140.959 135.929 140.477 136.478 140.063C137.867 139.676 138.897 139.706 140.259 140.173C140.3 141.04 140.032 141.519 139.588 142.247L139.281 142.208L139.229 142.139C139.068 142.811 138.908 143.116 139.137 143.779C139.824 144.021 140.654 143.888 141.255 144.193C139.894 144.425 137.957 144.553 137.122 145.824C137.054 145.928 137.049 145.955 136.993 146.078C135.851 144.966 135.271 144.388 135.192 142.733C135.162 142.123 135.12 141.784 134.761 141.28Z"/>
	<path fill="#08B1CD" transform="scale(1.67111 1.67111)" d="M126.878 141.093L128.319 141.699L128.742 141.905C128.414 142.349 127.796 142.936 127.601 143.442C127.269 143.37 126.948 143.211 126.634 143.08L126.839 142.961C126.777 142.316 126.809 141.736 126.878 141.093Z"/>
	<path fill="#08B1CD" transform="scale(1.67111 1.67111)" d="M97.3658 141.79C99.881 143.137 103.949 144.856 106.076 146.533C105.739 146.84 105.385 147.237 104.984 147.452C101.982 146.095 99.0746 144.341 96.1716 142.775C96.484 142.206 96.8051 142.048 97.3658 141.79Z"/>
	<path fill="#08B1CD" transform="scale(1.67111 1.67111)" d="M56.8444 145.394C56.1453 145.313 55.1312 145.273 54.5038 144.946C53.9447 144.654 53.7135 144.3 53.5091 143.73L53.8576 143.308C54.6596 142.923 55.5013 143.11 56.3491 143.218C56.9624 143.788 57.337 143.956 57.482 144.795L56.8444 145.394Z"/>
	<path fill="#04B0C8" transform="scale(1.67111 1.67111)" d="M56.3491 143.218C63.3533 143.659 70.5001 145.649 76.3923 149.552C78.9689 151.258 81.2646 153.352 84.3285 154.135C90.2076 155.637 94.9449 152.063 99.4861 153.055C101.226 153.435 102.737 154.439 104.214 155.383C110.979 159.705 113.338 157.877 120.55 156.28C122.598 155.827 125.118 155.361 126.672 157.112C127.599 158.156 128.364 159.233 129.371 160.227C127.183 160.055 125.493 159.719 123.502 158.793C115.877 160.197 111.761 163.455 104.197 159.284C101.692 157.903 99.3582 156.163 96.5674 155.4C89.7898 157.081 86.4226 157.839 79.863 155.127C77.4405 156.825 75.5437 159.321 74.0914 161.863C74.0931 162.522 74.1192 162.519 74.5614 163.014C75.2448 163.127 75.527 163.11 76.1157 162.717C77.5994 161.729 79.5926 158.173 81.2784 158.155C81.6868 158.786 81.5447 159.53 81.4985 160.245C80.5024 162.001 79.0582 163.548 77.7738 165.1C79.9858 166.963 82.2068 169.281 83.3449 171.986C83.8479 172.724 84.3293 173.549 84.9565 174.185L83.9452 174.481C83.2363 174.054 82.5828 173.427 81.941 172.9C80.7723 171.998 79.4752 171.228 78.2335 170.428C78.2745 169.973 78.0511 169.497 77.9059 169.07C77.9249 168.718 77.849 168.472 77.6616 168.173C75.265 164.35 65.9113 160.377 61.5022 159.454C58.8937 158.908 56.1787 158.927 53.5669 158.342C52.924 157.164 53.8143 155.098 54.1529 153.875C55.0292 154.515 56.1932 155.526 57.2076 155.883C58.3127 156.272 59.6179 155.621 60.8774 156.006C61.7818 156.282 62.612 156.894 63.4353 157.352C64.147 157.747 65.7186 158.589 66.5454 158.286C66.8214 158.184 66.9807 157.681 67.1137 157.412C67.6264 157.212 67.8845 157.362 68.3741 157.564C69.1209 157.871 69.2238 158.288 69.5198 158.982C69.9587 160.01 70.5965 160.267 71.5929 160.668C72.3712 160.232 72.9994 158.833 73.4727 158.066C69.2503 156.102 64.5876 154.401 59.9743 153.724C58.2447 153.469 54.4174 153.891 53.1514 152.853C52.8741 152.233 52.7772 151.857 53.047 151.202C53.3647 150.43 53.9944 149.318 54.823 149.026C55.9626 148.624 57.2631 150.12 58.2567 150.552C59.0605 150.901 60.7028 150.873 61.5172 150.574C61.5617 150.558 61.605 150.539 61.6489 150.521C62.2393 151.13 62.6553 151.57 63.4986 151.778L63.8108 151.72C65.7274 151.993 69.7421 153.844 71.1134 153.633C71.7106 153.542 71.942 153.015 72.2958 152.565C73.0311 152.52 73.2414 152.726 73.8721 153.081C73.9902 153.501 74.0449 153.769 73.9088 154.194C73.8442 154.395 73.7657 154.556 73.8044 154.771C73.8543 155.049 75.0533 155.765 75.3489 155.973L77.9069 153.468C71.6121 148.402 64.6208 146.699 56.8444 145.394L57.482 144.795C57.337 143.956 56.9624 143.788 56.3491 143.218Z"/>
	<path fill="#08B1CD" transform="scale(1.67111 1.67111)" d="M61.6489 150.521C62.3604 149.941 62.5745 149.87 63.4779 149.738C64.065 149.993 64.0923 149.977 64.3586 150.552Q64.0879 151.137 63.8108 151.72L63.4986 151.778C62.6553 151.57 62.2393 151.13 61.6489 150.521Z"/>
	<path fill="#04B0C8" transform="scale(1.67111 1.67111)" d="M66.375 170.969C64.5021 170.568 62.4875 169.24 60.6533 168.549C58.8459 167.867 56.9245 167.477 55.1379 166.747C54.4872 166.481 53.8771 166.173 53.3089 165.755C53.0629 165.574 53.125 165.482 53.0825 165.193C53.2789 164.59 55.0324 163.399 55.6021 162.644C55.9057 162.669 56.2722 162.671 56.5418 162.823C57.0103 163.088 56.8357 163.494 56.9922 163.933C57.1723 164.438 57.8062 164.713 58.2792 164.896C59.0549 165.196 63.1676 166.831 63.832 166.639C64.3599 166.486 65.0877 165.902 65.6542 165.658C66.2946 165.76 66.3648 165.838 66.8474 166.282C67.0103 168.114 67.3708 169.312 66.375 170.969Z"/>
	<path fill="#08B1CD" transform="scale(1.67111 1.67111)" d="M69.803 167.962C69.9999 167.34 70.1428 167.058 70.6774 166.647C71.5969 166.352 72.7269 166.891 73.6132 167.178C75.0475 167.769 76.5524 168.312 77.9059 169.07C78.0511 169.497 78.2745 169.973 78.2335 170.428C76.0811 169.615 73.8911 168.852 71.8441 167.794C71.4358 168.518 70.9586 169.256 70.6749 170.037Q70.2246 169.006 69.803 167.962Z"/>
	<path fill="#0DB5CC" transform="scale(1.67111 1.67111)" d="M61.2064 183.469C61.978 180.683 67.9653 170.833 69.803 167.962Q70.2246 169.006 70.6749 170.037C67.9832 174.786 65.1524 179.47 62.5638 184.275C63.3045 185.573 71.837 188.101 73.8314 190.347C74.0917 190.64 74.332 190.834 74.6613 191.046C74.7793 190.859 74.7149 190.913 74.8565 190.818C76.3439 189.831 82.1821 177.048 83.9452 174.481L84.9565 174.185C85.2077 174.613 85.2656 174.736 85.108 175.25C84.207 178.187 81.9469 181.255 80.4933 183.97C78.9846 186.788 77.7038 189.81 76.0373 192.533C75.7362 193.025 75.4238 193.56 74.8982 193.835C73.7851 193.41 70.7748 191.02 69.3589 190.211C66.703 188.694 53.8672 183.07 52.9483 181.278C52.895 181.174 52.8784 181.12 52.8407 181.018L53.0586 180.497C54.1524 180.067 54.9529 180.396 56.0005 180.849C57.2038 181.369 60.2094 183.474 61.2064 183.469Z"/>
	<path fill="#04B0C8" transform="scale(1.67111 1.67111)" d="M64.1212 175.06L63.6727 175.333C62.2802 175.107 60.7394 173.781 59.4317 173.163C57.7872 172.386 54.6802 172.09 53.4801 170.763C53.1574 170.139 53.3459 169.609 53.5039 168.968C54.2232 168.936 54.8532 169.162 55.5585 169.193C56.5012 169.234 58.2141 168.825 59.0968 169.111C59.2573 169.163 59.5015 169.381 59.6508 169.48C59.6192 169.732 59.5635 170.026 59.5899 170.279C59.6438 170.793 63.5316 172.811 64.3051 173.311C64.5238 173.947 64.2836 174.416 64.1212 175.06Z"/>
	<path fill="#0DB5CC" transform="scale(1.67111 1.67111)" d="M79.7966 178.433C78.1841 177.592 76.8515 176.284 75.2088 175.496C74.2082 175.016 71.5629 174.689 70.9579 173.759C70.9785 173.003 71.1855 172.797 71.587 172.172C73.5263 172.215 75.2958 172.764 77.0605 173.548C78.3049 174.102 79.8641 175.049 80.3412 176.406C80.5769 177.076 80.0884 177.837 79.7966 178.433Z"/>
	<path fill="#04B0C8" transform="scale(1.67111 1.67111)" d="M61.3543 179.906C61.1169 179.916 60.7443 179.978 60.5179 179.939C59.8634 179.828 54.1974 176.806 53.7485 176.357C53.1306 175.738 53.2945 174.948 53.3127 174.156C53.6694 174.168 54.0122 174.209 54.3556 174.309C56.2363 174.859 60.7123 176.418 61.6024 178.302C61.8671 178.863 61.5425 179.352 61.3543 179.906Z"/>
	<path fill="#04B0C8" transform="scale(1.67111 1.67111)" d="M77.2424 182.405C75.47 181.906 73.937 180.321 72.2439 179.553C71.0754 179.022 69.6733 179.12 68.5879 178.424C68.4409 177.748 68.9219 176.969 69.2013 176.354C70.188 176.43 71.14 176.58 72.0781 176.904C74.1251 177.611 76.8919 178.569 77.8971 180.646C77.9971 181.37 77.6194 181.827 77.2424 182.405Z"/>
	<path fill="#08B1CD" transform="scale(1.67111 1.67111)" d="M74.9265 187.122C73.3978 186.007 71.7531 184.636 70.0144 183.883C68.9075 183.404 66.9907 183.312 66.2215 182.383C66.203 181.7 66.7339 181.138 67.1166 180.611C68.7998 180.746 70.6761 181.418 72.2083 182.122C73.581 182.753 74.9465 183.652 75.4927 185.119C75.5179 185.916 75.2785 186.421 74.9265 187.122Z"/>
	<path fill="#08B1CD" transform="scale(1.67111 1.67111)" d="M53.724 186.516C55.4159 186.51 57.0434 186.563 58.7219 186.784L61.7913 187.732C61.6693 188.211 61.5728 188.716 61.3908 189.175C60.4038 189.417 59.8283 189.971 59.1018 190.636C59.8001 191.672 61.1777 191.747 62.2707 192.34C62.55 192.376 62.8615 192.329 63.1436 192.314C63.8578 191.865 64.063 191.162 64.3653 190.414C64.9781 190.096 65.6267 189.878 66.276 189.647L66.5241 190.52C66.3042 190.898 66.1631 191.045 65.7736 191.249C65.2058 191.653 64.937 192.04 64.5857 192.627L64.5286 193.317C64.7719 193.52 65.0121 193.733 65.2632 193.926C66.0126 194.155 66.4504 194.274 67.2107 194.021C67.5743 194.475 67.8378 194.463 68.3849 194.598C68.234 194.939 68.0328 195.152 68.1828 195.512C68.4959 196.265 69.5845 196.979 70.1822 197.541C70.7731 196.749 71.5769 195.998 71.5291 194.989L70.9897 194.392C71.7479 194.313 72.6607 194.435 73.4384 194.429L74.0709 194.954C74.1505 196.463 72.5505 197.53 71.7603 198.708C71.5635 199.362 71.3319 200.021 71.2448 200.7C69.0397 199.47 66.4022 196.527 63.5023 194.815L60.9417 193.582C58.5308 192.78 56.2761 192.288 53.7465 191.99C53.6342 190.167 53.6916 188.34 53.724 186.516ZM57.2115 190.66C57.8007 190.079 58.4565 189.514 58.815 188.755L58.614 188.278L57.7541 187.985C56.8741 188.111 55.8603 188.2 55.265 188.949C55.1174 189.135 55.0155 189.319 54.928 189.537C55.1564 190.048 55.3068 190.2 55.8323 190.417C56.2443 190.587 56.7691 190.613 57.2115 190.66Z"/>
	<path fill="#04B0C8" transform="scale(1.67111 1.67111)" d="M61.7913 187.732C63.2468 188.324 64.9344 188.843 66.276 189.647C65.6267 189.878 64.9781 190.096 64.3653 190.414C63.3219 190.165 62.3543 189.636 61.3908 189.175C61.5728 188.716 61.6693 188.211 61.7913 187.732Z"/>
	<path fill="#04B0C8" transform="scale(1.67111 1.67111)" d="M66.276 189.647C67.7864 190.473 69.2644 191.3 70.6817 192.279L69.9135 193.53C69.3347 193.562 69.209 193.479 68.8235 193.926C68.6455 194.133 68.5158 194.361 68.3849 194.598C67.8378 194.463 67.5743 194.475 67.2107 194.021L67.6902 192.964C67.4661 192.04 66.5634 191.731 65.7736 191.249C66.1631 191.045 66.3042 190.898 66.5241 190.52L66.276 189.647Z"/>
	<path fill="#0DB5CC" transform="scale(1.67111 1.67111)" d="M69.9135 193.53L70.6817 192.279C71.6012 192.927 72.712 193.566 73.4384 194.429C72.6607 194.435 71.7479 194.313 70.9897 194.392C70.5652 194.234 70.2354 193.839 69.9135 193.53Z"/>
	<path fill="#04B0C8" transform="scale(1.67111 1.67111)" d="M57.0532 199.817C56.3573 199.02 55.6626 198.628 54.7895 198.088C54.1759 197.709 53.8523 197.414 53.6901 196.719C54.1884 196.375 54.3429 196.287 54.9595 196.405C56.2515 196.652 57.6482 197.902 58.3332 198.975C57.8949 199.229 57.418 199.461 57.0532 199.817Z"/>
	<path fill="#0DB5CC" transform="scale(1.67111 1.67111)" d="M71.7603 198.708C72.9266 199.275 74.0268 199.726 75.2807 200.063L75.7052 199.579C75.4596 198.914 75.0633 198.188 75.32 197.482C76.1222 196.946 76.6557 197.142 77.5772 197.326Q77.9448 197.399 78.3116 197.477C77.0355 199.435 76.5175 200.616 76.4196 202.967C76.0124 202.685 75.5903 202.46 75.153 202.23L74.9848 202.479C73.9641 201.756 72.3943 201.288 71.2448 200.7C71.3319 200.021 71.5635 199.362 71.7603 198.708Z"/>
	<path fill="#04B0C8" transform="scale(1.67111 1.67111)" d="M56.2057 203.09C55.5098 202.341 54.4531 201.395 54.1275 200.414C53.9737 199.95 53.9837 199.884 54.2058 199.459C54.3072 199.457 54.3631 199.454 54.4698 199.467C55.7212 199.623 56.7391 201.5 57.41 202.447C57.0022 202.639 56.5633 202.812 56.2057 203.09Z"/>
	<path fill="#04B0C8" transform="scale(1.67111 1.67111)" d="M58.3332 198.975C59.6085 200.572 60.7331 201.955 62.4719 203.077C61.9541 203.29 61.1759 203.323 60.7506 203.605C59.3699 202.902 58.0583 201.005 57.0532 199.817C57.418 199.461 57.8949 199.229 58.3332 198.975Z"/>
	<path fill="#08B1CD" transform="scale(1.67111 1.67111)" d="M57.41 202.447C58.6854 203.832 60.8242 205.713 62.7881 205.782C63.0227 205.791 63.2529 205.741 63.476 205.673L63.7613 205.235C64.9994 205.057 67.8253 205.049 68.8419 205.76C68.8753 205.783 68.9063 205.809 68.9385 205.834L68.7711 206.364C69.5932 207.464 70.9042 208.22 71.6363 209.364C71.8576 209.709 71.9106 209.766 71.8199 210.186L71.1626 210.349C70.1983 210.104 68.7851 208.485 67.84 207.842C66.7667 207.849 65.6949 207.831 64.6261 207.723C61.0415 207.36 58.4528 205.861 56.2057 203.09C56.5633 202.812 57.0022 202.639 57.41 202.447Z"/>
	<path fill="#08B1CD" transform="scale(1.67111 1.67111)" d="M74.9848 202.479L75.153 202.23C75.5903 202.46 76.0124 202.685 76.4196 202.967C75.746 204.298 74.4667 207.521 72.991 207.975C72.7195 208.058 72.5419 208.077 72.2814 207.94C71.7033 207.637 71.0887 206.656 70.6595 206.125L70.1233 204.54C71.2225 204.876 72.016 205.415 72.9326 206.077C73.5764 204.852 74.2762 203.667 74.9848 202.479Z"/>
	<path fill="#03AFE4" transform="scale(1.67111 1.67111)" d="M60.7506 203.605C61.1759 203.323 61.9541 203.29 62.4719 203.077C64.8729 204.104 67.6208 203.818 70.1233 204.54L70.6595 206.125L68.9385 205.834C68.9063 205.809 68.8753 205.783 68.8419 205.76C67.8253 205.049 64.9994 205.057 63.7613 205.235C62.6724 204.767 61.7318 204.275 60.7506 203.605Z"/>
</svg>
